<svg width="31" height="22" viewBox="0 0 31 22" fill="none" xmlns="http://www.w3.org/2000/svg">
<path d="M14.5 2.07764C14.5 2.35378 14.7239 2.57764 15 2.57764H16.5C16.7761 2.57764 17 2.35378 17 2.07764V0.577637C17 0.301494 16.7761 0.0776367 16.5 0.0776367H15C14.7239 0.0776367 14.5 0.301494 14.5 0.577637V2.07764Z" fill="black"/>
<path d="M9.5 3.07764C9.5 3.35378 9.72386 3.57764 10 3.57764H11.5C11.7761 3.57764 12 3.35378 12 3.07764V1.57764C12 1.30149 11.7761 1.07764 11.5 1.07764H10C9.72386 1.07764 9.5 1.30149 9.5 1.57764V3.07764Z" fill="black"/>
<path d="M6.5 4.07764C6.5 4.35378 6.72386 4.57764 7 4.57764H8.5C8.77614 4.57764 9 4.35378 9 4.07764V2.57764C9 2.30149 8.77614 2.07764 8.5 2.07764H7C6.72386 2.07764 6.5 2.30149 6.5 2.57764V4.07764Z" fill="black"/>
<path d="M0.5 11.0776C0.5 11.3538 0.723858 11.5776 1 11.5776H2.5C2.77614 11.5776 3 11.3538 3 11.0776V9.57764C3 9.30149 2.77614 9.07764 2.5 9.07764H1C0.723858 9.07764 0.5 9.30149 0.5 9.57764V11.0776Z" fill="black"/>
<path d="M1.5 8.07764C1.5 8.35378 1.72386 8.57764 2 8.57764H3.5C3.77614 8.57764 4 8.35378 4 8.07764V6.57764C4 6.30149 3.77614 6.07764 3.5 6.07764H2C1.72386 6.07764 1.5 6.30149 1.5 6.57764V8.07764Z" fill="black"/>
<path d="M0.5 14.0776C0.5 14.3538 0.723858 14.5776 1 14.5776H2.5C2.77614 14.5776 3 14.3538 3 14.0776V12.5776C3 12.3015 2.77614 12.0776 2.5 12.0776H1C0.723858 12.0776 0.5 12.3015 0.5 12.5776V14.0776Z" fill="black"/>
<path d="M4.5 19.0776C4.5 19.3538 4.72386 19.5776 5 19.5776H6.5C6.77614 19.5776 7 19.3538 7 19.0776V17.5776C7 17.3015 6.77614 17.0776 6.5 17.0776H5C4.72386 17.0776 4.5 17.3015 4.5 17.5776V19.0776Z" fill="black"/>
<path d="M2.5 17.0776C2.5 17.3538 2.72386 17.5776 3 17.5776H4.5C4.77614 17.5776 5 17.3538 5 17.0776V15.5776C5 15.3015 4.77614 15.0776 4.5 15.0776H3C2.72386 15.0776 2.5 15.3015 2.5 15.5776V17.0776Z" fill="black"/>
<path d="M8.5 20.0776C8.5 20.3538 8.72386 20.5776 9 20.5776H10.5C10.7761 20.5776 11 20.3538 11 20.0776V18.5776C11 18.3015 10.7761 18.0776 10.5 18.0776H9C8.72386 18.0776 8.5 18.3015 8.5 18.5776V20.0776Z" fill="black"/>
<path d="M10.5 20.0776C10.5 20.3538 10.7239 20.5776 11 20.5776H12.5C12.7761 20.5776 13 20.3538 13 20.0776V18.5776C13 18.3015 12.7761 18.0776 12.5 18.0776H11C10.7239 18.0776 10.5 18.3015 10.5 18.5776V20.0776Z" fill="black"/>
<path d="M12.5 21.0776C12.5 21.3538 12.7239 21.5776 13 21.5776H14.5C14.7761 21.5776 15 21.3538 15 21.0776V19.5776C15 19.3015 14.7761 19.0776 14.5 19.0776H13C12.7239 19.0776 12.5 19.3015 12.5 19.5776V21.0776Z" fill="black"/>
<path d="M14.5 21.0776C14.5 21.3538 14.7239 21.5776 15 21.5776H16.5C16.7761 21.5776 17 21.3538 17 21.0776V19.5776C17 19.3015 16.7761 19.0776 16.5 19.0776H15C14.7239 19.0776 14.5 19.3015 14.5 19.5776V21.0776Z" fill="black"/>
<path d="M17.5 21.0776C17.5 21.3538 17.7239 21.5776 18 21.5776H19.5C19.7761 21.5776 20 21.3538 20 21.0776V19.5776C20 19.3015 19.7761 19.0776 19.5 19.0776H18C17.7239 19.0776 17.5 19.3015 17.5 19.5776V21.0776Z" fill="black"/>
<path d="M20.5 21.0776C20.5 21.3538 20.7239 21.5776 21 21.5776H22.5C22.7761 21.5776 23 21.3538 23 21.0776V19.5776C23 19.3015 22.7761 19.0776 22.5 19.0776H21C20.7239 19.0776 20.5 19.3015 20.5 19.5776V21.0776Z" fill="black"/>
<path d="M21.5 10.0776C21.5 10.3538 21.7239 10.5776 22 10.5776H23.5C23.7761 10.5776 24 10.3538 24 10.0776V8.57764C24 8.30149 23.7761 8.07764 23.5 8.07764H22C21.7239 8.07764 21.5 8.30149 21.5 8.57764V10.0776Z" fill="black"/>
<path d="M6.5 12.0776C6.5 12.3538 6.72386 12.5776 7 12.5776H8.5C8.77614 12.5776 9 12.3538 9 12.0776V10.5776C9 10.3015 8.77614 10.0776 8.5 10.0776H7C6.72386 10.0776 6.5 10.3015 6.5 10.5776V12.0776Z" fill="black"/>
<path d="M17.5 15.0776C17.5 15.3538 17.7239 15.5776 18 15.5776H19.5C19.7761 15.5776 20 15.3538 20 15.0776V13.5776C20 13.3015 19.7761 13.0776 19.5 13.0776H18C17.7239 13.0776 17.5 13.3015 17.5 13.5776V15.0776Z" fill="black"/>
<path d="M13.5 8.07764C13.5 8.35378 13.7239 8.57764 14 8.57764H15.5C15.7761 8.57764 16 8.35378 16 8.07764V6.57764C16 6.30149 15.7761 6.07764 15.5 6.07764H14C13.7239 6.07764 13.5 6.30149 13.5 6.57764V8.07764Z" fill="black"/>
<path d="M22.5 19.0776C22.5 19.3538 22.7239 19.5776 23 19.5776H24.5C24.7761 19.5776 25 19.3538 25 19.0776V17.5776C25 17.3015 24.7761 17.0776 24.5 17.0776H23C22.7239 17.0776 22.5 17.3015 22.5 17.5776V19.0776Z" fill="black"/>
<path d="M25.5 18.0776C25.5 18.3538 25.7239 18.5776 26 18.5776H27.5C27.7761 18.5776 28 18.3538 28 18.0776V16.5776C28 16.3015 27.7761 16.0776 27.5 16.0776H26C25.7239 16.0776 25.5 16.3015 25.5 16.5776V18.0776Z" fill="black"/>
<path d="M27.5 15.0776C27.5 15.3538 27.7239 15.5776 28 15.5776H29.5C29.7761 15.5776 30 15.3538 30 15.0776V13.5776C30 13.3015 29.7761 13.0776 29.5 13.0776H28C27.7239 13.0776 27.5 13.3015 27.5 13.5776V15.0776Z" fill="black"/>
<path d="M26.5 7.07764C26.5 7.35378 26.7239 7.57764 27 7.57764H28.5C28.7761 7.57764 29 7.35378 29 7.07764V5.57764C29 5.30149 28.7761 5.07764 28.5 5.07764H27C26.7239 5.07764 26.5 5.30149 26.5 5.57764V7.07764Z" fill="black"/>
<path d="M24.5 5.07764C24.5 5.35378 24.7239 5.57764 25 5.57764H26.5C26.7761 5.57764 27 5.35378 27 5.07764V3.57764C27 3.30149 26.7761 3.07764 26.5 3.07764H25C24.7239 3.07764 24.5 3.30149 24.5 3.57764V5.07764Z" fill="black"/>
<path d="M3.5 5.07764C3.5 5.35378 3.72386 5.57764 4 5.57764H5.5C5.77614 5.57764 6 5.35378 6 5.07764V3.57764C6 3.30149 5.77614 3.07764 5.5 3.07764H4C3.72386 3.07764 3.5 3.30149 3.5 3.57764V5.07764Z" fill="black"/>
<path d="M28.5 12.0776C28.5 12.3538 28.7239 12.5776 29 12.5776H30.5C30.7761 12.5776 31 12.3538 31 12.0776V10.5776C31 10.3015 30.7761 10.0776 30.5 10.0776H29C28.7239 10.0776 28.5 10.3015 28.5 10.5776V12.0776Z" fill="black"/>
<path d="M28.5 9.07764C28.5 9.35378 28.7239 9.57764 29 9.57764H30.5C30.7761 9.57764 31 9.35378 31 9.07764V7.57764C31 7.30149 30.7761 7.07764 30.5 7.07764H29C28.7239 7.07764 28.5 7.30149 28.5 7.57764V9.07764Z" fill="black"/>
<path d="M22.5 4.07764C22.5 4.35378 22.7239 4.57764 23 4.57764H24.5C24.7761 4.57764 25 4.35378 25 4.07764V2.57764C25 2.30149 24.7761 2.07764 24.5 2.07764H23C22.7239 2.07764 22.5 2.30149 22.5 2.57764V4.07764Z" fill="black"/>
<path d="M18.5 3.07764C18.5 3.35378 18.7239 3.57764 19 3.57764H20.5C20.7761 3.57764 21 3.35378 21 3.07764V1.57764C21 1.30149 20.7761 1.07764 20.5 1.07764H19C18.7239 1.07764 18.5 1.30149 18.5 1.57764V3.07764Z" fill="black"/>
<path d="M16.5 2.07764C16.5 2.35378 16.7239 2.57764 17 2.57764H18.5C18.7761 2.57764 19 2.35378 19 2.07764V0.577637C19 0.301494 18.7761 0.0776367 18.5 0.0776367H17C16.7239 0.0776367 16.5 0.301494 16.5 0.577637V2.07764Z" fill="black"/>
<path d="M11.5 3.07764C11.5 3.35378 11.7239 3.57764 12 3.57764H13.5C13.7761 3.57764 14 3.35378 14 3.07764V1.57764C14 1.30149 13.7761 1.07764 13.5 1.07764H12C11.7239 1.07764 11.5 1.30149 11.5 1.57764V3.07764Z" fill="black"/>
<path d="M20.5 3.07764C20.5 3.35378 20.7239 3.57764 21 3.57764H22.5C22.7761 3.57764 23 3.35378 23 3.07764V1.57764C23 1.30149 22.7761 1.07764 22.5 1.07764H21C20.7239 1.07764 20.5 1.30149 20.5 1.57764V3.07764Z" fill="black"/>
</svg>
