<svg width="415" height="235" viewBox="0 0 415 235" fill="none" xmlns="http://www.w3.org/2000/svg">
<path d="M7.31575 113.328C3.29538 113.328 0 109.697 0 105.267C0 100.837 3.29538 97.206 7.31575 97.206C11.3361 97.206 14.6315 100.837 14.6315 105.267C14.6315 109.697 11.3361 113.328 7.31575 113.328ZM21.9472 113.328C17.9269 113.328 14.6315 109.697 14.6315 105.267C14.6315 100.837 17.9269 97.206 21.9472 97.206C26.0335 97.206 29.263 100.837 29.263 105.267C29.263 109.697 26.0335 113.328 21.9472 113.328ZM36.6447 113.328C32.5584 113.328 29.263 109.697 29.263 105.267C29.263 100.837 32.5584 97.206 36.6447 97.206C40.665 97.206 43.9604 100.837 43.9604 105.267C43.9604 109.697 40.665 113.328 36.6447 113.328ZM51.2762 113.328C47.1899 113.328 43.9604 109.697 43.9604 105.267C43.9604 100.837 47.1899 97.206 51.2762 97.206C55.2965 97.206 58.5919 100.837 58.5919 105.267C58.5919 109.697 55.2965 113.328 51.2762 113.328ZM7.31575 97.206C3.29538 97.206 0 93.5749 0 89.145C0 84.6424 3.29538 81.0839 7.31575 81.0839C11.3361 81.0839 14.6315 84.6424 14.6315 89.145C14.6315 93.5749 11.3361 97.206 7.31575 97.206ZM65.9077 97.206C61.8873 97.206 58.5919 93.5749 58.5919 89.145C58.5919 84.6424 61.8873 81.0839 65.9077 81.0839C69.928 81.0839 73.2234 84.6424 73.2234 89.145C73.2234 93.5749 69.928 97.206 65.9077 97.206ZM7.31575 81.0839C3.29538 81.0839 0 77.4528 0 72.9502C0 68.5203 3.29538 64.8892 7.31575 64.8892C11.3361 64.8892 14.6315 68.5203 14.6315 72.9502C14.6315 77.4528 11.3361 81.0839 7.31575 81.0839ZM65.9077 81.0839C61.8873 81.0839 58.5919 77.4528 58.5919 72.9502C58.5919 68.5203 61.8873 64.8892 65.9077 64.8892C69.928 64.8892 73.2234 68.5203 73.2234 72.9502C73.2234 77.4528 69.928 81.0839 65.9077 81.0839ZM7.31575 64.8892C3.29538 64.8892 0 61.3307 0 56.8281C0 52.3982 3.29538 48.7671 7.31575 48.7671C11.3361 48.7671 14.6315 52.3982 14.6315 56.8281C14.6315 61.3307 11.3361 64.8892 7.31575 64.8892ZM65.9077 64.8892C61.8873 64.8892 58.5919 61.3307 58.5919 56.8281C58.5919 52.3982 61.8873 48.7671 65.9077 48.7671C69.928 48.7671 73.2234 52.3982 73.2234 56.8281C73.2234 61.3307 69.928 64.8892 65.9077 64.8892ZM7.31575 48.7671C3.29538 48.7671 0 45.136 0 40.706C0 36.2761 3.29538 32.645 7.31575 32.645C11.3361 32.645 14.6315 36.2761 14.6315 40.706C14.6315 45.136 11.3361 48.7671 7.31575 48.7671ZM65.9077 48.7671C61.8873 48.7671 58.5919 45.136 58.5919 40.706C58.5919 36.2761 61.8873 32.645 65.9077 32.645C69.928 32.645 73.2234 36.2761 73.2234 40.706C73.2234 45.136 69.928 48.7671 65.9077 48.7671ZM7.31575 32.645C3.29538 32.645 0 29.0139 0 24.5839C0 20.0813 3.29538 16.5229 7.31575 16.5229C11.3361 16.5229 14.6315 20.0813 14.6315 24.5839C14.6315 29.0139 11.3361 32.645 7.31575 32.645ZM65.9077 32.645C61.8873 32.645 58.5919 29.0139 58.5919 24.5839C58.5919 20.0813 61.8873 16.5229 65.9077 16.5229C69.928 16.5229 73.2234 20.0813 73.2234 24.5839C73.2234 29.0139 69.928 32.645 65.9077 32.645ZM7.31575 16.5229C3.29538 16.5229 0 12.8918 0 8.4618C0 3.95924 3.29538 0.328125 7.31575 0.328125C11.3361 0.328125 14.6315 3.95924 14.6315 8.4618C14.6315 12.8918 11.3361 16.5229 7.31575 16.5229ZM21.9472 16.5229C17.9269 16.5229 14.6315 12.8918 14.6315 8.4618C14.6315 3.95924 17.9269 0.328125 21.9472 0.328125C26.0335 0.328125 29.263 3.95924 29.263 8.4618C29.263 12.8918 26.0335 16.5229 21.9472 16.5229ZM36.6447 16.5229C32.5584 16.5229 29.263 12.8918 29.263 8.4618C29.263 3.95924 32.5584 0.328125 36.6447 0.328125C40.665 0.328125 43.9604 3.95924 43.9604 8.4618C43.9604 12.8918 40.665 16.5229 36.6447 16.5229ZM51.2762 16.5229C47.1899 16.5229 43.9604 12.8918 43.9604 8.4618C43.9604 3.95924 47.1899 0.328125 51.2762 0.328125C55.2965 0.328125 58.5919 3.95924 58.5919 8.4618C58.5919 12.8918 55.2965 16.5229 51.2762 16.5229Z" fill="black" fill-opacity="0.4"/>
<path d="M104.466 113.328C100.445 113.328 97.1499 109.697 97.1499 105.267C97.1499 100.837 100.445 97.206 104.466 97.206C108.552 97.206 111.781 100.837 111.781 105.267C111.781 109.697 108.552 113.328 104.466 113.328ZM119.163 113.328C115.077 113.328 111.781 109.697 111.781 105.267C111.781 100.837 115.077 97.206 119.163 97.206C123.183 97.206 126.479 100.837 126.479 105.267C126.479 109.697 123.183 113.328 119.163 113.328ZM133.795 113.328C129.708 113.328 126.479 109.697 126.479 105.267C126.479 100.837 129.708 97.206 133.795 97.206C137.815 97.206 141.11 100.837 141.11 105.267C141.11 109.697 137.815 113.328 133.795 113.328ZM89.8342 97.206C85.8138 97.206 82.5184 93.5749 82.5184 89.145C82.5184 84.6424 85.8138 81.0839 89.8342 81.0839C93.8546 81.0839 97.1499 84.6424 97.1499 89.145C97.1499 93.5749 93.8546 97.206 89.8342 97.206ZM133.795 97.206C129.708 97.206 126.479 93.5749 126.479 89.145C126.479 84.6424 129.708 81.0839 133.795 81.0839C137.815 81.0839 141.11 84.6424 141.11 89.145C141.11 93.5749 137.815 97.206 133.795 97.206ZM104.466 81.0839C100.445 81.0839 97.1499 77.4528 97.1499 72.9502C97.1499 68.5203 100.445 64.8892 104.466 64.8892C108.552 64.8892 111.781 68.5203 111.781 72.9502C111.781 77.4528 108.552 81.0839 104.466 81.0839ZM119.163 81.0839C115.077 81.0839 111.781 77.4528 111.781 72.9502C111.781 68.5203 115.077 64.8892 119.163 64.8892C123.183 64.8892 126.479 68.5203 126.479 72.9502C126.479 77.4528 123.183 81.0839 119.163 81.0839ZM133.795 81.0839C129.708 81.0839 126.479 77.4528 126.479 72.9502C126.479 68.5203 129.708 64.8892 133.795 64.8892C137.815 64.8892 141.11 68.5203 141.11 72.9502C141.11 77.4528 137.815 81.0839 133.795 81.0839ZM133.795 64.8892C129.708 64.8892 126.479 61.3307 126.479 56.8281C126.479 52.3982 129.708 48.7671 133.795 48.7671C137.815 48.7671 141.11 52.3982 141.11 56.8281C141.11 61.3307 137.815 64.8892 133.795 64.8892ZM89.8342 48.7671C85.8138 48.7671 82.5184 45.136 82.5184 40.706C82.5184 36.2761 85.8138 32.645 89.8342 32.645C93.8546 32.645 97.1499 36.2761 97.1499 40.706C97.1499 45.136 93.8546 48.7671 89.8342 48.7671ZM104.466 48.7671C100.445 48.7671 97.1499 45.136 97.1499 40.706C97.1499 36.2761 100.445 32.645 104.466 32.645C108.552 32.645 111.781 36.2761 111.781 40.706C111.781 45.136 108.552 48.7671 104.466 48.7671ZM119.163 48.7671C115.077 48.7671 111.781 45.136 111.781 40.706C111.781 36.2761 115.077 32.645 119.163 32.645C123.183 32.645 126.479 36.2761 126.479 40.706C126.479 45.136 123.183 48.7671 119.163 48.7671Z" fill="black" fill-opacity="0.4"/>
<path d="M157.807 113.328C153.786 113.328 150.491 109.697 150.491 105.267C150.491 100.837 153.786 97.206 157.807 97.206C161.827 97.206 165.122 100.837 165.122 105.267C165.122 109.697 161.827 113.328 157.807 113.328ZM172.438 113.328C168.418 113.328 165.122 109.697 165.122 105.267C165.122 100.837 168.418 97.206 172.438 97.206C176.524 97.206 179.754 100.837 179.754 105.267C179.754 109.697 176.524 113.328 172.438 113.328ZM187.136 113.328C183.049 113.328 179.754 109.697 179.754 105.267C179.754 100.837 183.049 97.206 187.136 97.206C191.156 97.206 194.451 100.837 194.451 105.267C194.451 109.697 191.156 113.328 187.136 113.328ZM201.767 97.206C197.681 97.206 194.451 93.5749 194.451 89.145C194.451 84.6424 197.681 81.0839 201.767 81.0839C205.787 81.0839 209.083 84.6424 209.083 89.145C209.083 93.5749 205.787 97.206 201.767 97.206ZM172.438 81.0839C168.418 81.0839 165.122 77.4528 165.122 72.9502C165.122 68.5203 168.418 64.8892 172.438 64.8892C176.524 64.8892 179.754 68.5203 179.754 72.9502C179.754 77.4528 176.524 81.0839 172.438 81.0839ZM187.136 81.0839C183.049 81.0839 179.754 77.4528 179.754 72.9502C179.754 68.5203 183.049 64.8892 187.136 64.8892C191.156 64.8892 194.451 68.5203 194.451 72.9502C194.451 77.4528 191.156 81.0839 187.136 81.0839ZM157.807 64.8892C153.786 64.8892 150.491 61.3307 150.491 56.8281C150.491 52.3982 153.786 48.7671 157.807 48.7671C161.827 48.7671 165.122 52.3982 165.122 56.8281C165.122 61.3307 161.827 64.8892 157.807 64.8892ZM172.438 48.7671C168.418 48.7671 165.122 45.136 165.122 40.706C165.122 36.2761 168.418 32.645 172.438 32.645C176.524 32.645 179.754 36.2761 179.754 40.706C179.754 45.136 176.524 48.7671 172.438 48.7671ZM187.136 48.7671C183.049 48.7671 179.754 45.136 179.754 40.706C179.754 36.2761 183.049 32.645 187.136 32.645C191.156 32.645 194.451 36.2761 194.451 40.706C194.451 45.136 191.156 48.7671 187.136 48.7671ZM201.767 48.7671C197.681 48.7671 194.451 45.136 194.451 40.706C194.451 36.2761 197.681 32.645 201.767 32.645C205.787 32.645 209.083 36.2761 209.083 40.706C209.083 45.136 205.787 48.7671 201.767 48.7671Z" fill="black" fill-opacity="0.4"/>
<path d="M255.108 113.328C251.022 113.328 247.726 109.697 247.726 105.267C247.726 100.837 251.022 97.206 255.108 97.206C259.128 97.206 262.424 100.837 262.424 105.267C262.424 109.697 259.128 113.328 255.108 113.328ZM269.739 113.328C265.653 113.328 262.424 109.697 262.424 105.267C262.424 100.837 265.653 97.206 269.739 97.206C273.76 97.206 277.055 100.837 277.055 105.267C277.055 109.697 273.76 113.328 269.739 113.328ZM240.411 97.206C236.39 97.206 233.095 93.5749 233.095 89.145C233.095 84.6424 236.39 81.0839 240.411 81.0839C244.497 81.0839 247.726 84.6424 247.726 89.145C247.726 93.5749 244.497 97.206 240.411 97.206ZM240.411 81.0839C236.39 81.0839 233.095 77.4528 233.095 72.9502C233.095 68.5203 236.39 64.8892 240.411 64.8892C244.497 64.8892 247.726 68.5203 247.726 72.9502C247.726 77.4528 244.497 81.0839 240.411 81.0839ZM240.411 64.8892C236.39 64.8892 233.095 61.3307 233.095 56.8281C233.095 52.3982 236.39 48.7671 240.411 48.7671C244.497 48.7671 247.726 52.3982 247.726 56.8281C247.726 61.3307 244.497 64.8892 240.411 64.8892ZM225.779 48.7671C221.759 48.7671 218.463 45.136 218.463 40.706C218.463 36.2761 221.759 32.645 225.779 32.645C229.799 32.645 233.095 36.2761 233.095 40.706C233.095 45.136 229.799 48.7671 225.779 48.7671ZM240.411 48.7671C236.39 48.7671 233.095 45.136 233.095 40.706C233.095 36.2761 236.39 32.645 240.411 32.645C244.497 32.645 247.726 36.2761 247.726 40.706C247.726 45.136 244.497 48.7671 240.411 48.7671ZM255.108 48.7671C251.022 48.7671 247.726 45.136 247.726 40.706C247.726 36.2761 251.022 32.645 255.108 32.645C259.128 32.645 262.424 36.2761 262.424 40.706C262.424 45.136 259.128 48.7671 255.108 48.7671ZM269.739 48.7671C265.653 48.7671 262.424 45.136 262.424 40.706C262.424 36.2761 265.653 32.645 269.739 32.645C273.76 32.645 277.055 36.2761 277.055 40.706C277.055 45.136 273.76 48.7671 269.739 48.7671ZM240.411 32.645C236.39 32.645 233.095 29.0139 233.095 24.5839C233.095 20.0813 236.39 16.5229 240.411 16.5229C244.497 16.5229 247.726 20.0813 247.726 24.5839C247.726 29.0139 244.497 32.645 240.411 32.645Z" fill="black" fill-opacity="0.4"/>
<path d="M323.08 113.328C318.994 113.328 315.699 109.697 315.699 105.267C315.699 100.837 318.994 97.206 323.08 97.206C327.101 97.206 330.396 100.837 330.396 105.267C330.396 109.697 327.101 113.328 323.08 113.328ZM337.712 113.328C333.626 113.328 330.396 109.697 330.396 105.267C330.396 100.837 333.626 97.206 337.712 97.206C341.732 97.206 345.028 100.837 345.028 105.267C345.028 109.697 341.732 113.328 337.712 113.328ZM308.383 97.206C304.363 97.206 301.067 93.5749 301.067 89.145C301.067 84.6424 304.363 81.0839 308.383 81.0839C312.469 81.0839 315.699 84.6424 315.699 89.145C315.699 93.5749 312.469 97.206 308.383 97.206ZM308.383 81.0839C304.363 81.0839 301.067 77.4528 301.067 72.9502C301.067 68.5203 304.363 64.8892 308.383 64.8892C312.469 64.8892 315.699 68.5203 315.699 72.9502C315.699 77.4528 312.469 81.0839 308.383 81.0839ZM308.383 64.8892C304.363 64.8892 301.067 61.3307 301.067 56.8281C301.067 52.3982 304.363 48.7671 308.383 48.7671C312.469 48.7671 315.699 52.3982 315.699 56.8281C315.699 61.3307 312.469 64.8892 308.383 64.8892ZM293.751 48.7671C289.731 48.7671 286.436 45.136 286.436 40.706C286.436 36.2761 289.731 32.645 293.751 32.645C297.772 32.645 301.067 36.2761 301.067 40.706C301.067 45.136 297.772 48.7671 293.751 48.7671ZM308.383 48.7671C304.363 48.7671 301.067 45.136 301.067 40.706C301.067 36.2761 304.363 32.645 308.383 32.645C312.469 32.645 315.699 36.2761 315.699 40.706C315.699 45.136 312.469 48.7671 308.383 48.7671ZM323.08 48.7671C318.994 48.7671 315.699 45.136 315.699 40.706C315.699 36.2761 318.994 32.645 323.08 32.645C327.101 32.645 330.396 36.2761 330.396 40.706C330.396 45.136 327.101 48.7671 323.08 48.7671ZM337.712 48.7671C333.626 48.7671 330.396 45.136 330.396 40.706C330.396 36.2761 333.626 32.645 337.712 32.645C341.732 32.645 345.028 36.2761 345.028 40.706C345.028 45.136 341.732 48.7671 337.712 48.7671ZM308.383 32.645C304.363 32.645 301.067 29.0139 301.067 24.5839C301.067 20.0813 304.363 16.5229 308.383 16.5229C312.469 16.5229 315.699 20.0813 315.699 24.5839C315.699 29.0139 312.469 32.645 308.383 32.645Z" fill="black" fill-opacity="0.4"/>
<path d="M376.355 113.328C372.335 113.328 369.04 109.697 369.04 105.267C369.04 100.837 372.335 97.206 376.355 97.206C380.442 97.206 383.671 100.837 383.671 105.267C383.671 109.697 380.442 113.328 376.355 113.328ZM391.053 113.328C386.966 113.328 383.671 109.697 383.671 105.267C383.671 100.837 386.966 97.206 391.053 97.206C395.073 97.206 398.369 100.837 398.369 105.267C398.369 109.697 395.073 113.328 391.053 113.328ZM361.724 97.206C357.704 97.206 354.408 93.5749 354.408 89.145C354.408 84.6424 357.704 81.0839 361.724 81.0839C365.744 81.0839 369.04 84.6424 369.04 89.145C369.04 93.5749 365.744 97.206 361.724 97.206ZM405.684 97.206C401.598 97.206 398.369 93.5749 398.369 89.145C398.369 84.6424 401.598 81.0839 405.684 81.0839C409.705 81.0839 413 84.6424 413 89.145C413 93.5749 409.705 97.206 405.684 97.206ZM361.724 81.0839C357.704 81.0839 354.408 77.4528 354.408 72.9502C354.408 68.5203 357.704 64.8892 361.724 64.8892C365.744 64.8892 369.04 68.5203 369.04 72.9502C369.04 77.4528 365.744 81.0839 361.724 81.0839ZM405.684 81.0839C401.598 81.0839 398.369 77.4528 398.369 72.9502C398.369 68.5203 401.598 64.8892 405.684 64.8892C409.705 64.8892 413 68.5203 413 72.9502C413 77.4528 409.705 81.0839 405.684 81.0839ZM361.724 64.8892C357.704 64.8892 354.408 61.3307 354.408 56.8281C354.408 52.3982 357.704 48.7671 361.724 48.7671C365.744 48.7671 369.04 52.3982 369.04 56.8281C369.04 61.3307 365.744 64.8892 361.724 64.8892ZM405.684 64.8892C401.598 64.8892 398.369 61.3307 398.369 56.8281C398.369 52.3982 401.598 48.7671 405.684 48.7671C409.705 48.7671 413 52.3982 413 56.8281C413 61.3307 409.705 64.8892 405.684 64.8892ZM376.355 48.7671C372.335 48.7671 369.04 45.136 369.04 40.706C369.04 36.2761 372.335 32.645 376.355 32.645C380.442 32.645 383.671 36.2761 383.671 40.706C383.671 45.136 380.442 48.7671 376.355 48.7671ZM391.053 48.7671C386.966 48.7671 383.671 45.136 383.671 40.706C383.671 36.2761 386.966 32.645 391.053 32.645C395.073 32.645 398.369 36.2761 398.369 40.706C398.369 45.136 395.073 48.7671 391.053 48.7671Z" fill="black" fill-opacity="0.4"/>
<path d="M7.24224 234.328C3.26227 234.328 0 231.083 0 227.123C0 223.164 3.26227 219.918 7.24224 219.918C11.2222 219.918 14.4845 223.164 14.4845 227.123C14.4845 231.083 11.2222 234.328 7.24224 234.328ZM21.7267 234.328C17.7468 234.328 14.4845 231.083 14.4845 227.123C14.4845 223.164 17.7468 219.918 21.7267 219.918C25.7719 219.918 28.969 223.164 28.969 227.123C28.969 231.083 25.7719 234.328 21.7267 234.328ZM36.2765 234.328C32.2312 234.328 28.969 231.083 28.969 227.123C28.969 223.164 32.2312 219.918 36.2765 219.918C40.2564 219.918 43.5187 223.164 43.5187 227.123C43.5187 231.083 40.2564 234.328 36.2765 234.328ZM50.7609 234.328C46.7157 234.328 43.5187 231.083 43.5187 227.123C43.5187 223.164 46.7157 219.918 50.7609 219.918C54.7409 219.918 58.0032 223.164 58.0032 227.123C58.0032 231.083 54.7409 234.328 50.7609 234.328ZM65.2454 234.328C61.2654 234.328 58.0032 231.083 58.0032 227.123C58.0032 223.164 61.2654 219.918 65.2454 219.918C69.2254 219.918 72.4877 223.164 72.4877 227.123C72.4877 231.083 69.2254 234.328 65.2454 234.328ZM7.24224 219.918C3.26227 219.918 0 216.673 0 212.713C0 208.689 3.26227 205.508 7.24224 205.508C11.2222 205.508 14.4845 208.689 14.4845 212.713C14.4845 216.673 11.2222 219.918 7.24224 219.918ZM7.24224 205.508C3.26227 205.508 0 202.263 0 198.238C0 194.279 3.26227 191.033 7.24224 191.033C11.2222 191.033 14.4845 194.279 14.4845 198.238C14.4845 202.263 11.2222 205.508 7.24224 205.508ZM7.24224 191.033C3.26227 191.033 0 187.853 0 183.828C0 179.869 3.26227 176.623 7.24224 176.623C11.2222 176.623 14.4845 179.869 14.4845 183.828C14.4845 187.853 11.2222 191.033 7.24224 191.033ZM21.7267 191.033C17.7468 191.033 14.4845 187.853 14.4845 183.828C14.4845 179.869 17.7468 176.623 21.7267 176.623C25.7719 176.623 28.969 179.869 28.969 183.828C28.969 187.853 25.7719 191.033 21.7267 191.033ZM36.2765 191.033C32.2312 191.033 28.969 187.853 28.969 183.828C28.969 179.869 32.2312 176.623 36.2765 176.623C40.2564 176.623 43.5187 179.869 43.5187 183.828C43.5187 187.853 40.2564 191.033 36.2765 191.033ZM50.7609 191.033C46.7157 191.033 43.5187 187.853 43.5187 183.828C43.5187 179.869 46.7157 176.623 50.7609 176.623C54.7409 176.623 58.0032 179.869 58.0032 183.828C58.0032 187.853 54.7409 191.033 50.7609 191.033ZM7.24224 176.623C3.26227 176.623 0 173.378 0 169.418C0 165.459 3.26227 162.213 7.24224 162.213C11.2222 162.213 14.4845 165.459 14.4845 169.418C14.4845 173.378 11.2222 176.623 7.24224 176.623ZM7.24224 162.213C3.26227 162.213 0 158.968 0 155.008C0 150.984 3.26227 147.803 7.24224 147.803C11.2222 147.803 14.4845 150.984 14.4845 155.008C14.4845 158.968 11.2222 162.213 7.24224 162.213ZM7.24224 147.803C3.26227 147.803 0 144.558 0 140.598C0 136.574 3.26227 133.328 7.24224 133.328C11.2222 133.328 14.4845 136.574 14.4845 140.598C14.4845 144.558 11.2222 147.803 7.24224 147.803ZM21.7267 147.803C17.7468 147.803 14.4845 144.558 14.4845 140.598C14.4845 136.574 17.7468 133.328 21.7267 133.328C25.7719 133.328 28.969 136.574 28.969 140.598C28.969 144.558 25.7719 147.803 21.7267 147.803ZM36.2765 147.803C32.2312 147.803 28.969 144.558 28.969 140.598C28.969 136.574 32.2312 133.328 36.2765 133.328C40.2564 133.328 43.5187 136.574 43.5187 140.598C43.5187 144.558 40.2564 147.803 36.2765 147.803ZM50.7609 147.803C46.7157 147.803 43.5187 144.558 43.5187 140.598C43.5187 136.574 46.7157 133.328 50.7609 133.328C54.7409 133.328 58.0032 136.574 58.0032 140.598C58.0032 144.558 54.7409 147.803 50.7609 147.803ZM65.2454 147.803C61.2654 147.803 58.0032 144.558 58.0032 140.598C58.0032 136.574 61.2654 133.328 65.2454 133.328C69.2254 133.328 72.4877 136.574 72.4877 140.598C72.4877 144.558 69.2254 147.803 65.2454 147.803Z" fill="black" fill-opacity="0.4"/>
<path d="M91.5414 234.328C87.5614 234.328 84.2991 231.083 84.2991 227.123C84.2991 223.164 87.5614 219.918 91.5414 219.918C95.5213 219.918 98.7836 223.164 98.7836 227.123C98.7836 231.083 95.5213 234.328 91.5414 234.328ZM106.026 234.328C102.046 234.328 98.7836 231.083 98.7836 227.123C98.7836 223.164 102.046 219.918 106.026 219.918C110.071 219.918 113.268 223.164 113.268 227.123C113.268 231.083 110.071 234.328 106.026 234.328ZM91.5414 219.918C87.5614 219.918 84.2991 216.673 84.2991 212.713C84.2991 208.689 87.5614 205.508 91.5414 205.508C95.5213 205.508 98.7836 208.689 98.7836 212.713C98.7836 216.673 95.5213 219.918 91.5414 219.918ZM120.576 219.918C116.53 219.918 113.268 216.673 113.268 212.713C113.268 208.689 116.53 205.508 120.576 205.508C124.556 205.508 127.818 208.689 127.818 212.713C127.818 216.673 124.556 219.918 120.576 219.918ZM91.5414 205.508C87.5614 205.508 84.2991 202.263 84.2991 198.238C84.2991 194.279 87.5614 191.033 91.5414 191.033C95.5213 191.033 98.7836 194.279 98.7836 198.238C98.7836 202.263 95.5213 205.508 91.5414 205.508ZM120.576 205.508C116.53 205.508 113.268 202.263 113.268 198.238C113.268 194.279 116.53 191.033 120.576 191.033C124.556 191.033 127.818 194.279 127.818 198.238C127.818 202.263 124.556 205.508 120.576 205.508ZM91.5414 191.033C87.5614 191.033 84.2991 187.853 84.2991 183.828C84.2991 179.869 87.5614 176.623 91.5414 176.623C95.5213 176.623 98.7836 179.869 98.7836 183.828C98.7836 187.853 95.5213 191.033 91.5414 191.033ZM135.06 191.033C131.015 191.033 127.818 187.853 127.818 183.828C127.818 179.869 131.015 176.623 135.06 176.623C139.04 176.623 142.302 179.869 142.302 183.828C142.302 187.853 139.04 191.033 135.06 191.033ZM91.5414 176.623C87.5614 176.623 84.2991 173.378 84.2991 169.418C84.2991 165.459 87.5614 162.213 91.5414 162.213C95.5213 162.213 98.7836 165.459 98.7836 169.418C98.7836 173.378 95.5213 176.623 91.5414 176.623ZM135.06 176.623C131.015 176.623 127.818 173.378 127.818 169.418C127.818 165.459 131.015 162.213 135.06 162.213C139.04 162.213 142.302 165.459 142.302 169.418C142.302 173.378 139.04 176.623 135.06 176.623Z" fill="black" fill-opacity="0.4"/>
<path d="M175.925 234.328C171.945 234.328 168.683 231.083 168.683 227.123C168.683 223.164 171.945 219.918 175.925 219.918C179.97 219.918 183.167 223.164 183.167 227.123C183.167 231.083 179.97 234.328 175.925 234.328ZM190.475 234.328C186.43 234.328 183.167 231.083 183.167 227.123C183.167 223.164 186.43 219.918 190.475 219.918C194.455 219.918 197.717 223.164 197.717 227.123C197.717 231.083 194.455 234.328 190.475 234.328ZM204.959 234.328C200.914 234.328 197.717 231.083 197.717 227.123C197.717 223.164 200.914 219.918 204.959 219.918C208.939 219.918 212.202 223.164 212.202 227.123C212.202 231.083 208.939 234.328 204.959 234.328ZM161.441 219.918C157.461 219.918 154.198 216.673 154.198 212.713C154.198 208.689 157.461 205.508 161.441 205.508C165.421 205.508 168.683 208.689 168.683 212.713C168.683 216.673 165.421 219.918 161.441 219.918ZM161.441 205.508C157.461 205.508 154.198 202.263 154.198 198.238C154.198 194.279 157.461 191.033 161.441 191.033C165.421 191.033 168.683 194.279 168.683 198.238C168.683 202.263 165.421 205.508 161.441 205.508ZM175.925 205.508C171.945 205.508 168.683 202.263 168.683 198.238C168.683 194.279 171.945 191.033 175.925 191.033C179.97 191.033 183.167 194.279 183.167 198.238C183.167 202.263 179.97 205.508 175.925 205.508ZM190.475 205.508C186.43 205.508 183.167 202.263 183.167 198.238C183.167 194.279 186.43 191.033 190.475 191.033C194.455 191.033 197.717 194.279 197.717 198.238C197.717 202.263 194.455 205.508 190.475 205.508ZM204.959 205.508C200.914 205.508 197.717 202.263 197.717 198.238C197.717 194.279 200.914 191.033 204.959 191.033C208.939 191.033 212.202 194.279 212.202 198.238C212.202 202.263 208.939 205.508 204.959 205.508ZM161.441 191.033C157.461 191.033 154.198 187.853 154.198 183.828C154.198 179.869 157.461 176.623 161.441 176.623C165.421 176.623 168.683 179.869 168.683 183.828C168.683 187.853 165.421 191.033 161.441 191.033ZM204.959 191.033C200.914 191.033 197.717 187.853 197.717 183.828C197.717 179.869 200.914 176.623 204.959 176.623C208.939 176.623 212.202 179.869 212.202 183.828C212.202 187.853 208.939 191.033 204.959 191.033ZM175.925 176.623C171.945 176.623 168.683 173.378 168.683 169.418C168.683 165.459 171.945 162.213 175.925 162.213C179.97 162.213 183.167 165.459 183.167 169.418C183.167 173.378 179.97 176.623 175.925 176.623ZM190.475 176.623C186.43 176.623 183.167 173.378 183.167 169.418C183.167 165.459 186.43 162.213 190.475 162.213C194.455 162.213 197.717 165.459 197.717 169.418C197.717 173.378 194.455 176.623 190.475 176.623Z" fill="black" fill-opacity="0.4"/>
<path d="M231.34 234.328C227.36 234.328 224.098 231.083 224.098 227.123C224.098 223.164 227.36 219.918 231.34 219.918C235.32 219.918 238.582 223.164 238.582 227.123C238.582 231.083 235.32 234.328 231.34 234.328ZM274.859 234.328C270.813 234.328 267.616 231.083 267.616 227.123C267.616 223.164 270.813 219.918 274.859 219.918C278.839 219.918 282.101 223.164 282.101 227.123C282.101 231.083 278.839 234.328 274.859 234.328ZM231.34 219.918C227.36 219.918 224.098 216.673 224.098 212.713C224.098 208.689 227.36 205.508 231.34 205.508C235.32 205.508 238.582 208.689 238.582 212.713C238.582 216.673 235.32 219.918 231.34 219.918ZM274.859 219.918C270.813 219.918 267.616 216.673 267.616 212.713C267.616 208.689 270.813 205.508 274.859 205.508C278.839 205.508 282.101 208.689 282.101 212.713C282.101 216.673 278.839 219.918 274.859 219.918ZM231.34 205.508C227.36 205.508 224.098 202.263 224.098 198.238C224.098 194.279 227.36 191.033 231.34 191.033C235.32 191.033 238.582 194.279 238.582 198.238C238.582 202.263 235.32 205.508 231.34 205.508ZM274.859 205.508C270.813 205.508 267.616 202.263 267.616 198.238C267.616 194.279 270.813 191.033 274.859 191.033C278.839 191.033 282.101 194.279 282.101 198.238C282.101 202.263 278.839 205.508 274.859 205.508ZM231.34 191.033C227.36 191.033 224.098 187.853 224.098 183.828C224.098 179.869 227.36 176.623 231.34 176.623C235.32 176.623 238.582 179.869 238.582 183.828C238.582 187.853 235.32 191.033 231.34 191.033ZM245.824 191.033C241.844 191.033 238.582 187.853 238.582 183.828C238.582 179.869 241.844 176.623 245.824 176.623C249.87 176.623 253.067 179.869 253.067 183.828C253.067 187.853 249.87 191.033 245.824 191.033ZM274.859 191.033C270.813 191.033 267.616 187.853 267.616 183.828C267.616 179.869 270.813 176.623 274.859 176.623C278.839 176.623 282.101 179.869 282.101 183.828C282.101 187.853 278.839 191.033 274.859 191.033ZM231.34 176.623C227.36 176.623 224.098 173.378 224.098 169.418C224.098 165.459 227.36 162.213 231.34 162.213C235.32 162.213 238.582 165.459 238.582 169.418C238.582 173.378 235.32 176.623 231.34 176.623ZM260.374 176.623C256.329 176.623 253.067 173.378 253.067 169.418C253.067 165.459 256.329 162.213 260.374 162.213C264.354 162.213 267.616 165.459 267.616 169.418C267.616 173.378 264.354 176.623 260.374 176.623Z" fill="black" fill-opacity="0.4"/>
<path d="M330.273 234.328C326.228 234.328 322.966 231.083 322.966 227.123C322.966 223.164 326.228 219.918 330.273 219.918C334.253 219.918 337.516 223.164 337.516 227.123C337.516 231.083 334.253 234.328 330.273 234.328ZM344.758 234.328C340.713 234.328 337.516 231.083 337.516 227.123C337.516 223.164 340.713 219.918 344.758 219.918C348.738 219.918 352 223.164 352 227.123C352 231.083 348.738 234.328 344.758 234.328ZM315.724 219.918C311.744 219.918 308.481 216.673 308.481 212.713C308.481 208.689 311.744 205.508 315.724 205.508C319.769 205.508 322.966 208.689 322.966 212.713C322.966 216.673 319.769 219.918 315.724 219.918ZM315.724 205.508C311.744 205.508 308.481 202.263 308.481 198.238C308.481 194.279 311.744 191.033 315.724 191.033C319.769 191.033 322.966 194.279 322.966 198.238C322.966 202.263 319.769 205.508 315.724 205.508ZM315.724 191.033C311.744 191.033 308.481 187.853 308.481 183.828C308.481 179.869 311.744 176.623 315.724 176.623C319.769 176.623 322.966 179.869 322.966 183.828C322.966 187.853 319.769 191.033 315.724 191.033ZM301.239 176.623C297.259 176.623 293.997 173.378 293.997 169.418C293.997 165.459 297.259 162.213 301.239 162.213C305.219 162.213 308.481 165.459 308.481 169.418C308.481 173.378 305.219 176.623 301.239 176.623ZM315.724 176.623C311.744 176.623 308.481 173.378 308.481 169.418C308.481 165.459 311.744 162.213 315.724 162.213C319.769 162.213 322.966 165.459 322.966 169.418C322.966 173.378 319.769 176.623 315.724 176.623ZM330.273 176.623C326.228 176.623 322.966 173.378 322.966 169.418C322.966 165.459 326.228 162.213 330.273 162.213C334.253 162.213 337.516 165.459 337.516 169.418C337.516 173.378 334.253 176.623 330.273 176.623ZM344.758 176.623C340.713 176.623 337.516 173.378 337.516 169.418C337.516 165.459 340.713 162.213 344.758 162.213C348.738 162.213 352 165.459 352 169.418C352 173.378 348.738 176.623 344.758 176.623ZM315.724 162.213C311.744 162.213 308.481 158.968 308.481 155.008C308.481 150.984 311.744 147.803 315.724 147.803C319.769 147.803 322.966 150.984 322.966 155.008C322.966 158.968 319.769 162.213 315.724 162.213Z" fill="black" fill-opacity="0.4"/>
</svg>
