<svg width="28" height="28" viewBox="0 0 28 28" fill="none" xmlns="http://www.w3.org/2000/svg">
<mask id="path-1-inside-1_695_806" fill="white">
<path d="M25 16.8276C25 17.1038 25.2239 17.3276 25.5 17.3276H27C27.2761 17.3276 27.5 17.1038 27.5 16.8276V15.3276C27.5 15.0515 27.2761 14.8276 27 14.8276H25.5C25.2239 14.8276 25 15.0515 25 15.3276V16.8276Z"/>
<path d="M25 12.8276C25 13.1038 25.2239 13.3276 25.5 13.3276H27C27.2761 13.3276 27.5 13.1038 27.5 12.8276V11.3276C27.5 11.0515 27.2761 10.8276 27 10.8276H25.5C25.2239 10.8276 25 11.0515 25 11.3276V12.8276Z"/>
<path d="M24 9.82764C24 10.1038 24.2239 10.3276 24.5 10.3276H26C26.2761 10.3276 26.5 10.1038 26.5 9.82764V8.32764C26.5 8.05149 26.2761 7.82764 26 7.82764H24.5C24.2239 7.82764 24 8.05149 24 8.32764V9.82764Z"/>
<path d="M23 7.82764C23 8.10378 23.2239 8.32764 23.5 8.32764H25C25.2761 8.32764 25.5 8.10378 25.5 7.82764V6.32764C25.5 6.05149 25.2761 5.82764 25 5.82764H23.5C23.2239 5.82764 23 6.05149 23 6.32764V7.82764Z"/>
<path d="M21 5.82764C21 6.10378 21.2239 6.32764 21.5 6.32764H23C23.2761 6.32764 23.5 6.10378 23.5 5.82764V4.32764C23.5 4.05149 23.2761 3.82764 23 3.82764H21.5C21.2239 3.82764 21 4.05149 21 4.32764V5.82764Z"/>
<path d="M19 3.82764C19 4.10378 19.2239 4.32764 19.5 4.32764H21C21.2761 4.32764 21.5 4.10378 21.5 3.82764V2.32764C21.5 2.05149 21.2761 1.82764 21 1.82764H19.5C19.2239 1.82764 19 2.05149 19 2.32764V3.82764Z"/>
<path d="M17 2.82764C17 3.10378 17.2239 3.32764 17.5 3.32764H19C19.2761 3.32764 19.5 3.10378 19.5 2.82764V1.32764C19.5 1.05149 19.2761 0.827637 19 0.827637H17.5C17.2239 0.827637 17 1.05149 17 1.32764V2.82764Z"/>
<path d="M14.5 2.32764C14.5 2.60378 14.7239 2.82764 15 2.82764H16.5C16.7761 2.82764 17 2.60378 17 2.32764V0.827637C17 0.551494 16.7761 0.327637 16.5 0.327637H15C14.7239 0.327637 14.5 0.551494 14.5 0.827637V2.32764Z"/>
<path d="M12 2.32764C12 2.60378 12.2239 2.82764 12.5 2.82764H14C14.2761 2.82764 14.5 2.60378 14.5 2.32764V0.827637C14.5 0.551494 14.2761 0.327637 14 0.327637H12.5C12.2239 0.327637 12 0.551494 12 0.827637V2.32764Z"/>
<path d="M9 2.82764C9 3.10378 9.22386 3.32764 9.5 3.32764H11C11.2761 3.32764 11.5 3.10378 11.5 2.82764V1.32764C11.5 1.05149 11.2761 0.827637 11 0.827637H9.5C9.22386 0.827637 9 1.05149 9 1.32764V2.82764Z"/>
<path d="M7 3.82764C7 4.10378 7.22386 4.32764 7.5 4.32764H9C9.27614 4.32764 9.5 4.10378 9.5 3.82764V2.32764C9.5 2.05149 9.27614 1.82764 9 1.82764H7.5C7.22386 1.82764 7 2.05149 7 2.32764V3.82764Z"/>
<path d="M5 4.82764C5 5.10378 5.22386 5.32764 5.5 5.32764H7C7.27614 5.32764 7.5 5.10378 7.5 4.82764V3.32764C7.5 3.05149 7.27614 2.82764 7 2.82764H5.5C5.22386 2.82764 5 3.05149 5 3.32764V4.82764Z"/>
<path d="M3 6.82764C3 7.10378 3.22386 7.32764 3.5 7.32764H5C5.27614 7.32764 5.5 7.10378 5.5 6.82764V5.32764C5.5 5.05149 5.27614 4.82764 5 4.82764H3.5C3.22386 4.82764 3 5.05149 3 5.32764V6.82764Z"/>
<path d="M1 8.82764C1 9.10378 1.22386 9.32764 1.5 9.32764H3C3.27614 9.32764 3.5 9.10378 3.5 8.82764V7.32764C3.5 7.05149 3.27614 6.82764 3 6.82764H1.5C1.22386 6.82764 1 7.05149 1 7.32764V8.82764Z"/>
<path d="M0 10.8276C0 11.1038 0.223858 11.3276 0.5 11.3276H2C2.27614 11.3276 2.5 11.1038 2.5 10.8276V9.32764C2.5 9.05149 2.27614 8.82764 2 8.82764H0.5C0.223858 8.82764 0 9.05149 0 9.32764V10.8276Z"/>
<path d="M0 13.3276C0 13.6038 0.223858 13.8276 0.5 13.8276H2C2.27614 13.8276 2.5 13.6038 2.5 13.3276V11.8276C2.5 11.5515 2.27614 11.3276 2 11.3276H0.5C0.223858 11.3276 0 11.5515 0 11.8276V13.3276Z"/>
<path d="M0 15.8276C0 16.1038 0.223858 16.3276 0.5 16.3276H2C2.27614 16.3276 2.5 16.1038 2.5 15.8276V14.3276C2.5 14.0515 2.27614 13.8276 2 13.8276H0.5C0.223858 13.8276 0 14.0515 0 14.3276V15.8276Z"/>
<path d="M0 18.3276C0 18.6038 0.223858 18.8276 0.5 18.8276H2C2.27614 18.8276 2.5 18.6038 2.5 18.3276V16.8276C2.5 16.5515 2.27614 16.3276 2 16.3276H0.5C0.223858 16.3276 0 16.5515 0 16.8276V18.3276Z"/>
<path d="M1 20.8276C1 21.1038 1.22386 21.3276 1.5 21.3276H3C3.27614 21.3276 3.5 21.1038 3.5 20.8276V19.3276C3.5 19.0515 3.27614 18.8276 3 18.8276H1.5C1.22386 18.8276 1 19.0515 1 19.3276V20.8276Z"/>
<path d="M2 22.8276C2 23.1038 2.22386 23.3276 2.5 23.3276H4C4.27614 23.3276 4.5 23.1038 4.5 22.8276V21.3276C4.5 21.0515 4.27614 20.8276 4 20.8276H2.5C2.22386 20.8276 2 21.0515 2 21.3276V22.8276Z"/>
<path d="M4 24.8276C4 25.1038 4.22386 25.3276 4.5 25.3276H6C6.27614 25.3276 6.5 25.1038 6.5 24.8276V23.3276C6.5 23.0515 6.27614 22.8276 6 22.8276H4.5C4.22386 22.8276 4 23.0515 4 23.3276V24.8276Z"/>
<path d="M6 25.8276C6 26.1038 6.22386 26.3276 6.5 26.3276H8C8.27614 26.3276 8.5 26.1038 8.5 25.8276V24.3276C8.5 24.0515 8.27614 23.8276 8 23.8276H6.5C6.22386 23.8276 6 24.0515 6 24.3276V25.8276Z"/>
<path d="M8 26.8276C8 27.1038 8.22386 27.3276 8.5 27.3276H10C10.2761 27.3276 10.5 27.1038 10.5 26.8276V25.3276C10.5 25.0515 10.2761 24.8276 10 24.8276H8.5C8.22386 24.8276 8 25.0515 8 25.3276V26.8276Z"/>
<path d="M13 26.8276C13 27.1038 13.2239 27.3276 13.5 27.3276H15C15.2761 27.3276 15.5 27.1038 15.5 26.8276V25.3276C15.5 25.0515 15.2761 24.8276 15 24.8276H13.5C13.2239 24.8276 13 25.0515 13 25.3276V26.8276Z"/>
<path d="M10 26.8276C10 27.1038 10.2239 27.3276 10.5 27.3276H12C12.2761 27.3276 12.5 27.1038 12.5 26.8276V25.3276C12.5 25.0515 12.2761 24.8276 12 24.8276H10.5C10.2239 24.8276 10 25.0515 10 25.3276V26.8276Z"/>
<path d="M23 18.8276C23 19.1038 23.2239 19.3276 23.5 19.3276H25C25.2761 19.3276 25.5 19.1038 25.5 18.8276V17.3276C25.5 17.0515 25.2761 16.8276 25 16.8276H23.5C23.2239 16.8276 23 17.0515 23 17.3276V18.8276Z"/>
<path d="M21 20.8276C21 21.1038 21.2239 21.3276 21.5 21.3276H23C23.2761 21.3276 23.5 21.1038 23.5 20.8276V19.3276C23.5 19.0515 23.2761 18.8276 23 18.8276H21.5C21.2239 18.8276 21 19.0515 21 19.3276V20.8276Z"/>
<path d="M19 22.8276C19 23.1038 19.2239 23.3276 19.5 23.3276H21C21.2761 23.3276 21.5 23.1038 21.5 22.8276V21.3276C21.5 21.0515 21.2761 20.8276 21 20.8276H19.5C19.2239 20.8276 19 21.0515 19 21.3276V22.8276Z"/>
<path d="M17 24.8276C17 25.1038 17.2239 25.3276 17.5 25.3276H19C19.2761 25.3276 19.5 25.1038 19.5 24.8276V23.3276C19.5 23.0515 19.2761 22.8276 19 22.8276H17.5C17.2239 22.8276 17 23.0515 17 23.3276V24.8276Z"/>
<path d="M15 26.8276C15 27.1038 15.2239 27.3276 15.5 27.3276H17C17.2761 27.3276 17.5 27.1038 17.5 26.8276V25.3276C17.5 25.0515 17.2761 24.8276 17 24.8276H15.5C15.2239 24.8276 15 25.0515 15 25.3276V26.8276Z"/>
<path d="M23 14.8276C23 15.1038 23.2239 15.3276 23.5 15.3276H25C25.2761 15.3276 25.5 15.1038 25.5 14.8276V13.3276C25.5 13.0515 25.2761 12.8276 25 12.8276H23.5C23.2239 12.8276 23 13.0515 23 13.3276V14.8276Z"/>
<path d="M21 14.8276C21 15.1038 21.2239 15.3276 21.5 15.3276H23C23.2761 15.3276 23.5 15.1038 23.5 14.8276V13.3276C23.5 13.0515 23.2761 12.8276 23 12.8276H21.5C21.2239 12.8276 21 13.0515 21 13.3276V14.8276Z"/>
<path d="M18 14.8276C18 15.1038 18.2239 15.3276 18.5 15.3276H20C20.2761 15.3276 20.5 15.1038 20.5 14.8276V13.3276C20.5 13.0515 20.2761 12.8276 20 12.8276H18.5C18.2239 12.8276 18 13.0515 18 13.3276V14.8276Z"/>
<path d="M16 16.8276C16 17.1038 16.2239 17.3276 16.5 17.3276H18C18.2761 17.3276 18.5 17.1038 18.5 16.8276V15.3276C18.5 15.0515 18.2761 14.8276 18 14.8276H16.5C16.2239 14.8276 16 15.0515 16 15.3276V16.8276Z"/>
<path d="M14 18.8276C14 19.1038 14.2239 19.3276 14.5 19.3276H16C16.2761 19.3276 16.5 19.1038 16.5 18.8276V17.3276C16.5 17.0515 16.2761 16.8276 16 16.8276H14.5C14.2239 16.8276 14 17.0515 14 17.3276V18.8276Z"/>
<path d="M13 21.8276C13 22.1038 13.2239 22.3276 13.5 22.3276H15C15.2761 22.3276 15.5 22.1038 15.5 21.8276V20.3276C15.5 20.0515 15.2761 19.8276 15 19.8276H13.5C13.2239 19.8276 13 20.0515 13 20.3276V21.8276Z"/>
<path d="M13 24.8276C13 25.1038 13.2239 25.3276 13.5 25.3276H15C15.2761 25.3276 15.5 25.1038 15.5 24.8276V23.3276C15.5 23.0515 15.2761 22.8276 15 22.8276H13.5C13.2239 22.8276 13 23.0515 13 23.3276V24.8276Z"/>
</mask>
<path d="M25 16.8276C25 17.1038 25.2239 17.3276 25.5 17.3276H27C27.2761 17.3276 27.5 17.1038 27.5 16.8276V15.3276C27.5 15.0515 27.2761 14.8276 27 14.8276H25.5C25.2239 14.8276 25 15.0515 25 15.3276V16.8276Z" fill="black"/>
<path d="M25 12.8276C25 13.1038 25.2239 13.3276 25.5 13.3276H27C27.2761 13.3276 27.5 13.1038 27.5 12.8276V11.3276C27.5 11.0515 27.2761 10.8276 27 10.8276H25.5C25.2239 10.8276 25 11.0515 25 11.3276V12.8276Z" fill="black"/>
<path d="M24 9.82764C24 10.1038 24.2239 10.3276 24.5 10.3276H26C26.2761 10.3276 26.5 10.1038 26.5 9.82764V8.32764C26.5 8.05149 26.2761 7.82764 26 7.82764H24.5C24.2239 7.82764 24 8.05149 24 8.32764V9.82764Z" fill="black"/>
<path d="M23 7.82764C23 8.10378 23.2239 8.32764 23.5 8.32764H25C25.2761 8.32764 25.5 8.10378 25.5 7.82764V6.32764C25.5 6.05149 25.2761 5.82764 25 5.82764H23.5C23.2239 5.82764 23 6.05149 23 6.32764V7.82764Z" fill="black"/>
<path d="M21 5.82764C21 6.10378 21.2239 6.32764 21.5 6.32764H23C23.2761 6.32764 23.5 6.10378 23.5 5.82764V4.32764C23.5 4.05149 23.2761 3.82764 23 3.82764H21.5C21.2239 3.82764 21 4.05149 21 4.32764V5.82764Z" fill="black"/>
<path d="M19 3.82764C19 4.10378 19.2239 4.32764 19.5 4.32764H21C21.2761 4.32764 21.5 4.10378 21.5 3.82764V2.32764C21.5 2.05149 21.2761 1.82764 21 1.82764H19.5C19.2239 1.82764 19 2.05149 19 2.32764V3.82764Z" fill="black"/>
<path d="M17 2.82764C17 3.10378 17.2239 3.32764 17.5 3.32764H19C19.2761 3.32764 19.5 3.10378 19.5 2.82764V1.32764C19.5 1.05149 19.2761 0.827637 19 0.827637H17.5C17.2239 0.827637 17 1.05149 17 1.32764V2.82764Z" fill="black"/>
<path d="M14.5 2.32764C14.5 2.60378 14.7239 2.82764 15 2.82764H16.5C16.7761 2.82764 17 2.60378 17 2.32764V0.827637C17 0.551494 16.7761 0.327637 16.5 0.327637H15C14.7239 0.327637 14.5 0.551494 14.5 0.827637V2.32764Z" fill="black"/>
<path d="M12 2.32764C12 2.60378 12.2239 2.82764 12.5 2.82764H14C14.2761 2.82764 14.5 2.60378 14.5 2.32764V0.827637C14.5 0.551494 14.2761 0.327637 14 0.327637H12.5C12.2239 0.327637 12 0.551494 12 0.827637V2.32764Z" fill="black"/>
<path d="M9 2.82764C9 3.10378 9.22386 3.32764 9.5 3.32764H11C11.2761 3.32764 11.5 3.10378 11.5 2.82764V1.32764C11.5 1.05149 11.2761 0.827637 11 0.827637H9.5C9.22386 0.827637 9 1.05149 9 1.32764V2.82764Z" fill="black"/>
<path d="M7 3.82764C7 4.10378 7.22386 4.32764 7.5 4.32764H9C9.27614 4.32764 9.5 4.10378 9.5 3.82764V2.32764C9.5 2.05149 9.27614 1.82764 9 1.82764H7.5C7.22386 1.82764 7 2.05149 7 2.32764V3.82764Z" fill="black"/>
<path d="M5 4.82764C5 5.10378 5.22386 5.32764 5.5 5.32764H7C7.27614 5.32764 7.5 5.10378 7.5 4.82764V3.32764C7.5 3.05149 7.27614 2.82764 7 2.82764H5.5C5.22386 2.82764 5 3.05149 5 3.32764V4.82764Z" fill="black"/>
<path d="M3 6.82764C3 7.10378 3.22386 7.32764 3.5 7.32764H5C5.27614 7.32764 5.5 7.10378 5.5 6.82764V5.32764C5.5 5.05149 5.27614 4.82764 5 4.82764H3.5C3.22386 4.82764 3 5.05149 3 5.32764V6.82764Z" fill="black"/>
<path d="M1 8.82764C1 9.10378 1.22386 9.32764 1.5 9.32764H3C3.27614 9.32764 3.5 9.10378 3.5 8.82764V7.32764C3.5 7.05149 3.27614 6.82764 3 6.82764H1.5C1.22386 6.82764 1 7.05149 1 7.32764V8.82764Z" fill="black"/>
<path d="M0 10.8276C0 11.1038 0.223858 11.3276 0.5 11.3276H2C2.27614 11.3276 2.5 11.1038 2.5 10.8276V9.32764C2.5 9.05149 2.27614 8.82764 2 8.82764H0.5C0.223858 8.82764 0 9.05149 0 9.32764V10.8276Z" fill="black"/>
<path d="M0 13.3276C0 13.6038 0.223858 13.8276 0.5 13.8276H2C2.27614 13.8276 2.5 13.6038 2.5 13.3276V11.8276C2.5 11.5515 2.27614 11.3276 2 11.3276H0.5C0.223858 11.3276 0 11.5515 0 11.8276V13.3276Z" fill="black"/>
<path d="M0 15.8276C0 16.1038 0.223858 16.3276 0.5 16.3276H2C2.27614 16.3276 2.5 16.1038 2.5 15.8276V14.3276C2.5 14.0515 2.27614 13.8276 2 13.8276H0.5C0.223858 13.8276 0 14.0515 0 14.3276V15.8276Z" fill="black"/>
<path d="M0 18.3276C0 18.6038 0.223858 18.8276 0.5 18.8276H2C2.27614 18.8276 2.5 18.6038 2.5 18.3276V16.8276C2.5 16.5515 2.27614 16.3276 2 16.3276H0.5C0.223858 16.3276 0 16.5515 0 16.8276V18.3276Z" fill="black"/>
<path d="M1 20.8276C1 21.1038 1.22386 21.3276 1.5 21.3276H3C3.27614 21.3276 3.5 21.1038 3.5 20.8276V19.3276C3.5 19.0515 3.27614 18.8276 3 18.8276H1.5C1.22386 18.8276 1 19.0515 1 19.3276V20.8276Z" fill="black"/>
<path d="M2 22.8276C2 23.1038 2.22386 23.3276 2.5 23.3276H4C4.27614 23.3276 4.5 23.1038 4.5 22.8276V21.3276C4.5 21.0515 4.27614 20.8276 4 20.8276H2.5C2.22386 20.8276 2 21.0515 2 21.3276V22.8276Z" fill="black"/>
<path d="M4 24.8276C4 25.1038 4.22386 25.3276 4.5 25.3276H6C6.27614 25.3276 6.5 25.1038 6.5 24.8276V23.3276C6.5 23.0515 6.27614 22.8276 6 22.8276H4.5C4.22386 22.8276 4 23.0515 4 23.3276V24.8276Z" fill="black"/>
<path d="M6 25.8276C6 26.1038 6.22386 26.3276 6.5 26.3276H8C8.27614 26.3276 8.5 26.1038 8.5 25.8276V24.3276C8.5 24.0515 8.27614 23.8276 8 23.8276H6.5C6.22386 23.8276 6 24.0515 6 24.3276V25.8276Z" fill="black"/>
<path d="M8 26.8276C8 27.1038 8.22386 27.3276 8.5 27.3276H10C10.2761 27.3276 10.5 27.1038 10.5 26.8276V25.3276C10.5 25.0515 10.2761 24.8276 10 24.8276H8.5C8.22386 24.8276 8 25.0515 8 25.3276V26.8276Z" fill="black"/>
<path d="M13 26.8276C13 27.1038 13.2239 27.3276 13.5 27.3276H15C15.2761 27.3276 15.5 27.1038 15.5 26.8276V25.3276C15.5 25.0515 15.2761 24.8276 15 24.8276H13.5C13.2239 24.8276 13 25.0515 13 25.3276V26.8276Z" fill="black"/>
<path d="M10 26.8276C10 27.1038 10.2239 27.3276 10.5 27.3276H12C12.2761 27.3276 12.5 27.1038 12.5 26.8276V25.3276C12.5 25.0515 12.2761 24.8276 12 24.8276H10.5C10.2239 24.8276 10 25.0515 10 25.3276V26.8276Z" fill="black"/>
<path d="M23 18.8276C23 19.1038 23.2239 19.3276 23.5 19.3276H25C25.2761 19.3276 25.5 19.1038 25.5 18.8276V17.3276C25.5 17.0515 25.2761 16.8276 25 16.8276H23.5C23.2239 16.8276 23 17.0515 23 17.3276V18.8276Z" fill="black"/>
<path d="M21 20.8276C21 21.1038 21.2239 21.3276 21.5 21.3276H23C23.2761 21.3276 23.5 21.1038 23.5 20.8276V19.3276C23.5 19.0515 23.2761 18.8276 23 18.8276H21.5C21.2239 18.8276 21 19.0515 21 19.3276V20.8276Z" fill="black"/>
<path d="M19 22.8276C19 23.1038 19.2239 23.3276 19.5 23.3276H21C21.2761 23.3276 21.5 23.1038 21.5 22.8276V21.3276C21.5 21.0515 21.2761 20.8276 21 20.8276H19.5C19.2239 20.8276 19 21.0515 19 21.3276V22.8276Z" fill="black"/>
<path d="M17 24.8276C17 25.1038 17.2239 25.3276 17.5 25.3276H19C19.2761 25.3276 19.5 25.1038 19.5 24.8276V23.3276C19.5 23.0515 19.2761 22.8276 19 22.8276H17.5C17.2239 22.8276 17 23.0515 17 23.3276V24.8276Z" fill="black"/>
<path d="M15 26.8276C15 27.1038 15.2239 27.3276 15.5 27.3276H17C17.2761 27.3276 17.5 27.1038 17.5 26.8276V25.3276C17.5 25.0515 17.2761 24.8276 17 24.8276H15.5C15.2239 24.8276 15 25.0515 15 25.3276V26.8276Z" fill="black"/>
<path d="M23 14.8276C23 15.1038 23.2239 15.3276 23.5 15.3276H25C25.2761 15.3276 25.5 15.1038 25.5 14.8276V13.3276C25.5 13.0515 25.2761 12.8276 25 12.8276H23.5C23.2239 12.8276 23 13.0515 23 13.3276V14.8276Z" fill="black"/>
<path d="M21 14.8276C21 15.1038 21.2239 15.3276 21.5 15.3276H23C23.2761 15.3276 23.5 15.1038 23.5 14.8276V13.3276C23.5 13.0515 23.2761 12.8276 23 12.8276H21.5C21.2239 12.8276 21 13.0515 21 13.3276V14.8276Z" fill="black"/>
<path d="M18 14.8276C18 15.1038 18.2239 15.3276 18.5 15.3276H20C20.2761 15.3276 20.5 15.1038 20.5 14.8276V13.3276C20.5 13.0515 20.2761 12.8276 20 12.8276H18.5C18.2239 12.8276 18 13.0515 18 13.3276V14.8276Z" fill="black"/>
<path d="M16 16.8276C16 17.1038 16.2239 17.3276 16.5 17.3276H18C18.2761 17.3276 18.5 17.1038 18.5 16.8276V15.3276C18.5 15.0515 18.2761 14.8276 18 14.8276H16.5C16.2239 14.8276 16 15.0515 16 15.3276V16.8276Z" fill="black"/>
<path d="M14 18.8276C14 19.1038 14.2239 19.3276 14.5 19.3276H16C16.2761 19.3276 16.5 19.1038 16.5 18.8276V17.3276C16.5 17.0515 16.2761 16.8276 16 16.8276H14.5C14.2239 16.8276 14 17.0515 14 17.3276V18.8276Z" fill="black"/>
<path d="M13 21.8276C13 22.1038 13.2239 22.3276 13.5 22.3276H15C15.2761 22.3276 15.5 22.1038 15.5 21.8276V20.3276C15.5 20.0515 15.2761 19.8276 15 19.8276H13.5C13.2239 19.8276 13 20.0515 13 20.3276V21.8276Z" fill="black"/>
<path d="M13 24.8276C13 25.1038 13.2239 25.3276 13.5 25.3276H15C15.2761 25.3276 15.5 25.1038 15.5 24.8276V23.3276C15.5 23.0515 15.2761 22.8276 15 22.8276H13.5C13.2239 22.8276 13 23.0515 13 23.3276V24.8276Z" fill="black"/>
<path d="M14.5 0.827637H14.45V2.32764H14.5H14.55V0.827637H14.5ZM2 11.3276V11.2776H0.5V11.3276V11.3776H2V11.3276ZM2 13.8276V13.7776H0.5V13.8276V13.8776H2V13.8276ZM2 16.3276V16.2776H0.5V16.3276V16.3776H2V16.3276ZM27 17.3276V17.2276H25.5V17.3276V17.4276H27V17.3276ZM25.5 14.8276V14.9276H27V14.8276V14.7276H25.5V14.8276ZM27.5 16.8276H27.6V15.3276H27.5H27.4V16.8276H27.5ZM25 15.3276H24.9V16.8276H25H25.1V15.3276H25ZM27 14.8276V14.9276C27.2209 14.9276 27.4 15.1067 27.4 15.3276H27.5H27.6C27.6 14.9963 27.3314 14.7276 27 14.7276V14.8276ZM25.5 14.8276V14.7276C25.1686 14.7276 24.9 14.9963 24.9 15.3276H25H25.1C25.1 15.1067 25.2791 14.9276 25.5 14.9276V14.8276ZM25.5 17.3276V17.2276C25.2791 17.2276 25.1 17.0485 25.1 16.8276H25H24.9C24.9 17.159 25.1686 17.4276 25.5 17.4276V17.3276ZM27 17.3276V17.4276C27.3314 17.4276 27.6 17.159 27.6 16.8276H27.5H27.4C27.4 17.0485 27.2209 17.2276 27 17.2276V17.3276ZM27 13.3276V13.2276H25.5V13.3276V13.4276H27V13.3276ZM25.5 10.8276V10.9276H27V10.8276V10.7276H25.5V10.8276ZM27.5 12.8276H27.6V11.3276H27.5H27.4V12.8276H27.5ZM25 11.3276H24.9V12.8276H25H25.1V11.3276H25ZM27 10.8276V10.9276C27.2209 10.9276 27.4 11.1067 27.4 11.3276H27.5H27.6C27.6 10.9963 27.3314 10.7276 27 10.7276V10.8276ZM25.5 10.8276V10.7276C25.1686 10.7276 24.9 10.9963 24.9 11.3276H25H25.1C25.1 11.1067 25.2791 10.9276 25.5 10.9276V10.8276ZM25.5 13.3276V13.2276C25.2791 13.2276 25.1 13.0486 25.1 12.8276H25H24.9C24.9 13.159 25.1686 13.4276 25.5 13.4276V13.3276ZM27 13.3276V13.4276C27.3314 13.4276 27.6 13.159 27.6 12.8276H27.5H27.4C27.4 13.0486 27.2209 13.2276 27 13.2276V13.3276ZM26 10.3276V10.2276H24.5V10.3276V10.4276H26V10.3276ZM24.5 7.82764V7.92764H26V7.82764V7.72764H24.5V7.82764ZM26.5 9.82764H26.6V8.32764H26.5H26.4V9.82764H26.5ZM24 8.32764H23.9V9.82764H24H24.1V8.32764H24ZM26 7.82764V7.92764C26.2209 7.92764 26.4 8.10672 26.4 8.32764H26.5H26.6C26.6 7.99627 26.3314 7.72764 26 7.72764V7.82764ZM24.5 7.82764V7.72764C24.1686 7.72764 23.9 7.99627 23.9 8.32764H24H24.1C24.1 8.10672 24.2791 7.92764 24.5 7.92764V7.82764ZM24.5 10.3276V10.2276C24.2791 10.2276 24.1 10.0486 24.1 9.82764H24H23.9C23.9 10.159 24.1686 10.4276 24.5 10.4276V10.3276ZM26 10.3276V10.4276C26.3314 10.4276 26.6 10.159 26.6 9.82764H26.5H26.4C26.4 10.0486 26.2209 10.2276 26 10.2276V10.3276ZM25 8.32764V8.22764H23.5V8.32764V8.42764H25V8.32764ZM23.5 5.82764V5.92764H25V5.82764V5.72764H23.5V5.82764ZM25.5 7.82764H25.6V6.32764H25.5H25.4V7.82764H25.5ZM23 6.32764H22.9V7.82764H23H23.1V6.32764H23ZM25 5.82764V5.92764C25.2209 5.92764 25.4 6.10672 25.4 6.32764H25.5H25.6C25.6 5.99627 25.3314 5.72764 25 5.72764V5.82764ZM23.5 5.82764V5.72764C23.1686 5.72764 22.9 5.99627 22.9 6.32764H23H23.1C23.1 6.10672 23.2791 5.92764 23.5 5.92764V5.82764ZM23.5 8.32764V8.22764C23.2791 8.22764 23.1 8.04855 23.1 7.82764H23H22.9C22.9 8.15901 23.1686 8.42764 23.5 8.42764V8.32764ZM25 8.32764V8.42764C25.3314 8.42764 25.6 8.15901 25.6 7.82764H25.5H25.4C25.4 8.04855 25.2209 8.22764 25 8.22764V8.32764ZM23 6.32764V6.22764H21.5V6.32764V6.42764H23V6.32764ZM21.5 3.82764V3.92764H23V3.82764V3.72764H21.5V3.82764ZM23.5 5.82764H23.6V4.32764H23.5H23.4V5.82764H23.5ZM21 4.32764H20.9V5.82764H21H21.1V4.32764H21ZM23 3.82764V3.92764C23.2209 3.92764 23.4 4.10672 23.4 4.32764H23.5H23.6C23.6 3.99627 23.3314 3.72764 23 3.72764V3.82764ZM21.5 3.82764V3.72764C21.1686 3.72764 20.9 3.99627 20.9 4.32764H21H21.1C21.1 4.10672 21.2791 3.92764 21.5 3.92764V3.82764ZM21.5 6.32764V6.22764C21.2791 6.22764 21.1 6.04855 21.1 5.82764H21H20.9C20.9 6.15901 21.1686 6.42764 21.5 6.42764V6.32764ZM23 6.32764V6.42764C23.3314 6.42764 23.6 6.15901 23.6 5.82764H23.5H23.4C23.4 6.04855 23.2209 6.22764 23 6.22764V6.32764ZM21 4.32764V4.22764H19.5V4.32764V4.42764H21V4.32764ZM19.5 1.82764V1.92764H21V1.82764V1.72764H19.5V1.82764ZM21.5 3.82764H21.6V2.32764H21.5H21.4V3.82764H21.5ZM19 2.32764H18.9V3.82764H19H19.1V2.32764H19ZM21 1.82764V1.92764C21.2209 1.92764 21.4 2.10672 21.4 2.32764H21.5H21.6C21.6 1.99627 21.3314 1.72764 21 1.72764V1.82764ZM19.5 1.82764V1.72764C19.1686 1.72764 18.9 1.99627 18.9 2.32764H19H19.1C19.1 2.10672 19.2791 1.92764 19.5 1.92764V1.82764ZM19.5 4.32764V4.22764C19.2791 4.22764 19.1 4.04855 19.1 3.82764H19H18.9C18.9 4.15901 19.1686 4.42764 19.5 4.42764V4.32764ZM21 4.32764V4.42764C21.3314 4.42764 21.6 4.15901 21.6 3.82764H21.5H21.4C21.4 4.04855 21.2209 4.22764 21 4.22764V4.32764ZM19 3.32764V3.22764H17.5V3.32764V3.42764H19V3.32764ZM17.5 0.827637V0.927637H19V0.827637V0.727637H17.5V0.827637ZM19.5 2.82764H19.6V1.32764H19.5H19.4V2.82764H19.5ZM17 1.32764H16.9V2.82764H17H17.1V1.32764H17ZM19 0.827637V0.927637C19.2209 0.927637 19.4 1.10672 19.4 1.32764H19.5H19.6C19.6 0.996266 19.3314 0.727637 19 0.727637V0.827637ZM17.5 0.827637V0.727637C17.1686 0.727637 16.9 0.996266 16.9 1.32764H17H17.1C17.1 1.10672 17.2791 0.927637 17.5 0.927637V0.827637ZM17.5 3.32764V3.22764C17.2791 3.22764 17.1 3.04855 17.1 2.82764H17H16.9C16.9 3.15901 17.1686 3.42764 17.5 3.42764V3.32764ZM19 3.32764V3.42764C19.3314 3.42764 19.6 3.15901 19.6 2.82764H19.5H19.4C19.4 3.04855 19.2209 3.22764 19 3.22764V3.32764ZM16.5 2.82764V2.72764H15V2.82764V2.92764H16.5V2.82764ZM15 0.327637V0.427637H16.5V0.327637V0.227637H15V0.327637ZM17 2.32764H17.1V0.827637H17H16.9V2.32764H17ZM16.5 0.327637V0.427637C16.7209 0.427637 16.9 0.606723 16.9 0.827637H17H17.1C17.1 0.496266 16.8314 0.227637 16.5 0.227637V0.327637ZM15 0.327637V0.227637C14.6686 0.227637 14.4 0.496266 14.4 0.827637H14.5H14.6C14.6 0.606723 14.7791 0.427637 15 0.427637V0.327637ZM15 2.82764V2.72764C14.7791 2.72764 14.6 2.54855 14.6 2.32764H14.5H14.4C14.4 2.65901 14.6686 2.92764 15 2.92764V2.82764ZM16.5 2.82764V2.92764C16.8314 2.92764 17.1 2.65901 17.1 2.32764H17H16.9C16.9 2.54855 16.7209 2.72764 16.5 2.72764V2.82764ZM14 2.82764V2.72764H12.5V2.82764V2.92764H14V2.82764ZM12.5 0.327637V0.427637H14V0.327637V0.227637H12.5V0.327637ZM12 0.827637H11.9V2.32764H12H12.1V0.827637H12ZM14 0.327637V0.427637C14.2209 0.427637 14.4 0.606723 14.4 0.827637H14.5H14.6C14.6 0.496266 14.3314 0.227637 14 0.227637V0.327637ZM12.5 0.327637V0.227637C12.1686 0.227637 11.9 0.496266 11.9 0.827637H12H12.1C12.1 0.606723 12.2791 0.427637 12.5 0.427637V0.327637ZM12.5 2.82764V2.72764C12.2791 2.72764 12.1 2.54855 12.1 2.32764H12H11.9C11.9 2.65901 12.1686 2.92764 12.5 2.92764V2.82764ZM14 2.82764V2.92764C14.3314 2.92764 14.6 2.65901 14.6 2.32764H14.5H14.4C14.4 2.54855 14.2209 2.72764 14 2.72764V2.82764ZM11 3.32764V3.22764H9.5V3.32764V3.42764H11V3.32764ZM9.5 0.827637V0.927637H11V0.827637V0.727637H9.5V0.827637ZM11.5 2.82764H11.6V1.32764H11.5H11.4V2.82764H11.5ZM9 1.32764H8.9V2.82764H9H9.1V1.32764H9ZM11 0.827637V0.927637C11.2209 0.927637 11.4 1.10672 11.4 1.32764H11.5H11.6C11.6 0.996266 11.3314 0.727637 11 0.727637V0.827637ZM9.5 0.827637V0.727637C9.16863 0.727637 8.9 0.996266 8.9 1.32764H9H9.1C9.1 1.10672 9.27909 0.927637 9.5 0.927637V0.827637ZM9.5 3.32764V3.22764C9.27909 3.22764 9.1 3.04855 9.1 2.82764H9H8.9C8.9 3.15901 9.16863 3.42764 9.5 3.42764V3.32764ZM11 3.32764V3.42764C11.3314 3.42764 11.6 3.15901 11.6 2.82764H11.5H11.4C11.4 3.04855 11.2209 3.22764 11 3.22764V3.32764ZM9 4.32764V4.22764H7.5V4.32764V4.42764H9V4.32764ZM7.5 1.82764V1.92764H9V1.82764V1.72764H7.5V1.82764ZM9.5 3.82764H9.6V2.32764H9.5H9.4V3.82764H9.5ZM7 2.32764H6.9V3.82764H7H7.1V2.32764H7ZM9 1.82764V1.92764C9.22091 1.92764 9.4 2.10672 9.4 2.32764H9.5H9.6C9.6 1.99627 9.33137 1.72764 9 1.72764V1.82764ZM7.5 1.82764V1.72764C7.16863 1.72764 6.9 1.99627 6.9 2.32764H7H7.1C7.1 2.10672 7.27909 1.92764 7.5 1.92764V1.82764ZM7.5 4.32764V4.22764C7.27909 4.22764 7.1 4.04855 7.1 3.82764H7H6.9C6.9 4.15901 7.16863 4.42764 7.5 4.42764V4.32764ZM9 4.32764V4.42764C9.33137 4.42764 9.6 4.15901 9.6 3.82764H9.5H9.4C9.4 4.04855 9.22091 4.22764 9 4.22764V4.32764ZM7 5.32764V5.22764H5.5V5.32764V5.42764H7V5.32764ZM5.5 2.82764V2.92764H7V2.82764V2.72764H5.5V2.82764ZM7.5 4.82764H7.6V3.32764H7.5H7.4V4.82764H7.5ZM5 3.32764H4.9V4.82764H5H5.1V3.32764H5ZM7 2.82764V2.92764C7.22091 2.92764 7.4 3.10672 7.4 3.32764H7.5H7.6C7.6 2.99627 7.33137 2.72764 7 2.72764V2.82764ZM5.5 2.82764V2.72764C5.16863 2.72764 4.9 2.99627 4.9 3.32764H5H5.1C5.1 3.10672 5.27909 2.92764 5.5 2.92764V2.82764ZM5.5 5.32764V5.22764C5.27909 5.22764 5.1 5.04855 5.1 4.82764H5H4.9C4.9 5.15901 5.16863 5.42764 5.5 5.42764V5.32764ZM7 5.32764V5.42764C7.33137 5.42764 7.6 5.15901 7.6 4.82764H7.5H7.4C7.4 5.04855 7.22091 5.22764 7 5.22764V5.32764ZM5 7.32764V7.22764H3.5V7.32764V7.42764H5V7.32764ZM3.5 4.82764V4.92764H5V4.82764V4.72764H3.5V4.82764ZM5.5 6.82764H5.6V5.32764H5.5H5.4V6.82764H5.5ZM3 5.32764H2.9V6.82764H3H3.1V5.32764H3ZM5 4.82764V4.92764C5.22091 4.92764 5.4 5.10672 5.4 5.32764H5.5H5.6C5.6 4.99627 5.33137 4.72764 5 4.72764V4.82764ZM3.5 4.82764V4.72764C3.16863 4.72764 2.9 4.99627 2.9 5.32764H3H3.1C3.1 5.10672 3.27909 4.92764 3.5 4.92764V4.82764ZM3.5 7.32764V7.22764C3.27909 7.22764 3.1 7.04855 3.1 6.82764H3H2.9C2.9 7.15901 3.16863 7.42764 3.5 7.42764V7.32764ZM5 7.32764V7.42764C5.33137 7.42764 5.6 7.15901 5.6 6.82764H5.5H5.4C5.4 7.04855 5.22091 7.22764 5 7.22764V7.32764ZM3 9.32764V9.22764H1.5V9.32764V9.42764H3V9.32764ZM1.5 6.82764V6.92764H3V6.82764V6.72764H1.5V6.82764ZM3.5 8.82764H3.6V7.32764H3.5H3.4V8.82764H3.5ZM1 7.32764H0.9V8.82764H1H1.1V7.32764H1ZM3 6.82764V6.92764C3.22091 6.92764 3.4 7.10672 3.4 7.32764H3.5H3.6C3.6 6.99627 3.33137 6.72764 3 6.72764V6.82764ZM1.5 6.82764V6.72764C1.16863 6.72764 0.9 6.99627 0.9 7.32764H1H1.1C1.1 7.10672 1.27909 6.92764 1.5 6.92764V6.82764ZM1.5 9.32764V9.22764C1.27909 9.22764 1.1 9.04855 1.1 8.82764H1H0.9C0.9 9.15901 1.16863 9.42764 1.5 9.42764V9.32764ZM3 9.32764V9.42764C3.33137 9.42764 3.6 9.15901 3.6 8.82764H3.5H3.4C3.4 9.04855 3.22091 9.22764 3 9.22764V9.32764ZM0.5 8.82764V8.92764H2V8.82764V8.72764H0.5V8.82764ZM2.5 10.8276H2.6V9.32764H2.5H2.4V10.8276H2.5ZM0 9.32764H-0.1V10.8276H0H0.1V9.32764H0ZM2 8.82764V8.92764C2.22091 8.92764 2.4 9.10672 2.4 9.32764H2.5H2.6C2.6 8.99627 2.33137 8.72764 2 8.72764V8.82764ZM0.5 8.82764V8.72764C0.168629 8.72764 -0.1 8.99627 -0.1 9.32764H0H0.1C0.1 9.10672 0.279086 8.92764 0.5 8.92764V8.82764ZM0.5 11.3276V11.2276C0.279086 11.2276 0.1 11.0486 0.1 10.8276H0H-0.1C-0.1 11.159 0.168629 11.4276 0.5 11.4276V11.3276ZM2 11.3276V11.4276C2.33137 11.4276 2.6 11.159 2.6 10.8276H2.5H2.4C2.4 11.0486 2.22091 11.2276 2 11.2276V11.3276ZM2.5 13.3276H2.6V11.8276H2.5H2.4V13.3276H2.5ZM0 11.8276H-0.1V13.3276H0H0.1V11.8276H0ZM2 11.3276V11.4276C2.22091 11.4276 2.4 11.6067 2.4 11.8276H2.5H2.6C2.6 11.4963 2.33137 11.2276 2 11.2276V11.3276ZM0.5 11.3276V11.2276C0.168629 11.2276 -0.1 11.4963 -0.1 11.8276H0H0.1C0.1 11.6067 0.279086 11.4276 0.5 11.4276V11.3276ZM0.5 13.8276V13.7276C0.279086 13.7276 0.1 13.5486 0.1 13.3276H0H-0.1C-0.1 13.659 0.168629 13.9276 0.5 13.9276V13.8276ZM2 13.8276V13.9276C2.33137 13.9276 2.6 13.659 2.6 13.3276H2.5H2.4C2.4 13.5486 2.22091 13.7276 2 13.7276V13.8276ZM2.5 15.8276H2.6V14.3276H2.5H2.4V15.8276H2.5ZM0 14.3276H-0.1V15.8276H0H0.1V14.3276H0ZM2 13.8276V13.9276C2.22091 13.9276 2.4 14.1067 2.4 14.3276H2.5H2.6C2.6 13.9963 2.33137 13.7276 2 13.7276V13.8276ZM0.5 13.8276V13.7276C0.168629 13.7276 -0.1 13.9963 -0.1 14.3276H0H0.1C0.1 14.1067 0.279086 13.9276 0.5 13.9276V13.8276ZM0.5 16.3276V16.2276C0.279086 16.2276 0.1 16.0486 0.1 15.8276H0H-0.1C-0.1 16.159 0.168629 16.4276 0.5 16.4276V16.3276ZM2 16.3276V16.4276C2.33137 16.4276 2.6 16.159 2.6 15.8276H2.5H2.4C2.4 16.0486 2.22091 16.2276 2 16.2276V16.3276ZM2 18.8276V18.7276H0.5V18.8276V18.9276H2V18.8276ZM2.5 18.3276H2.6V16.8276H2.5H2.4V18.3276H2.5ZM0 16.8276H-0.1V18.3276H0H0.1V16.8276H0ZM2 16.3276V16.4276C2.22091 16.4276 2.4 16.6067 2.4 16.8276H2.5H2.6C2.6 16.4963 2.33137 16.2276 2 16.2276V16.3276ZM0.5 16.3276V16.2276C0.168629 16.2276 -0.1 16.4963 -0.1 16.8276H0H0.1C0.1 16.6067 0.279086 16.4276 0.5 16.4276V16.3276ZM0.5 18.8276V18.7276C0.279086 18.7276 0.1 18.5486 0.1 18.3276H0H-0.1C-0.1 18.659 0.168629 18.9276 0.5 18.9276V18.8276ZM2 18.8276V18.9276C2.33137 18.9276 2.6 18.659 2.6 18.3276H2.5H2.4C2.4 18.5485 2.22091 18.7276 2 18.7276V18.8276ZM3 21.3276V21.2276H1.5V21.3276V21.4276H3V21.3276ZM1.5 18.8276V18.9276H3V18.8276V18.7276H1.5V18.8276ZM3.5 20.8276H3.6V19.3276H3.5H3.4V20.8276H3.5ZM1 19.3276H0.9V20.8276H1H1.1V19.3276H1ZM3 18.8276V18.9276C3.22091 18.9276 3.4 19.1067 3.4 19.3276H3.5H3.6C3.6 18.9963 3.33137 18.7276 3 18.7276V18.8276ZM1.5 18.8276V18.7276C1.16863 18.7276 0.9 18.9963 0.9 19.3276H1H1.1C1.1 19.1067 1.27909 18.9276 1.5 18.9276V18.8276ZM1.5 21.3276V21.2276C1.27909 21.2276 1.1 21.0485 1.1 20.8276H1H0.9C0.9 21.159 1.16863 21.4276 1.5 21.4276V21.3276ZM3 21.3276V21.4276C3.33137 21.4276 3.6 21.159 3.6 20.8276H3.5H3.4C3.4 21.0485 3.22091 21.2276 3 21.2276V21.3276ZM4 23.3276V23.2276H2.5V23.3276V23.4276H4V23.3276ZM2.5 20.8276V20.9276H4V20.8276V20.7276H2.5V20.8276ZM4.5 22.8276H4.6V21.3276H4.5H4.4V22.8276H4.5ZM2 21.3276H1.9V22.8276H2H2.1V21.3276H2ZM4 20.8276V20.9276C4.22091 20.9276 4.4 21.1067 4.4 21.3276H4.5H4.6C4.6 20.9963 4.33137 20.7276 4 20.7276V20.8276ZM2.5 20.8276V20.7276C2.16863 20.7276 1.9 20.9963 1.9 21.3276H2H2.1C2.1 21.1067 2.27909 20.9276 2.5 20.9276V20.8276ZM2.5 23.3276V23.2276C2.27909 23.2276 2.1 23.0485 2.1 22.8276H2H1.9C1.9 23.159 2.16863 23.4276 2.5 23.4276V23.3276ZM4 23.3276V23.4276C4.33137 23.4276 4.6 23.159 4.6 22.8276H4.5H4.4C4.4 23.0485 4.22091 23.2276 4 23.2276V23.3276ZM6 25.3276V25.2276H4.5V25.3276V25.4276H6V25.3276ZM4.5 22.8276V22.9276H6V22.8276V22.7276H4.5V22.8276ZM6.5 24.8276H6.6V23.3276H6.5H6.4V24.8276H6.5ZM4 23.3276H3.9V24.8276H4H4.1V23.3276H4ZM6 22.8276V22.9276C6.22091 22.9276 6.4 23.1067 6.4 23.3276H6.5H6.6C6.6 22.9963 6.33137 22.7276 6 22.7276V22.8276ZM4.5 22.8276V22.7276C4.16863 22.7276 3.9 22.9963 3.9 23.3276H4H4.1C4.1 23.1067 4.27909 22.9276 4.5 22.9276V22.8276ZM4.5 25.3276V25.2276C4.27909 25.2276 4.1 25.0485 4.1 24.8276H4H3.9C3.9 25.159 4.16863 25.4276 4.5 25.4276V25.3276ZM6 25.3276V25.4276C6.33137 25.4276 6.6 25.159 6.6 24.8276H6.5H6.4C6.4 25.0485 6.22091 25.2276 6 25.2276V25.3276ZM8 26.3276V26.2276H6.5V26.3276V26.4276H8V26.3276ZM6.5 23.8276V23.9276H8V23.8276V23.7276H6.5V23.8276ZM8.5 25.8276H8.6V24.3276H8.5H8.4V25.8276H8.5ZM6 24.3276H5.9V25.8276H6H6.1V24.3276H6ZM8 23.8276V23.9276C8.22091 23.9276 8.4 24.1067 8.4 24.3276H8.5H8.6C8.6 23.9963 8.33137 23.7276 8 23.7276V23.8276ZM6.5 23.8276V23.7276C6.16863 23.7276 5.9 23.9963 5.9 24.3276H6H6.1C6.1 24.1067 6.27909 23.9276 6.5 23.9276V23.8276ZM6.5 26.3276V26.2276C6.27909 26.2276 6.1 26.0485 6.1 25.8276H6H5.9C5.9 26.159 6.16863 26.4276 6.5 26.4276V26.3276ZM8 26.3276V26.4276C8.33137 26.4276 8.6 26.159 8.6 25.8276H8.5H8.4C8.4 26.0485 8.22091 26.2276 8 26.2276V26.3276ZM10 27.3276V27.2276H8.5V27.3276V27.4276H10V27.3276ZM8.5 24.8276V24.9276H10V24.8276V24.7276H8.5V24.8276ZM10.5 26.8276H10.6V25.3276H10.5H10.4V26.8276H10.5ZM8 25.3276H7.9V26.8276H8H8.1V25.3276H8ZM10 24.8276V24.9276C10.2209 24.9276 10.4 25.1067 10.4 25.3276H10.5H10.6C10.6 24.9963 10.3314 24.7276 10 24.7276V24.8276ZM8.5 24.8276V24.7276C8.16863 24.7276 7.9 24.9963 7.9 25.3276H8H8.1C8.1 25.1067 8.27909 24.9276 8.5 24.9276V24.8276ZM8.5 27.3276V27.2276C8.27909 27.2276 8.1 27.0485 8.1 26.8276H8H7.9C7.9 27.159 8.16863 27.4276 8.5 27.4276V27.3276ZM10 27.3276V27.4276C10.3314 27.4276 10.6 27.159 10.6 26.8276H10.5H10.4C10.4 27.0485 10.2209 27.2276 10 27.2276V27.3276ZM15 27.3276V27.2276H13.5V27.3276V27.4276H15V27.3276ZM13.5 24.8276V24.9276H15V24.8276V24.7276H13.5V24.8276ZM15.5 26.8276H15.6V25.3276H15.5H15.4V26.8276H15.5ZM13 25.3276H12.9V26.8276H13H13.1V25.3276H13ZM15 24.8276V24.9276C15.2209 24.9276 15.4 25.1067 15.4 25.3276H15.5H15.6C15.6 24.9963 15.3314 24.7276 15 24.7276V24.8276ZM13.5 24.8276V24.7276C13.1686 24.7276 12.9 24.9963 12.9 25.3276H13H13.1C13.1 25.1067 13.2791 24.9276 13.5 24.9276V24.8276ZM13.5 27.3276V27.2276C13.2791 27.2276 13.1 27.0485 13.1 26.8276H13H12.9C12.9 27.159 13.1686 27.4276 13.5 27.4276V27.3276ZM15 27.3276V27.4276C15.3314 27.4276 15.6 27.159 15.6 26.8276H15.5H15.4C15.4 27.0485 15.2209 27.2276 15 27.2276V27.3276ZM12 27.3276V27.2276H10.5V27.3276V27.4276H12V27.3276ZM10.5 24.8276V24.9276H12V24.8276V24.7276H10.5V24.8276ZM12.5 26.8276H12.6V25.3276H12.5H12.4V26.8276H12.5ZM10 25.3276H9.9V26.8276H10H10.1V25.3276H10ZM12 24.8276V24.9276C12.2209 24.9276 12.4 25.1067 12.4 25.3276H12.5H12.6C12.6 24.9963 12.3314 24.7276 12 24.7276V24.8276ZM10.5 24.8276V24.7276C10.1686 24.7276 9.9 24.9963 9.9 25.3276H10H10.1C10.1 25.1067 10.2791 24.9276 10.5 24.9276V24.8276ZM10.5 27.3276V27.2276C10.2791 27.2276 10.1 27.0485 10.1 26.8276H10H9.9C9.9 27.159 10.1686 27.4276 10.5 27.4276V27.3276ZM12 27.3276V27.4276C12.3314 27.4276 12.6 27.159 12.6 26.8276H12.5H12.4C12.4 27.0485 12.2209 27.2276 12 27.2276V27.3276ZM25 19.3276V19.2276H23.5V19.3276V19.4276H25V19.3276ZM23.5 16.8276V16.9276H25V16.8276V16.7276H23.5V16.8276ZM25.5 18.8276H25.6V17.3276H25.5H25.4V18.8276H25.5ZM23 17.3276H22.9V18.8276H23H23.1V17.3276H23ZM25 16.8276V16.9276C25.2209 16.9276 25.4 17.1067 25.4 17.3276H25.5H25.6C25.6 16.9963 25.3314 16.7276 25 16.7276V16.8276ZM23.5 16.8276V16.7276C23.1686 16.7276 22.9 16.9963 22.9 17.3276H23H23.1C23.1 17.1067 23.2791 16.9276 23.5 16.9276V16.8276ZM23.5 19.3276V19.2276C23.2791 19.2276 23.1 19.0485 23.1 18.8276H23H22.9C22.9 19.159 23.1686 19.4276 23.5 19.4276V19.3276ZM25 19.3276V19.4276C25.3314 19.4276 25.6 19.159 25.6 18.8276H25.5H25.4C25.4 19.0485 25.2209 19.2276 25 19.2276V19.3276ZM23 21.3276V21.2276H21.5V21.3276V21.4276H23V21.3276ZM21.5 18.8276V18.9276H23V18.8276V18.7276H21.5V18.8276ZM23.5 20.8276H23.6V19.3276H23.5H23.4V20.8276H23.5ZM21 19.3276H20.9V20.8276H21H21.1V19.3276H21ZM23 18.8276V18.9276C23.2209 18.9276 23.4 19.1067 23.4 19.3276H23.5H23.6C23.6 18.9963 23.3314 18.7276 23 18.7276V18.8276ZM21.5 18.8276V18.7276C21.1686 18.7276 20.9 18.9963 20.9 19.3276H21H21.1C21.1 19.1067 21.2791 18.9276 21.5 18.9276V18.8276ZM21.5 21.3276V21.2276C21.2791 21.2276 21.1 21.0485 21.1 20.8276H21H20.9C20.9 21.159 21.1686 21.4276 21.5 21.4276V21.3276ZM23 21.3276V21.4276C23.3314 21.4276 23.6 21.159 23.6 20.8276H23.5H23.4C23.4 21.0485 23.2209 21.2276 23 21.2276V21.3276ZM21 23.3276V23.2276H19.5V23.3276V23.4276H21V23.3276ZM19.5 20.8276V20.9276H21V20.8276V20.7276H19.5V20.8276ZM21.5 22.8276H21.6V21.3276H21.5H21.4V22.8276H21.5ZM19 21.3276H18.9V22.8276H19H19.1V21.3276H19ZM21 20.8276V20.9276C21.2209 20.9276 21.4 21.1067 21.4 21.3276H21.5H21.6C21.6 20.9963 21.3314 20.7276 21 20.7276V20.8276ZM19.5 20.8276V20.7276C19.1686 20.7276 18.9 20.9963 18.9 21.3276H19H19.1C19.1 21.1067 19.2791 20.9276 19.5 20.9276V20.8276ZM19.5 23.3276V23.2276C19.2791 23.2276 19.1 23.0485 19.1 22.8276H19H18.9C18.9 23.159 19.1686 23.4276 19.5 23.4276V23.3276ZM21 23.3276V23.4276C21.3314 23.4276 21.6 23.159 21.6 22.8276H21.5H21.4C21.4 23.0485 21.2209 23.2276 21 23.2276V23.3276ZM19 25.3276V25.2276H17.5V25.3276V25.4276H19V25.3276ZM17.5 22.8276V22.9276H19V22.8276V22.7276H17.5V22.8276ZM19.5 24.8276H19.6V23.3276H19.5H19.4V24.8276H19.5ZM17 23.3276H16.9V24.8276H17H17.1V23.3276H17ZM19 22.8276V22.9276C19.2209 22.9276 19.4 23.1067 19.4 23.3276H19.5H19.6C19.6 22.9963 19.3314 22.7276 19 22.7276V22.8276ZM17.5 22.8276V22.7276C17.1686 22.7276 16.9 22.9963 16.9 23.3276H17H17.1C17.1 23.1067 17.2791 22.9276 17.5 22.9276V22.8276ZM17.5 25.3276V25.2276C17.2791 25.2276 17.1 25.0485 17.1 24.8276H17H16.9C16.9 25.159 17.1686 25.4276 17.5 25.4276V25.3276ZM19 25.3276V25.4276C19.3314 25.4276 19.6 25.159 19.6 24.8276H19.5H19.4C19.4 25.0485 19.2209 25.2276 19 25.2276V25.3276ZM17 27.3276V27.2276H15.5V27.3276V27.4276H17V27.3276ZM15.5 24.8276V24.9276H17V24.8276V24.7276H15.5V24.8276ZM17.5 26.8276H17.6V25.3276H17.5H17.4V26.8276H17.5ZM15 25.3276H14.9V26.8276H15H15.1V25.3276H15ZM17 24.8276V24.9276C17.2209 24.9276 17.4 25.1067 17.4 25.3276H17.5H17.6C17.6 24.9963 17.3314 24.7276 17 24.7276V24.8276ZM15.5 24.8276V24.7276C15.1686 24.7276 14.9 24.9963 14.9 25.3276H15H15.1C15.1 25.1067 15.2791 24.9276 15.5 24.9276V24.8276ZM15.5 27.3276V27.2276C15.2791 27.2276 15.1 27.0485 15.1 26.8276H15H14.9C14.9 27.159 15.1686 27.4276 15.5 27.4276V27.3276ZM17 27.3276V27.4276C17.3314 27.4276 17.6 27.159 17.6 26.8276H17.5H17.4C17.4 27.0485 17.2209 27.2276 17 27.2276V27.3276ZM25 15.3276V15.2276H23.5V15.3276V15.4276H25V15.3276ZM23.5 12.8276V12.9276H25V12.8276V12.7276H23.5V12.8276ZM25.5 14.8276H25.6V13.3276H25.5H25.4V14.8276H25.5ZM23 13.3276H22.9V14.8276H23H23.1V13.3276H23ZM25 12.8276V12.9276C25.2209 12.9276 25.4 13.1067 25.4 13.3276H25.5H25.6C25.6 12.9963 25.3314 12.7276 25 12.7276V12.8276ZM23.5 12.8276V12.7276C23.1686 12.7276 22.9 12.9963 22.9 13.3276H23H23.1C23.1 13.1067 23.2791 12.9276 23.5 12.9276V12.8276ZM23.5 15.3276V15.2276C23.2791 15.2276 23.1 15.0486 23.1 14.8276H23H22.9C22.9 15.159 23.1686 15.4276 23.5 15.4276V15.3276ZM25 15.3276V15.4276C25.3314 15.4276 25.6 15.159 25.6 14.8276H25.5H25.4C25.4 15.0486 25.2209 15.2276 25 15.2276V15.3276ZM23 15.3276V15.2276H21.5V15.3276V15.4276H23V15.3276ZM21.5 12.8276V12.9276H23V12.8276V12.7276H21.5V12.8276ZM23.5 14.8276H23.6V13.3276H23.5H23.4V14.8276H23.5ZM21 13.3276H20.9V14.8276H21H21.1V13.3276H21ZM23 12.8276V12.9276C23.2209 12.9276 23.4 13.1067 23.4 13.3276H23.5H23.6C23.6 12.9963 23.3314 12.7276 23 12.7276V12.8276ZM21.5 12.8276V12.7276C21.1686 12.7276 20.9 12.9963 20.9 13.3276H21H21.1C21.1 13.1067 21.2791 12.9276 21.5 12.9276V12.8276ZM21.5 15.3276V15.2276C21.2791 15.2276 21.1 15.0486 21.1 14.8276H21H20.9C20.9 15.159 21.1686 15.4276 21.5 15.4276V15.3276ZM23 15.3276V15.4276C23.3314 15.4276 23.6 15.159 23.6 14.8276H23.5H23.4C23.4 15.0486 23.2209 15.2276 23 15.2276V15.3276ZM20 15.3276V15.2276H18.5V15.3276V15.4276H20V15.3276ZM18.5 12.8276V12.9276H20V12.8276V12.7276H18.5V12.8276ZM20.5 14.8276H20.6V13.3276H20.5H20.4V14.8276H20.5ZM18 13.3276H17.9V14.8276H18H18.1V13.3276H18ZM20 12.8276V12.9276C20.2209 12.9276 20.4 13.1067 20.4 13.3276H20.5H20.6C20.6 12.9963 20.3314 12.7276 20 12.7276V12.8276ZM18.5 12.8276V12.7276C18.1686 12.7276 17.9 12.9963 17.9 13.3276H18H18.1C18.1 13.1067 18.2791 12.9276 18.5 12.9276V12.8276ZM18.5 15.3276V15.2276C18.2791 15.2276 18.1 15.0486 18.1 14.8276H18H17.9C17.9 15.159 18.1686 15.4276 18.5 15.4276V15.3276ZM20 15.3276V15.4276C20.3314 15.4276 20.6 15.159 20.6 14.8276H20.5H20.4C20.4 15.0486 20.2209 15.2276 20 15.2276V15.3276ZM18 17.3276V17.2276H16.5V17.3276V17.4276H18V17.3276ZM16.5 14.8276V14.9276H18V14.8276V14.7276H16.5V14.8276ZM18.5 16.8276H18.6V15.3276H18.5H18.4V16.8276H18.5ZM16 15.3276H15.9V16.8276H16H16.1V15.3276H16ZM18 14.8276V14.9276C18.2209 14.9276 18.4 15.1067 18.4 15.3276H18.5H18.6C18.6 14.9963 18.3314 14.7276 18 14.7276V14.8276ZM16.5 14.8276V14.7276C16.1686 14.7276 15.9 14.9963 15.9 15.3276H16H16.1C16.1 15.1067 16.2791 14.9276 16.5 14.9276V14.8276ZM16.5 17.3276V17.2276C16.2791 17.2276 16.1 17.0485 16.1 16.8276H16H15.9C15.9 17.159 16.1686 17.4276 16.5 17.4276V17.3276ZM18 17.3276V17.4276C18.3314 17.4276 18.6 17.159 18.6 16.8276H18.5H18.4C18.4 17.0485 18.2209 17.2276 18 17.2276V17.3276ZM16 19.3276V19.2276H14.5V19.3276V19.4276H16V19.3276ZM14.5 16.8276V16.9276H16V16.8276V16.7276H14.5V16.8276ZM16.5 18.8276H16.6V17.3276H16.5H16.4V18.8276H16.5ZM14 17.3276H13.9V18.8276H14H14.1V17.3276H14ZM16 16.8276V16.9276C16.2209 16.9276 16.4 17.1067 16.4 17.3276H16.5H16.6C16.6 16.9963 16.3314 16.7276 16 16.7276V16.8276ZM14.5 16.8276V16.7276C14.1686 16.7276 13.9 16.9963 13.9 17.3276H14H14.1C14.1 17.1067 14.2791 16.9276 14.5 16.9276V16.8276ZM14.5 19.3276V19.2276C14.2791 19.2276 14.1 19.0485 14.1 18.8276H14H13.9C13.9 19.159 14.1686 19.4276 14.5 19.4276V19.3276ZM16 19.3276V19.4276C16.3314 19.4276 16.6 19.159 16.6 18.8276H16.5H16.4C16.4 19.0485 16.2209 19.2276 16 19.2276V19.3276ZM15 22.3276V22.2276H13.5V22.3276V22.4276H15V22.3276ZM13.5 19.8276V19.9276H15V19.8276V19.7276H13.5V19.8276ZM15.5 21.8276H15.6V20.3276H15.5H15.4V21.8276H15.5ZM13 20.3276H12.9V21.8276H13H13.1V20.3276H13ZM15 19.8276V19.9276C15.2209 19.9276 15.4 20.1067 15.4 20.3276H15.5H15.6C15.6 19.9963 15.3314 19.7276 15 19.7276V19.8276ZM13.5 19.8276V19.7276C13.1686 19.7276 12.9 19.9963 12.9 20.3276H13H13.1C13.1 20.1067 13.2791 19.9276 13.5 19.9276V19.8276ZM13.5 22.3276V22.2276C13.2791 22.2276 13.1 22.0485 13.1 21.8276H13H12.9C12.9 22.159 13.1686 22.4276 13.5 22.4276V22.3276ZM15 22.3276V22.4276C15.3314 22.4276 15.6 22.159 15.6 21.8276H15.5H15.4C15.4 22.0485 15.2209 22.2276 15 22.2276V22.3276ZM15 25.3276V25.2276H13.5V25.3276V25.4276H15V25.3276ZM13.5 22.8276V22.9276H15V22.8276V22.7276H13.5V22.8276ZM15.5 24.8276H15.6V23.3276H15.5H15.4V24.8276H15.5ZM13 23.3276H12.9V24.8276H13H13.1V23.3276H13ZM15 22.8276V22.9276C15.2209 22.9276 15.4 23.1067 15.4 23.3276H15.5H15.6C15.6 22.9963 15.3314 22.7276 15 22.7276V22.8276ZM13.5 22.8276V22.7276C13.1686 22.7276 12.9 22.9963 12.9 23.3276H13H13.1C13.1 23.1067 13.2791 22.9276 13.5 22.9276V22.8276ZM13.5 25.3276V25.2276C13.2791 25.2276 13.1 25.0485 13.1 24.8276H13H12.9C12.9 25.159 13.1686 25.4276 13.5 25.4276V25.3276ZM15 25.3276V25.4276C15.3314 25.4276 15.6 25.159 15.6 24.8276H15.5H15.4C15.4 25.0485 15.2209 25.2276 15 25.2276V25.3276Z" fill="white" mask="url(#path-1-inside-1_695_806)"/>
</svg>
