<svg width="56" height="56" viewBox="0 0 56 56" fill="none" xmlns="http://www.w3.org/2000/svg">
<g clip-path="url(#clip0_712_622)">
<path d="M42.7636 0H13.2364C5.92612 0 0 5.92613 0 13.2364V42.7636C0 50.0739 5.92612 56 13.2364 56H42.7636C50.0739 56 56 50.0739 56 42.7636V13.2364C56 5.92613 50.0739 0 42.7636 0Z" fill="#768CFF"/>
<mask id="mask0_712_622" style="mask-type:luminance" maskUnits="userSpaceOnUse" x="9" y="10" width="38" height="36">
<path d="M46.5 10.5552H9.5V45.4446H46.5V10.5552Z" fill="white"/>
</mask>
<g mask="url(#mask0_712_622)">
<path d="M10.6618 32.8251C9.09767 31.5041 9.11566 29.0376 10.6989 27.7409L23.6255 17.1544C26.1781 15.0638 29.7978 15.0638 32.3505 17.1544L45.3011 27.7607C46.8765 29.0508 46.9036 31.5021 45.357 32.8287L32.5978 43.7736C30.0159 45.9883 26.2664 46.0032 23.668 43.8088L10.6618 32.8251Z" fill="#D9D9D9"/>
<path d="M46.5 25.2256V30.4919H9.5V25.2256H46.5Z" fill="#D9D9D9"/>
<path d="M10.6616 28.0381C9.09742 26.6985 9.11541 24.1971 10.6987 22.882L23.6252 12.1454C26.1778 10.0251 29.7976 10.0251 32.3503 12.1454L45.3009 22.9019C46.8763 24.2105 46.9033 26.6964 45.3567 28.0419L32.5975 39.1419C30.0156 41.388 26.2662 41.403 23.6677 39.1776L10.6616 28.0381Z" fill="white"/>
<path d="M23.2976 21.4681L27.0658 15.2308C27.3535 14.7547 27.9863 14.6343 28.4261 14.972L29.5746 15.854C29.9518 16.1436 30.0534 16.6727 29.8109 17.0836L26.6407 22.4537C26.4966 22.6979 26.5451 23.011 26.7563 23.199C26.9945 23.411 27.3567 23.3928 27.5728 23.158L31.7688 18.5983C32.0908 18.2485 32.6214 18.1975 33.0029 18.4799L34.2725 19.4193C34.7266 19.7553 34.7839 20.4177 34.3945 20.8281L30.2935 25.1492C30.0601 25.3951 30.0793 25.7884 30.3355 26.0099C30.5381 26.1852 30.8323 26.2007 31.052 26.0477L36.713 22.1055C37.0578 21.8655 37.5189 21.8869 37.8403 22.1581L39.0453 23.1749C39.5222 23.5772 39.4825 24.3288 38.966 24.6778L32.393 29.1183C32.053 29.348 31.6043 29.327 31.2868 29.0667L23.5057 22.6874C23.1438 22.3907 23.0549 21.8698 23.2976 21.4681Z" fill="black"/>
<path d="M21.6611 19.2804L20.6701 18.4587C20.2863 18.1404 19.7287 18.1833 19.4341 18.5869C17.9471 20.6243 14.34 26.7719 20.148 32.2083C27.1559 38.7678 34.134 34.6716 36.5008 32.4998C36.8879 32.1447 36.8109 31.5499 36.3906 31.2355L35.0666 30.2449C34.7102 29.9784 34.2195 30.0074 33.8657 30.2773C27.3629 35.2392 16.6261 29.0422 21.8466 20.5788C22.1069 20.1569 22.0415 19.5959 21.6611 19.2804Z" fill="black"/>
</g>
</g>
<defs>
<clipPath id="clip0_712_622">
<rect width="56" height="56" fill="white"/>
</clipPath>
</defs>
</svg>
