<svg width="56" height="56" viewBox="0 0 56 56" fill="none" xmlns="http://www.w3.org/2000/svg">
<g clip-path="url(#clip0_712_623)">
<path d="M42.7636 0H13.2364C5.92612 0 0 5.92613 0 13.2364V42.7636C0 50.0739 5.92612 56 13.2364 56H42.7636C50.0739 56 56 50.0739 56 42.7636V13.2364C56 5.92613 50.0739 0 42.7636 0Z" fill="#768CFF"/>
<path d="M9.768 34V32.736C9.768 31.9573 9.90133 31.3173 10.168 30.816C10.4347 30.3147 10.8133 29.9093 11.304 29.6C11.8053 29.28 12.408 29.0133 13.112 28.8L14.088 28.496C14.5253 28.3573 14.8987 28.1867 15.208 27.984C15.528 27.7813 15.7733 27.5307 15.944 27.232C16.1147 26.9227 16.2 26.5653 16.2 26.16V26.096C16.2 25.4667 15.9867 24.976 15.56 24.624C15.1333 24.2613 14.5733 24.08 13.88 24.08C13.1653 24.08 12.584 24.272 12.136 24.656C11.6987 25.04 11.48 25.6053 11.48 26.352V26.608H9.816V26.368C9.816 25.5573 9.992 24.8747 10.344 24.32C10.696 23.7547 11.1813 23.3227 11.8 23.024C12.4187 22.7253 13.112 22.576 13.88 22.576C14.648 22.576 15.3307 22.72 15.928 23.008C16.536 23.296 17.0107 23.7013 17.352 24.224C17.704 24.7467 17.88 25.36 17.88 26.064V26.208C17.88 26.9333 17.736 27.536 17.448 28.016C17.16 28.496 16.76 28.8907 16.248 29.2C15.7467 29.5093 15.1653 29.7707 14.504 29.984L13.56 30.272C13.0587 30.4213 12.6533 30.5867 12.344 30.768C12.0453 30.9387 11.8213 31.1467 11.672 31.392C11.5333 31.6373 11.464 31.952 11.464 32.336V32.496H17.784V34H9.768ZM23.0745 34.224C21.7732 34.224 20.7332 33.856 19.9545 33.12C19.1865 32.3733 18.8025 31.2533 18.8025 29.76V27.04C18.8025 25.5787 19.1865 24.4693 19.9545 23.712C20.7332 22.9547 21.7732 22.576 23.0745 22.576C24.3865 22.576 25.4265 22.9547 26.1945 23.712C26.9732 24.4693 27.3625 25.5787 27.3625 27.04V29.76C27.3625 31.2533 26.9732 32.3733 26.1945 33.12C25.4265 33.856 24.3865 34.224 23.0745 34.224ZM23.0745 32.72C23.9598 32.72 24.6158 32.4693 25.0425 31.968C25.4692 31.456 25.6825 30.7413 25.6825 29.824V26.944C25.6825 26.0267 25.4532 25.3227 24.9945 24.832C24.5358 24.3307 23.8958 24.08 23.0745 24.08C22.2425 24.08 21.6025 24.336 21.1545 24.848C20.7065 25.3493 20.4825 26.048 20.4825 26.944V29.824C20.4825 30.7627 20.6958 31.4827 21.1225 31.984C21.5598 32.4747 22.2105 32.72 23.0745 32.72ZM28.363 34V32.736C28.363 31.9573 28.4963 31.3173 28.763 30.816C29.0297 30.3147 29.4083 29.9093 29.899 29.6C30.4003 29.28 31.003 29.0133 31.707 28.8L32.683 28.496C33.1203 28.3573 33.4937 28.1867 33.803 27.984C34.123 27.7813 34.3683 27.5307 34.539 27.232C34.7097 26.9227 34.795 26.5653 34.795 26.16V26.096C34.795 25.4667 34.5817 24.976 34.155 24.624C33.7283 24.2613 33.1683 24.08 32.475 24.08C31.7603 24.08 31.179 24.272 30.731 24.656C30.2937 25.04 30.075 25.6053 30.075 26.352V26.608H28.411V26.368C28.411 25.5573 28.587 24.8747 28.939 24.32C29.291 23.7547 29.7763 23.3227 30.395 23.024C31.0137 22.7253 31.707 22.576 32.475 22.576C33.243 22.576 33.9257 22.72 34.523 23.008C35.131 23.296 35.6057 23.7013 35.947 24.224C36.299 24.7467 36.475 25.36 36.475 26.064V26.208C36.475 26.9333 36.331 27.536 36.043 28.016C35.755 28.496 35.355 28.8907 34.843 29.2C34.3417 29.5093 33.7603 29.7707 33.099 29.984L32.155 30.272C31.6537 30.4213 31.2483 30.5867 30.939 30.768C30.6403 30.9387 30.4163 31.1467 30.267 31.392C30.1283 31.6373 30.059 31.952 30.059 32.336V32.496H36.379V34H28.363ZM41.3495 34.224C40.5068 34.224 39.7762 34.0693 39.1575 33.76C38.5388 33.4507 38.0588 33.0133 37.7175 32.448C37.3868 31.8827 37.2215 31.2267 37.2215 30.48V30.304H38.9335V30.464C38.9335 31.1467 39.1415 31.696 39.5575 32.112C39.9842 32.5173 40.5762 32.72 41.3335 32.72C42.1122 32.72 42.7148 32.5067 43.1415 32.08C43.5682 31.6533 43.7815 31.0773 43.7815 30.352V30.208C43.7815 29.5147 43.5682 28.96 43.1415 28.544C42.7255 28.128 42.1922 27.92 41.5415 27.92C41.1788 27.92 40.8748 27.9787 40.6295 28.096C40.3948 28.2027 40.2028 28.336 40.0535 28.496C39.9148 28.656 39.7975 28.8107 39.7015 28.96H37.5735V22.8H45.0775V24.32H39.2535V27.616H39.5095C39.6162 27.4347 39.7655 27.264 39.9575 27.104C40.1602 26.9333 40.4215 26.7947 40.7415 26.688C41.0615 26.5813 41.4455 26.528 41.8935 26.528C42.5548 26.528 43.1522 26.672 43.6855 26.96C44.2295 27.2373 44.6615 27.6533 44.9815 28.208C45.3015 28.752 45.4615 29.4133 45.4615 30.192V30.368C45.4615 31.1467 45.2962 31.824 44.9655 32.4C44.6348 32.976 44.1602 33.424 43.5415 33.744C42.9335 34.064 42.2028 34.224 41.3495 34.224Z" fill="white"/>
</g>
<defs>
<clipPath id="clip0_712_623">
<rect width="56" height="56" fill="white"/>
</clipPath>
</defs>
</svg>
