<svg width="56" height="56" viewBox="0 0 56 56" fill="none" xmlns="http://www.w3.org/2000/svg">
<g clip-path="url(#clip0_623_4425)">
<path d="M42.7636 0H13.2364C5.92612 0 0 5.92613 0 13.2364V42.7636C0 50.0739 5.92612 56 13.2364 56H42.7636C50.0739 56 56 50.0739 56 42.7636V13.2364C56 5.92613 50.0739 0 42.7636 0Z" fill="#768CFF"/>
<path d="M10.2285 24C11.1988 24 12.05 24.1825 12.7821 24.5474C13.5231 24.9123 14.092 25.4342 14.489 26.1132C14.8947 26.7836 15.0976 27.5644 15.0976 28.4554C15.0976 29.3465 14.8947 30.1273 14.489 30.7977C14.092 31.4597 13.5231 31.9731 12.7821 32.338C12.05 32.703 11.1988 32.8854 10.2285 32.8854H7V24H10.2285ZM10.1623 31.3706C11.1326 31.3706 11.8824 31.116 12.4116 30.6068C12.9409 30.0976 13.2055 29.3805 13.2055 28.4554C13.2055 27.5304 12.9409 26.8091 12.4116 26.2914C11.8824 25.7652 11.1326 25.5021 10.1623 25.5021H8.8524V31.3706H10.1623Z" fill="white"/>
<path d="M16.0079 29.3338C16.0079 28.6209 16.1534 27.9887 16.4445 27.4371C16.7444 26.8854 17.1458 26.4611 17.6486 26.1641C18.1602 25.867 18.7292 25.7185 19.3554 25.7185C19.9023 25.7185 20.3787 25.8246 20.7844 26.0368C21.199 26.2489 21.5298 26.5163 21.7768 26.8388V25.8331H23.6424V32.8854H21.7768V31.8543C21.5386 32.1853 21.2078 32.4611 20.7844 32.6818C20.3699 32.8939 19.8891 33 19.3422 33C18.7247 33 18.1602 32.8472 17.6486 32.5417C17.1458 32.2362 16.7444 31.8076 16.4445 31.256C16.1534 30.6959 16.0079 30.0552 16.0079 29.3338ZM21.7768 29.3593C21.7768 28.9264 21.6886 28.5573 21.5122 28.2518C21.3357 27.9378 21.0976 27.7001 20.7977 27.5389C20.4978 27.3692 20.1758 27.2843 19.8318 27.2843C19.4878 27.2843 19.1702 27.3649 18.8791 27.5262C18.588 27.6874 18.3499 27.925 18.1646 28.239C17.9882 28.5446 17.9 28.9095 17.9 29.3338C17.9 29.7581 17.9882 30.1315 18.1646 30.454C18.3499 30.768 18.588 31.0099 18.8791 31.1796C19.179 31.3494 19.4966 31.4342 19.8318 31.4342C20.1758 31.4342 20.4978 31.3536 20.7977 31.1924C21.0976 31.0226 21.3357 30.785 21.5122 30.4795C21.6886 30.1655 21.7768 29.7921 21.7768 29.3593Z" fill="white"/>
<path d="M28.2567 33C27.6568 33 27.1188 32.8982 26.6424 32.6945C26.1661 32.4823 25.7868 32.198 25.5045 31.8416C25.2311 31.4851 25.0811 31.0905 25.0547 30.6577H26.9203C26.9556 30.9293 27.0923 31.1542 27.3305 31.3324C27.5775 31.5106 27.8818 31.5997 28.2434 31.5997C28.5963 31.5997 28.8697 31.5318 29.0638 31.396C29.2667 31.2603 29.3681 31.0863 29.3681 30.8741C29.3681 30.645 29.2446 30.4752 28.9976 30.3649C28.7595 30.2461 28.3757 30.1188 27.8465 29.983C27.2996 29.8557 26.8497 29.7242 26.4969 29.5884C26.1529 29.4526 25.853 29.2447 25.5972 28.9646C25.3502 28.6846 25.2267 28.3069 25.2267 27.8317C25.2267 27.4413 25.3413 27.0849 25.5707 26.7624C25.8089 26.4399 26.1441 26.1853 26.5763 25.9986C27.0173 25.8119 27.5333 25.7185 28.1244 25.7185C28.9976 25.7185 29.6945 25.9307 30.2149 26.355C30.7353 26.7709 31.022 27.3352 31.075 28.0481H29.3019C29.2755 27.768 29.152 27.5474 28.9315 27.3861C28.7198 27.2164 28.4331 27.1315 28.0714 27.1315C27.7362 27.1315 27.476 27.1909 27.2908 27.3098C27.1144 27.4286 27.0261 27.5941 27.0261 27.8062C27.0261 28.0438 27.1496 28.2263 27.3966 28.3536C27.6436 28.4724 28.0273 28.5955 28.5478 28.7228C29.077 28.8501 29.5136 28.9816 29.8577 29.1174C30.2017 29.2532 30.4972 29.4653 30.7442 29.7539C31 30.0339 31.1323 30.4074 31.1411 30.8741C31.1411 31.2815 31.022 31.6464 30.7839 31.9689C30.5545 32.2914 30.2193 32.546 29.7783 32.7327C29.3461 32.9109 28.8388 33 28.2567 33Z" fill="white"/>
<path d="M34.8184 27.297V30.7086C34.8184 30.9463 34.8757 31.1202 34.9904 31.2306C35.1139 31.3324 35.3168 31.3833 35.5991 31.3833H36.4591V32.8854H35.2947C33.7334 32.8854 32.9528 32.1556 32.9528 30.6959V27.297H32.0795V25.8331H32.9528V24.0891H34.8184V25.8331H36.4591V27.297H34.8184Z" fill="white"/>
<path d="M39.9482 27.297V30.7086C39.9482 30.9463 40.0055 31.1202 40.1202 31.2306C40.2437 31.3324 40.4465 31.3833 40.7288 31.3833H41.5889V32.8854H40.4245C38.8632 32.8854 38.0825 32.1556 38.0825 30.6959V27.297H37.2093V25.8331H38.0825V24.0891H39.9482V25.8331H41.5889V27.297H39.9482Z" fill="white"/>
<path d="M46.1761 33C45.4704 33 44.8353 32.8515 44.2708 32.5545C43.7063 32.2489 43.2608 31.8204 42.9344 31.2687C42.6169 30.7171 42.4581 30.0806 42.4581 29.3593C42.4581 28.6379 42.6213 28.0014 42.9477 27.4498C43.2829 26.8982 43.7371 26.4738 44.3105 26.1768C44.8839 25.8713 45.5234 25.7185 46.229 25.7185C46.9347 25.7185 47.5742 25.8713 48.1476 26.1768C48.721 26.4738 49.1708 26.8982 49.4972 27.4498C49.8324 28.0014 50 28.6379 50 29.3593C50 30.0806 49.828 30.7171 49.484 31.2687C49.1488 31.8204 48.6901 32.2489 48.1079 32.5545C47.5345 32.8515 46.8906 33 46.1761 33ZM46.1761 31.447C46.5113 31.447 46.8245 31.3706 47.1156 31.2178C47.4155 31.0566 47.6536 30.819 47.83 30.505C48.0065 30.1909 48.0947 29.8091 48.0947 29.3593C48.0947 28.6888 47.9094 28.1754 47.539 27.819C47.1773 27.454 46.7318 27.2716 46.2026 27.2716C45.6733 27.2716 45.2279 27.454 44.8662 27.819C44.5134 28.1754 44.337 28.6888 44.337 29.3593C44.337 30.0297 44.509 30.5474 44.853 30.9123C45.2058 31.2687 45.6469 31.447 46.1761 31.447Z" fill="white"/>
</g>
<defs>
<clipPath id="clip0_623_4425">
<rect width="56" height="56" fill="white"/>
</clipPath>
</defs>
</svg>
