<svg width="56" height="56" viewBox="0 0 56 56" fill="none" xmlns="http://www.w3.org/2000/svg">
<rect width="56" height="56" rx="12" fill="black"/>
<path d="M16.5502 16.2714C16.3995 15.6186 16.9185 15 17.6168 15H20.4448C20.9573 15 21.4009 15.3411 21.5115 15.8201L23.9382 26.3353C24.0186 26.6835 24.341 26.9314 24.7135 26.9314C25.152 26.9314 25.5075 26.5911 25.5075 26.1714V16.0457C25.5075 15.4682 25.9966 15 26.5999 15H29.3612C29.9646 15 30.4536 15.4682 30.4536 16.0457V26.1507C30.4536 26.5819 30.8188 26.9314 31.2692 26.9314C31.6518 26.9314 31.9829 26.6768 32.0655 26.3191L34.4885 15.8201C34.5991 15.3411 35.0427 15 35.5552 15H38.3832C39.0815 15 39.6005 15.6186 39.4498 16.2714L36.6126 28.5584C36.502 29.0374 36.0584 29.3784 35.546 29.3784H20.454C19.9416 29.3784 19.498 29.0374 19.3874 28.5584L16.5502 16.2714Z" fill="url(#paint0_linear_756_672)"/>
<path d="M16.5502 16.2714C16.3995 15.6186 16.9185 15 17.6168 15H20.4448C20.9573 15 21.4009 15.3411 21.5115 15.8201L23.9382 26.3353C24.0186 26.6835 24.341 26.9314 24.7135 26.9314C25.152 26.9314 25.5075 26.5911 25.5075 26.1714V16.0457C25.5075 15.4682 25.9966 15 26.5999 15H29.3612C29.9646 15 30.4536 15.4682 30.4536 16.0457V26.1507C30.4536 26.5819 30.8188 26.9314 31.2692 26.9314C31.6518 26.9314 31.9829 26.6768 32.0655 26.3191L34.4885 15.8201C34.5991 15.3411 35.0427 15 35.5552 15H38.3832C39.0815 15 39.6005 15.6186 39.4498 16.2714L36.6126 28.5584C36.502 29.0374 36.0584 29.3784 35.546 29.3784H20.454C19.9416 29.3784 19.498 29.0374 19.3874 28.5584L16.5502 16.2714Z" fill="white"/>
<path d="M42.5363 27.1081C43.3814 27.1081 44.074 27.7873 43.9936 28.6194C43.6403 32.2796 42.0114 35.7234 39.3607 38.3454C36.3476 41.3257 32.2611 43 28 43C23.7389 43 19.6524 41.3257 16.6393 38.3454C13.9886 35.7234 12.3597 32.2796 12.0064 28.6194C11.926 27.7873 12.6186 27.1081 13.4637 27.1081L15.4022 27.1081C16.2472 27.1081 16.9214 27.789 17.0379 28.6169C17.3679 30.9629 18.4613 33.1551 20.174 34.8491C22.2496 36.9022 25.0647 38.0556 28 38.0556C30.9353 38.0556 33.7504 36.9022 35.826 34.8491C37.5387 33.1551 38.6321 30.9629 38.9621 28.6169C39.0786 27.789 39.7528 27.1081 40.5978 27.1081H42.5363Z" fill="url(#paint1_linear_756_672)"/>
<path d="M42.5363 27.1081C43.3814 27.1081 44.074 27.7873 43.9936 28.6194C43.6403 32.2796 42.0114 35.7234 39.3607 38.3454C36.3476 41.3257 32.2611 43 28 43C23.7389 43 19.6524 41.3257 16.6393 38.3454C13.9886 35.7234 12.3597 32.2796 12.0064 28.6194C11.926 27.7873 12.6186 27.1081 13.4637 27.1081L15.4022 27.1081C16.2472 27.1081 16.9214 27.789 17.0379 28.6169C17.3679 30.9629 18.4613 33.1551 20.174 34.8491C22.2496 36.9022 25.0647 38.0556 28 38.0556C30.9353 38.0556 33.7504 36.9022 35.826 34.8491C37.5387 33.1551 38.6321 30.9629 38.9621 28.6169C39.0786 27.789 39.7528 27.1081 40.5978 27.1081H42.5363Z" fill="white"/>
<defs>
<linearGradient id="paint0_linear_756_672" x1="28" y1="15" x2="28" y2="43" gradientUnits="userSpaceOnUse">
<stop stop-color="#5A7FDE"/>
<stop offset="1" stop-color="#9CBAFF"/>
</linearGradient>
<linearGradient id="paint1_linear_756_672" x1="28" y1="15" x2="28" y2="43" gradientUnits="userSpaceOnUse">
<stop stop-color="#5A7FDE"/>
<stop offset="1" stop-color="#9CBAFF"/>
</linearGradient>
</defs>
</svg>
