<svg width="33" height="27" viewBox="0 0 33 27" fill="none" xmlns="http://www.w3.org/2000/svg">
<path d="M22.5 3.32764C22.5 3.05149 22.7239 2.82764 23 2.82764H24C24.2761 2.82764 24.5 3.05149 24.5 3.32764V4.32764C24.5 4.60378 24.2761 4.82764 24 4.82764H23C22.7239 4.82764 22.5 4.60378 22.5 4.32764V3.32764Z" fill="black"/>
<path d="M0.5 3.32764C0.5 3.05149 0.723858 2.82764 1 2.82764H2C2.27614 2.82764 2.5 3.05149 2.5 3.32764V4.32764C2.5 4.60378 2.27614 4.82764 2 4.82764H1C0.723858 4.82764 0.5 4.60378 0.5 4.32764V3.32764Z" fill="black"/>
<path d="M3 2.82764C2.72386 2.82764 2.5 2.60378 2.5 2.32764V1.32764C2.5 1.05149 2.72386 0.827637 3 0.827637L4 0.827637C4.27614 0.827637 4.5 1.05149 4.5 1.32764V2.32764C4.5 2.60378 4.27614 2.82764 4 2.82764H3Z" fill="black"/>
<path d="M3 25.8276C2.72386 25.8276 2.5 25.6038 2.5 25.3276V24.3276C2.5 24.0515 2.72386 23.8276 3 23.8276H4C4.27614 23.8276 4.5 24.0515 4.5 24.3276V25.3276C4.5 25.6038 4.27614 25.8276 4 25.8276H3Z" fill="black"/>
<path d="M22.5 17.3276C22.5 17.0515 22.7239 16.8276 23 16.8276H24C24.2761 16.8276 24.5 17.0515 24.5 17.3276V18.3276C24.5 18.6038 24.2761 18.8276 24 18.8276H23C22.7239 18.8276 22.5 18.6038 22.5 18.3276V17.3276Z" fill="black"/>
<path d="M30.5 17.3276C30.5 17.0515 30.7239 16.8276 31 16.8276H32C32.2761 16.8276 32.5 17.0515 32.5 17.3276V18.3276C32.5 18.6038 32.2761 18.8276 32 18.8276H31C30.7239 18.8276 30.5 18.6038 30.5 18.3276V17.3276Z" fill="black"/>
<path d="M0.5 17.3276C0.5 17.0515 0.723858 16.8276 1 16.8276H2C2.27614 16.8276 2.5 17.0515 2.5 17.3276V18.3276C2.5 18.6038 2.27614 18.8276 2 18.8276H1C0.723858 18.8276 0.5 18.6038 0.5 18.3276V17.3276Z" fill="black"/>
<path d="M22.5 11.3276C22.5 11.0515 22.7239 10.8276 23 10.8276H24C24.2761 10.8276 24.5 11.0515 24.5 11.3276V12.3276C24.5 12.6038 24.2761 12.8276 24 12.8276H23C22.7239 12.8276 22.5 12.6038 22.5 12.3276V11.3276Z" fill="black"/>
<path d="M28.5 11.3276C28.5 11.0515 28.7239 10.8276 29 10.8276H30C30.2761 10.8276 30.5 11.0515 30.5 11.3276V12.3276C30.5 12.6038 30.2761 12.8276 30 12.8276H29C28.7239 12.8276 28.5 12.6038 28.5 12.3276V11.3276Z" fill="black"/>
<path d="M26.5 11.3276C26.5 11.0515 26.7239 10.8276 27 10.8276H28C28.2761 10.8276 28.5 11.0515 28.5 11.3276V12.3276C28.5 12.6038 28.2761 12.8276 28 12.8276H27C26.7239 12.8276 26.5 12.6038 26.5 12.3276V11.3276Z" fill="black"/>
<path d="M0.5 11.3276C0.5 11.0515 0.723858 10.8276 1 10.8276H2C2.27614 10.8276 2.5 11.0515 2.5 11.3276V12.3276C2.5 12.6038 2.27614 12.8276 2 12.8276H1C0.723858 12.8276 0.5 12.6038 0.5 12.3276V11.3276Z" fill="black"/>
<path d="M12 2.82764C11.7239 2.82764 11.5 2.60378 11.5 2.32764V1.32764C11.5 1.05149 11.7239 0.827637 12 0.827637L14 0.827637C14.2761 0.827637 14.5 1.05149 14.5 1.32764V2.32764C14.5 2.60378 14.2761 2.82764 14 2.82764H12Z" fill="black"/>
<path d="M12 26.8276C11.7239 26.8276 11.5 26.6038 11.5 26.3276V25.3276C11.5 25.0515 11.7239 24.8276 12 24.8276H14C14.2761 24.8276 14.5 25.0515 14.5 25.3276V26.3276C14.5 26.6038 14.2761 26.8276 14 26.8276H12Z" fill="black"/>
<path d="M21.5 7.32764C21.5 7.05149 21.7239 6.82764 22 6.82764H23C23.2761 6.82764 23.5 7.05149 23.5 7.32764V8.32764C23.5 8.60378 23.2761 8.82764 23 8.82764H22C21.7239 8.82764 21.5 8.60378 21.5 8.32764V7.32764Z" fill="black"/>
<path d="M3.5 8.32764C3.5 8.05149 3.72386 7.82764 4 7.82764H21C21.2761 7.82764 21.5 8.05149 21.5 8.32764V9.32764C21.5 9.60378 21.2761 9.82764 21 9.82764H4C3.72386 9.82764 3.5 9.60378 3.5 9.32764V8.32764Z" fill="black"/>
<path d="M1.5 7.32764C1.5 7.05149 1.72386 6.82764 2 6.82764H3C3.27614 6.82764 3.5 7.05149 3.5 7.32764V8.32764C3.5 8.60378 3.27614 8.82764 3 8.82764H2C1.72386 8.82764 1.5 8.60378 1.5 8.32764V7.32764Z" fill="black"/>
<path d="M8 2.82764C7.72386 2.82764 7.5 2.60378 7.5 2.32764V1.32764C7.5 1.05149 7.72386 0.827637 8 0.827637L9 0.827637C9.27614 0.827637 9.5 1.05149 9.5 1.32764V2.32764C9.5 2.60378 9.27614 2.82764 9 2.82764H8Z" fill="black"/>
<path d="M8 26.8276C7.72386 26.8276 7.5 26.6038 7.5 26.3276V25.3276C7.5 25.0515 7.72386 24.8276 8 24.8276H9C9.27614 24.8276 9.5 25.0515 9.5 25.3276V26.3276C9.5 26.6038 9.27614 26.8276 9 26.8276H8Z" fill="black"/>
<path d="M22.5 5.32764C22.5 5.05149 22.7239 4.82764 23 4.82764H24C24.2761 4.82764 24.5 5.05149 24.5 5.32764V6.32764C24.5 6.60378 24.2761 6.82764 24 6.82764H23C22.7239 6.82764 22.5 6.60378 22.5 6.32764V5.32764Z" fill="black"/>
<path d="M0.5 5.32764C0.5 5.05149 0.723858 4.82764 1 4.82764H2C2.27614 4.82764 2.5 5.05149 2.5 5.32764V6.32764C2.5 6.60378 2.27614 6.82764 2 6.82764H1C0.723858 6.82764 0.5 6.60378 0.5 6.32764V5.32764Z" fill="black"/>
<path d="M5 2.82764C4.72386 2.82764 4.5 2.60378 4.5 2.32764V1.32764C4.5 1.05149 4.72386 0.827637 5 0.827637L7 0.827637C7.27614 0.827637 7.5 1.05149 7.5 1.32764V2.32764C7.5 2.60378 7.27614 2.82764 7 2.82764H5Z" fill="black"/>
<path d="M5 26.8276C4.72386 26.8276 4.5 26.6038 4.5 26.3276V25.3276C4.5 25.0515 4.72386 24.8276 5 24.8276H7C7.27614 24.8276 7.5 25.0515 7.5 25.3276V26.3276C7.5 26.6038 7.27614 26.8276 7 26.8276H5Z" fill="black"/>
<path d="M22.5 21.3276C22.5 21.0515 22.7239 20.8276 23 20.8276H24C24.2761 20.8276 24.5 21.0515 24.5 21.3276V22.3276C24.5 22.6038 24.2761 22.8276 24 22.8276H23C22.7239 22.8276 22.5 22.6038 22.5 22.3276V21.3276Z" fill="black"/>
<path d="M0.5 21.3276C0.5 21.0515 0.723858 20.8276 1 20.8276H2C2.27614 20.8276 2.5 21.0515 2.5 21.3276V22.3276C2.5 22.6038 2.27614 22.8276 2 22.8276H1C0.723858 22.8276 0.5 22.6038 0.5 22.3276V21.3276Z" fill="black"/>
<path d="M22.5 15.3276C22.5 15.0515 22.7239 14.8276 23 14.8276H24C24.2761 14.8276 24.5 15.0515 24.5 15.3276V16.3276C24.5 16.6038 24.2761 16.8276 24 16.8276H23C22.7239 16.8276 22.5 16.6038 22.5 16.3276V15.3276Z" fill="black"/>
<path d="M30.5 15.3276C30.5 15.0515 30.7239 14.8276 31 14.8276H32C32.2761 14.8276 32.5 15.0515 32.5 15.3276V16.3276C32.5 16.6038 32.2761 16.8276 32 16.8276H31C30.7239 16.8276 30.5 16.6038 30.5 16.3276V15.3276Z" fill="black"/>
<path d="M0.5 15.3276C0.5 15.0515 0.723858 14.8276 1 14.8276H2C2.27614 14.8276 2.5 15.0515 2.5 15.3276V16.3276C2.5 16.6038 2.27614 16.8276 2 16.8276H1C0.723858 16.8276 0.5 16.6038 0.5 16.3276V15.3276Z" fill="black"/>
<path d="M17 2.82764C16.7239 2.82764 16.5 2.60378 16.5 2.32764V1.32764C16.5 1.05149 16.7239 0.827637 17 0.827637L19 0.827637C19.2761 0.827637 19.5 1.05149 19.5 1.32764V2.32764C19.5 2.60378 19.2761 2.82764 19 2.82764H17Z" fill="black"/>
<path d="M17 26.8276C16.7239 26.8276 16.5 26.6038 16.5 26.3276V25.3276C16.5 25.0515 16.7239 24.8276 17 24.8276H20C20.2761 24.8276 20.5 25.0515 20.5 25.3276V26.3276C20.5 26.6038 20.2761 26.8276 20 26.8276H17Z" fill="black"/>
<path d="M22.5 19.3276C22.5 19.0515 22.7239 18.8276 23 18.8276H24C24.2761 18.8276 24.5 19.0515 24.5 19.3276V20.3276C24.5 20.6038 24.2761 20.8276 24 20.8276H23C22.7239 20.8276 22.5 20.6038 22.5 20.3276V19.3276Z" fill="black"/>
<path d="M28.5 19.3276C28.5 19.0515 28.7239 18.8276 29 18.8276H30C30.2761 18.8276 30.5 19.0515 30.5 19.3276V20.3276C30.5 20.6038 30.2761 20.8276 30 20.8276H29C28.7239 20.8276 28.5 20.6038 28.5 20.3276V19.3276Z" fill="black"/>
<path d="M26.5 19.3276C26.5 19.0515 26.7239 18.8276 27 18.8276H28C28.2761 18.8276 28.5 19.0515 28.5 19.3276V20.3276C28.5 20.6038 28.2761 20.8276 28 20.8276H27C26.7239 20.8276 26.5 20.6038 26.5 20.3276V19.3276Z" fill="black"/>
<path d="M0.5 19.3276C0.5 19.0515 0.723858 18.8276 1 18.8276H2C2.27614 18.8276 2.5 19.0515 2.5 19.3276V20.3276C2.5 20.6038 2.27614 20.8276 2 20.8276H1C0.723858 20.8276 0.5 20.6038 0.5 20.3276V19.3276Z" fill="black"/>
<path d="M22.5 13.3276C22.5 13.0515 22.7239 12.8276 23 12.8276H24C24.2761 12.8276 24.5 13.0515 24.5 13.3276V14.3276C24.5 14.6038 24.2761 14.8276 24 14.8276H23C22.7239 14.8276 22.5 14.6038 22.5 14.3276V13.3276Z" fill="black"/>
<path d="M30.5 13.3276C30.5 13.0515 30.7239 12.8276 31 12.8276H32C32.2761 12.8276 32.5 13.0515 32.5 13.3276V14.3276C32.5 14.6038 32.2761 14.8276 32 14.8276H31C30.7239 14.8276 30.5 14.6038 30.5 14.3276V13.3276Z" fill="black"/>
<path d="M0.5 13.3276C0.5 13.0515 0.723858 12.8276 1 12.8276H2C2.27614 12.8276 2.5 13.0515 2.5 13.3276V14.3276C2.5 14.6038 2.27614 14.8276 2 14.8276H1C0.723858 14.8276 0.5 14.6038 0.5 14.3276V13.3276Z" fill="black"/>
<path d="M15 2.82764C14.7239 2.82764 14.5 2.60378 14.5 2.32764V1.32764C14.5 1.05149 14.7239 0.827637 15 0.827637L16 0.827637C16.2761 0.827637 16.5 1.05149 16.5 1.32764V2.32764C16.5 2.60378 16.2761 2.82764 16 2.82764H15Z" fill="black"/>
<path d="M15 26.8276C14.7239 26.8276 14.5 26.6038 14.5 26.3276V25.3276C14.5 25.0515 14.7239 24.8276 15 24.8276H16C16.2761 24.8276 16.5 25.0515 16.5 25.3276V26.3276C16.5 26.6038 16.2761 26.8276 16 26.8276H15Z" fill="black"/>
<path d="M22.5 9.32764C22.5 9.05149 22.7239 8.82764 23 8.82764H24C24.2761 8.82764 24.5 9.05149 24.5 9.32764V10.3276C24.5 10.6038 24.2761 10.8276 24 10.8276H23C22.7239 10.8276 22.5 10.6038 22.5 10.3276V9.32764Z" fill="black"/>
<path d="M0.5 9.32764C0.5 9.05149 0.723858 8.82764 1 8.82764H2C2.27614 8.82764 2.5 9.05149 2.5 9.32764V10.3276C2.5 10.6038 2.27614 10.8276 2 10.8276H1C0.723858 10.8276 0.5 10.6038 0.5 10.3276V9.32764Z" fill="black"/>
<path d="M10 2.82764C9.72386 2.82764 9.5 2.60378 9.5 2.32764V1.32764C9.5 1.05149 9.72386 0.827637 10 0.827637H12C12.2761 0.827637 12.5 1.05149 12.5 1.32764V2.32764C12.5 2.60378 12.2761 2.82764 12 2.82764H10Z" fill="black"/>
<path d="M10 26.8276C9.72386 26.8276 9.5 26.6038 9.5 26.3276V25.3276C9.5 25.0515 9.72386 24.8276 10 24.8276H12C12.2761 24.8276 12.5 25.0515 12.5 25.3276V26.3276C12.5 26.6038 12.2761 26.8276 12 26.8276H10Z" fill="black"/>
<path d="M22.5 23.3276C22.5 23.0515 22.7239 22.8276 23 22.8276H24C24.2761 22.8276 24.5 23.0515 24.5 23.3276V24.3276C24.5 24.6038 24.2761 24.8276 24 24.8276H23C22.7239 24.8276 22.5 24.6038 22.5 24.3276V23.3276Z" fill="black"/>
<path d="M0.5 23.3276C0.5 23.0515 0.723858 22.8276 1 22.8276H2C2.27614 22.8276 2.5 23.0515 2.5 23.3276V24.3276C2.5 24.6038 2.27614 24.8276 2 24.8276H1C0.723858 24.8276 0.5 24.6038 0.5 24.3276V23.3276Z" fill="black"/>
<path d="M20 2.82764C19.7239 2.82764 19.5 2.60378 19.5 2.32764V1.32764C19.5 1.05149 19.7239 0.827637 20 0.827637L21 0.827637C21.2761 0.827637 21.5 1.05149 21.5 1.32764V2.32764C21.5 2.60378 21.2761 2.82764 21 2.82764H20Z" fill="black"/>
<path d="M21 25.8276C20.7239 25.8276 20.5 25.6038 20.5 25.3276V24.3276C20.5 24.0515 20.7239 23.8276 21 23.8276H22C22.2761 23.8276 22.5 24.0515 22.5 24.3276V25.3276C22.5 25.6038 22.2761 25.8276 22 25.8276H21Z" fill="black"/>
</svg>
