<svg width="40" height="27" viewBox="0 0 40 27" fill="none" xmlns="http://www.w3.org/2000/svg">
<path d="M30 23.9526C30 24.2288 30.2239 24.4526 30.5 24.4526H32C32.2761 24.4526 32.5 24.2288 32.5 23.9526V22.4526C32.5 22.1765 32.2761 21.9526 32 21.9526H30.5C30.2239 21.9526 30 22.1765 30 22.4526V23.9526Z" fill="black"/>
<path d="M32.5 21.4526C32.5 21.7288 32.7239 21.9526 33 21.9526H34.5C34.7761 21.9526 35 21.7288 35 21.4526V19.9526C35 19.6765 34.7761 19.4526 34.5 19.4526H33C32.7239 19.4526 32.5 19.6765 32.5 19.9526V21.4526Z" fill="black"/>
<path d="M20 18.9526C20 19.2288 20.2239 19.4526 20.5 19.4526H22C22.2761 19.4526 22.5 19.2288 22.5 18.9526V17.4526C22.5 17.1765 22.2761 16.9526 22 16.9526H20.5C20.2239 16.9526 20 17.1765 20 17.4526V18.9526Z" fill="black"/>
<path d="M10 20.2026C10 20.4788 10.2239 20.7026 10.5 20.7026H12C12.2761 20.7026 12.5 20.4788 12.5 20.2026V18.7026C12.5 18.4265 12.2761 18.2026 12 18.2026H10.5C10.2239 18.2026 10 18.4265 10 18.7026V20.2026Z" fill="black"/>
<path d="M16.25 13.9526C16.25 14.2288 16.4739 14.4526 16.75 14.4526H18.25C18.5261 14.4526 18.75 14.2288 18.75 13.9526V12.4526C18.75 12.1765 18.5261 11.9526 18.25 11.9526H16.75C16.4739 11.9526 16.25 12.1765 16.25 12.4526V13.9526Z" fill="black"/>
<path d="M20 3.95264C20 4.22878 20.2239 4.45264 20.5 4.45264H22C22.2761 4.45264 22.5 4.22878 22.5 3.95264V2.45264C22.5 2.17649 22.2761 1.95264 22 1.95264H20.5C20.2239 1.95264 20 2.17649 20 2.45264V3.95264Z" fill="black"/>
<path d="M35 20.2026C35 20.4788 35.2239 20.7026 35.5 20.7026H37C37.2761 20.7026 37.5 20.4788 37.5 20.2026V18.7026C37.5 18.4265 37.2761 18.2026 37 18.2026H35.5C35.2239 18.2026 35 18.4265 35 18.7026V20.2026Z" fill="black"/>
<path d="M22.5 17.7026C22.5 17.9788 22.7239 18.2026 23 18.2026H24.5C24.7761 18.2026 25 17.9788 25 17.7026V16.2026C25 15.9265 24.7761 15.7026 24.5 15.7026H23C22.7239 15.7026 22.5 15.9265 22.5 16.2026V17.7026Z" fill="black"/>
<path d="M12.5 18.9526C12.5 19.2288 12.7239 19.4526 13 19.4526H14.5C14.7761 19.4526 15 19.2288 15 18.9526V17.4526C15 17.1765 14.7761 16.9526 14.5 16.9526H13C12.7239 16.9526 12.5 17.1765 12.5 17.4526V18.9526Z" fill="black"/>
<path d="M22.5 10.2026C22.5 10.4788 22.7239 10.7026 23 10.7026H24.5C24.7761 10.7026 25 10.4788 25 10.2026V8.70264C25 8.42649 24.7761 8.20264 24.5 8.20264H23C22.7239 8.20264 22.5 8.42649 22.5 8.70264V10.2026Z" fill="black"/>
<path d="M25 12.7026C25 12.9788 25.2239 13.2026 25.5 13.2026H27C27.2761 13.2026 27.5 12.9788 27.5 12.7026V11.2026C27.5 10.9265 27.2761 10.7026 27 10.7026H25.5C25.2239 10.7026 25 10.9265 25 11.2026V12.7026Z" fill="black"/>
<path d="M27.5 15.2026C27.5 15.4788 27.7239 15.7026 28 15.7026H29.5C29.7761 15.7026 30 15.4788 30 15.2026V13.7026C30 13.4265 29.7761 13.2026 29.5 13.2026H28C27.7239 13.2026 27.5 13.4265 27.5 13.7026V15.2026Z" fill="black"/>
<path d="M30 17.7026C30 17.9788 30.2239 18.2026 30.5 18.2026H32C32.2761 18.2026 32.5 17.9788 32.5 17.7026V16.2026C32.5 15.9265 32.2761 15.7026 32 15.7026H30.5C30.2239 15.7026 30 15.9265 30 16.2026V17.7026Z" fill="black"/>
<path d="M20 6.45264C20 6.72878 20.2239 6.95264 20.5 6.95264H22C22.2761 6.95264 22.5 6.72878 22.5 6.45264V4.95264C22.5 4.67649 22.2761 4.45264 22 4.45264H20.5C20.2239 4.45264 20 4.67649 20 4.95264V6.45264Z" fill="black"/>
<path d="M25 5.20264C25 5.47878 25.2239 5.70264 25.5 5.70264H27C27.2761 5.70264 27.5 5.47878 27.5 5.20264V3.70264C27.5 3.42649 27.2761 3.20264 27 3.20264H25.5C25.2239 3.20264 25 3.42649 25 3.70264V5.20264Z" fill="black"/>
<path d="M27.5 7.70264C27.5 7.97878 27.7239 8.20264 28 8.20264H29.5C29.7761 8.20264 30 7.97878 30 7.70264V6.20264C30 5.92649 29.7761 5.70264 29.5 5.70264H28C27.7239 5.70264 27.5 5.92649 27.5 6.20264V7.70264Z" fill="black"/>
<path d="M30 10.2026C30 10.4788 30.2239 10.7026 30.5 10.7026H32C32.2761 10.7026 32.5 10.4788 32.5 10.2026V8.70264C32.5 8.42649 32.2761 8.20264 32 8.20264H30.5C30.2239 8.20264 30 8.42649 30 8.70264V10.2026Z" fill="black"/>
<path d="M32.5 12.7026C32.5 12.9788 32.7239 13.2026 33 13.2026H34.5C34.7761 13.2026 35 12.9788 35 12.7026V11.2026C35 10.9265 34.7761 10.7026 34.5 10.7026H33C32.7239 10.7026 32.5 10.9265 32.5 11.2026V12.7026Z" fill="black"/>
<path d="M35 15.2026C35 15.4788 35.2239 15.7026 35.5 15.7026H37C37.2761 15.7026 37.5 15.4788 37.5 15.2026V13.7026C37.5 13.4265 37.2761 13.2026 37 13.2026H35.5C35.2239 13.2026 35 13.4265 35 13.7026V15.2026Z" fill="black"/>
<path d="M37.5 17.7026C37.5 17.9788 37.7239 18.2026 38 18.2026H39.5C39.7761 18.2026 40 17.9788 40 17.7026V16.2026C40 15.9265 39.7761 15.7026 39.5 15.7026H38C37.7239 15.7026 37.5 15.9265 37.5 16.2026V17.7026Z" fill="black"/>
<path d="M22.5 2.70264C22.5 2.97878 22.7239 3.20264 23 3.20264H24.5C24.7761 3.20264 25 2.97878 25 2.70264V1.20264C25 0.926494 24.7761 0.702637 24.5 0.702637H23C22.7239 0.702637 22.5 0.926494 22.5 1.20264V2.70264Z" fill="black"/>
<path d="M12.5 9.95264C12.5 9.67649 12.7239 9.45264 13 9.45264H14.5C14.7761 9.45264 15 9.67649 15 9.95264V11.4526C15 11.7288 14.7761 11.9526 14.5 11.9526H13C12.7239 11.9526 12.5 11.7288 12.5 11.4526V9.95264Z" fill="black"/>
<path d="M15 25.2026C15 25.4788 15.2239 25.7026 15.5 25.7026H17C17.2761 25.7026 17.5 25.4788 17.5 25.2026V23.7026C17.5 23.4265 17.2761 23.2026 17 23.2026H15.5C15.2239 23.2026 15 23.4265 15 23.7026V25.2026Z" fill="black"/>
<path d="M22.5 23.9526C22.5 24.2288 22.7239 24.4526 23 24.4526H24.5C24.7761 24.4526 25 24.2288 25 23.9526V22.4526C25 22.1765 24.7761 21.9526 24.5 21.9526H23C22.7239 21.9526 22.5 22.1765 22.5 22.4526V23.9526Z" fill="black"/>
<path d="M5 17.4526C5 17.1765 5.22386 16.9526 5.5 16.9526H7C7.27614 16.9526 7.5 17.1765 7.5 17.4526V18.9526C7.5 19.2288 7.27614 19.4526 7 19.4526H5.5C5.22386 19.4526 5 19.2288 5 18.9526V17.4526Z" fill="black"/>
<path d="M7.5 26.4526C7.5 26.7288 7.72386 26.9526 8 26.9526H9.5C9.77614 26.9526 10 26.7288 10 26.4526V24.9526C10 24.6765 9.77614 24.4526 9.5 24.4526H8C7.72386 24.4526 7.5 24.6765 7.5 24.9526V26.4526Z" fill="black"/>
<path d="M27.5 23.9526C27.5 24.2288 27.7239 24.4526 28 24.4526H29.5C29.7761 24.4526 30 24.2288 30 23.9526V22.4526C30 22.1765 29.7761 21.9526 29.5 21.9526H28C27.7239 21.9526 27.5 22.1765 27.5 22.4526V23.9526Z" fill="black"/>
<path d="M10 12.4526C10 12.1765 10.2239 11.9526 10.5 11.9526H12C12.2761 11.9526 12.5 12.1765 12.5 12.4526V13.9526C12.5 14.2288 12.2761 14.4526 12 14.4526H10.5C10.2239 14.4526 10 14.2288 10 13.9526V12.4526Z" fill="black"/>
<path d="M12.5 25.2026C12.5 25.4788 12.7239 25.7026 13 25.7026H14.5C14.7761 25.7026 15 25.4788 15 25.2026V23.7026C15 23.4265 14.7761 23.2026 14.5 23.2026H13C12.7239 23.2026 12.5 23.4265 12.5 23.7026V25.2026Z" fill="black"/>
<path d="M17.5 4.95264C17.5 4.67649 17.7239 4.45264 18 4.45264H19.5C19.7761 4.45264 20 4.67649 20 4.95264V6.45264C20 6.72878 19.7761 6.95264 19.5 6.95264H18C17.7239 6.95264 17.5 6.72878 17.5 6.45264V4.95264Z" fill="black"/>
<path d="M20 25.2026C20 25.4788 20.2239 25.7026 20.5 25.7026H22C22.2761 25.7026 22.5 25.4788 22.5 25.2026V23.7026C22.5 23.4265 22.2761 23.2026 22 23.2026H20.5C20.2239 23.2026 20 23.4265 20 23.7026V25.2026Z" fill="black"/>
<path d="M2.5 19.9526C2.5 19.6765 2.72386 19.4526 3 19.4526H4.5C4.77614 19.4526 5 19.6765 5 19.9526V21.4526C5 21.7288 4.77614 21.9526 4.5 21.9526H3C2.72386 21.9526 2.5 21.7288 2.5 21.4526V19.9526Z" fill="black"/>
<path d="M5 26.4526C5 26.7288 5.22386 26.9526 5.5 26.9526H7C7.27614 26.9526 7.5 26.7288 7.5 26.4526V24.9526C7.5 24.6765 7.27614 24.4526 7 24.4526H5.5C5.22386 24.4526 5 24.6765 5 24.9526V26.4526Z" fill="black"/>
<path d="M25 23.9526C25 24.2288 25.2239 24.4526 25.5 24.4526H27C27.2761 24.4526 27.5 24.2288 27.5 23.9526V22.4526C27.5 22.1765 27.2761 21.9526 27 21.9526H25.5C25.2239 21.9526 25 22.1765 25 22.4526V23.9526Z" fill="black"/>
<path d="M7.5 14.9526C7.5 14.6765 7.72386 14.4526 8 14.4526H9.5C9.77614 14.4526 10 14.6765 10 14.9526V16.4526C10 16.7288 9.77614 16.9526 9.5 16.9526H8C7.72386 16.9526 7.5 16.7288 7.5 16.4526V14.9526Z" fill="black"/>
<path d="M10 26.4526C10 26.7288 10.2239 26.9526 10.5 26.9526H12C12.2761 26.9526 12.5 26.7288 12.5 26.4526V24.9526C12.5 24.6765 12.2761 24.4526 12 24.4526H10.5C10.2239 24.4526 10 24.6765 10 24.9526V26.4526Z" fill="black"/>
<path d="M15 7.45264C15 7.17649 15.2239 6.95264 15.5 6.95264H17C17.2761 6.95264 17.5 7.17649 17.5 7.45264V8.95264C17.5 9.22878 17.2761 9.45264 17 9.45264H15.5C15.2239 9.45264 15 9.22878 15 8.95264V7.45264Z" fill="black"/>
<path d="M17.5 25.2026C17.5 25.4788 17.7239 25.7026 18 25.7026H19.5C19.7761 25.7026 20 25.4788 20 25.2026V23.7026C20 23.4265 19.7761 23.2026 19.5 23.2026H18C17.7239 23.2026 17.5 23.4265 17.5 23.7026V25.2026Z" fill="black"/>
<path d="M0 22.4526C0 22.1765 0.223858 21.9526 0.5 21.9526H2C2.27614 21.9526 2.5 22.1765 2.5 22.4526V23.9526C2.5 24.2288 2.27614 24.4526 2 24.4526H0.5C0.223858 24.4526 0 24.2288 0 23.9526V22.4526Z" fill="black"/>
<path d="M2.5 26.4526C2.5 26.7288 2.72386 26.9526 3 26.9526H4.5C4.77614 26.9526 5 26.7288 5 26.4526V24.9526C5 24.6765 4.77614 24.4526 4.5 24.4526H3C2.72386 24.4526 2.5 24.6765 2.5 24.9526V26.4526Z" fill="black"/>
</svg>
