<svg width="51" height="52" viewBox="0 0 51 52" fill="none" xmlns="http://www.w3.org/2000/svg">
<rect y="0.327637" width="51" height="51" rx="25.5" fill="black"/>
<rect x="1" y="1.32764" width="49" height="49" rx="24.5" stroke="black" stroke-opacity="0.1" stroke-width="2"/>
<path d="M33 31.9429C33 32.1322 33.1567 32.2857 33.35 32.2857H34.4C34.5933 32.2857 34.75 32.1322 34.75 31.9429V30.9143C34.75 30.7249 34.5933 30.5714 34.4 30.5714H33.35C33.1567 30.5714 33 30.7249 33 30.9143V31.9429Z" fill="white"/>
<path d="M34.75 30.2286C34.75 30.4179 34.9067 30.5714 35.1 30.5714H36.15C36.3433 30.5714 36.5 30.4179 36.5 30.2286V29.2C36.5 29.0106 36.3433 28.8571 36.15 28.8571H35.1C34.9067 28.8571 34.75 29.0106 34.75 29.2V30.2286Z" fill="white"/>
<path d="M26 28.5143C26 28.7036 26.1567 28.8571 26.35 28.8571H27.4C27.5933 28.8571 27.75 28.7036 27.75 28.5143V27.4857C27.75 27.2964 27.5933 27.1429 27.4 27.1429H26.35C26.1567 27.1429 26 27.2964 26 27.4857V28.5143Z" fill="white"/>
<path d="M19 29.3714C19 29.5608 19.1567 29.7143 19.35 29.7143H20.4C20.5933 29.7143 20.75 29.5608 20.75 29.3714V28.3429C20.75 28.1535 20.5933 28 20.4 28H19.35C19.1567 28 19 28.1535 19 28.3429V29.3714Z" fill="white"/>
<path d="M23.375 25.0857C23.375 25.2751 23.5317 25.4286 23.725 25.4286H24.775C24.9683 25.4286 25.125 25.2751 25.125 25.0857V24.0571C25.125 23.8678 24.9683 23.7143 24.775 23.7143H23.725C23.5317 23.7143 23.375 23.8678 23.375 24.0571V25.0857Z" fill="white"/>
<path d="M26 18.2286C26 18.4179 26.1567 18.5714 26.35 18.5714H27.4C27.5933 18.5714 27.75 18.4179 27.75 18.2286V17.2C27.75 17.0106 27.5933 16.8571 27.4 16.8571H26.35C26.1567 16.8571 26 17.0106 26 17.2V18.2286Z" fill="white"/>
<path d="M36.5 29.3714C36.5 29.5608 36.6567 29.7143 36.85 29.7143H37.9C38.0933 29.7143 38.25 29.5608 38.25 29.3714V28.3429C38.25 28.1535 38.0933 28 37.9 28H36.85C36.6567 28 36.5 28.1535 36.5 28.3429V29.3714Z" fill="white"/>
<path d="M27.75 27.6571C27.75 27.8465 27.9067 28 28.1 28H29.15C29.3433 28 29.5 27.8465 29.5 27.6571V26.6286C29.5 26.4392 29.3433 26.2857 29.15 26.2857H28.1C27.9067 26.2857 27.75 26.4392 27.75 26.6286V27.6571Z" fill="white"/>
<path d="M20.75 28.5143C20.75 28.7036 20.9067 28.8571 21.1 28.8571H22.15C22.3433 28.8571 22.5 28.7036 22.5 28.5143V27.4857C22.5 27.2964 22.3433 27.1429 22.15 27.1429H21.1C20.9067 27.1429 20.75 27.2964 20.75 27.4857V28.5143Z" fill="white"/>
<path d="M27.75 22.5143C27.75 22.7036 27.9067 22.8571 28.1 22.8571H29.15C29.3433 22.8571 29.5 22.7036 29.5 22.5143V21.4857C29.5 21.2964 29.3433 21.1429 29.15 21.1429H28.1C27.9067 21.1429 27.75 21.2964 27.75 21.4857V22.5143Z" fill="white"/>
<path d="M29.5 24.2286C29.5 24.4179 29.6567 24.5714 29.85 24.5714H30.9C31.0933 24.5714 31.25 24.4179 31.25 24.2286V23.2C31.25 23.0106 31.0933 22.8571 30.9 22.8571H29.85C29.6567 22.8571 29.5 23.0106 29.5 23.2V24.2286Z" fill="white"/>
<path d="M31.25 25.9429C31.25 26.1322 31.4067 26.2857 31.6 26.2857H32.65C32.8433 26.2857 33 26.1322 33 25.9429V24.9143C33 24.7249 32.8433 24.5714 32.65 24.5714H31.6C31.4067 24.5714 31.25 24.7249 31.25 24.9143V25.9429Z" fill="white"/>
<path d="M33 27.6571C33 27.8465 33.1567 28 33.35 28H34.4C34.5933 28 34.75 27.8465 34.75 27.6571V26.6286C34.75 26.4392 34.5933 26.2857 34.4 26.2857H33.35C33.1567 26.2857 33 26.4392 33 26.6286V27.6571Z" fill="white"/>
<path d="M26 19.9429C26 20.1322 26.1567 20.2857 26.35 20.2857H27.4C27.5933 20.2857 27.75 20.1322 27.75 19.9429V18.9143C27.75 18.7249 27.5933 18.5714 27.4 18.5714H26.35C26.1567 18.5714 26 18.7249 26 18.9143V19.9429Z" fill="white"/>
<path d="M29.5 19.0857C29.5 19.2751 29.6567 19.4286 29.85 19.4286H30.9C31.0933 19.4286 31.25 19.2751 31.25 19.0857V18.0571C31.25 17.8678 31.0933 17.7143 30.9 17.7143H29.85C29.6567 17.7143 29.5 17.8678 29.5 18.0571V19.0857Z" fill="white"/>
<path d="M31.25 20.8C31.25 20.9894 31.4067 21.1429 31.6 21.1429H32.65C32.8433 21.1429 33 20.9894 33 20.8V19.7714C33 19.5821 32.8433 19.4286 32.65 19.4286H31.6C31.4067 19.4286 31.25 19.5821 31.25 19.7714V20.8Z" fill="white"/>
<path d="M33 22.5143C33 22.7036 33.1567 22.8571 33.35 22.8571H34.4C34.5933 22.8571 34.75 22.7036 34.75 22.5143V21.4857C34.75 21.2964 34.5933 21.1429 34.4 21.1429H33.35C33.1567 21.1429 33 21.2964 33 21.4857V22.5143Z" fill="white"/>
<path d="M34.75 24.2286C34.75 24.4179 34.9067 24.5714 35.1 24.5714H36.15C36.3433 24.5714 36.5 24.4179 36.5 24.2286V23.2C36.5 23.0106 36.3433 22.8571 36.15 22.8571H35.1C34.9067 22.8571 34.75 23.0106 34.75 23.2V24.2286Z" fill="white"/>
<path d="M36.5 25.9429C36.5 26.1322 36.6567 26.2857 36.85 26.2857H37.9C38.0933 26.2857 38.25 26.1322 38.25 25.9429V24.9143C38.25 24.7249 38.0933 24.5714 37.9 24.5714H36.85C36.6567 24.5714 36.5 24.7249 36.5 24.9143V25.9429Z" fill="white"/>
<path d="M38.25 27.6571C38.25 27.8465 38.4067 28 38.6 28H39.65C39.8433 28 40 27.8465 40 27.6571V26.6286C40 26.4392 39.8433 26.2857 39.65 26.2857H38.6C38.4067 26.2857 38.25 26.4392 38.25 26.6286V27.6571Z" fill="white"/>
<path d="M27.75 17.3714C27.75 17.5608 27.9067 17.7143 28.1 17.7143H29.15C29.3433 17.7143 29.5 17.5608 29.5 17.3714V16.3429C29.5 16.1535 29.3433 16 29.15 16H28.1C27.9067 16 27.75 16.1535 27.75 16.3429V17.3714Z" fill="white"/>
<path d="M20.75 22.3429C20.75 22.1535 20.9067 22 21.1 22H22.15C22.3433 22 22.5 22.1535 22.5 22.3429V23.3714C22.5 23.5608 22.3433 23.7143 22.15 23.7143H21.1C20.9067 23.7143 20.75 23.5608 20.75 23.3714V22.3429Z" fill="white"/>
<path d="M22.5 32.8C22.5 32.9894 22.6567 33.1429 22.85 33.1429H23.9C24.0933 33.1429 24.25 32.9894 24.25 32.8V31.7714C24.25 31.5821 24.0933 31.4286 23.9 31.4286H22.85C22.6567 31.4286 22.5 31.5821 22.5 31.7714V32.8Z" fill="white"/>
<path d="M27.75 31.9429C27.75 32.1322 27.9067 32.2857 28.1 32.2857H29.15C29.3433 32.2857 29.5 32.1322 29.5 31.9429V30.9143C29.5 30.7249 29.3433 30.5714 29.15 30.5714H28.1C27.9067 30.5714 27.75 30.7249 27.75 30.9143V31.9429Z" fill="white"/>
<path d="M15.5 27.4857C15.5 27.2964 15.6567 27.1429 15.85 27.1429H16.9C17.0933 27.1429 17.25 27.2964 17.25 27.4857V28.5143C17.25 28.7036 17.0933 28.8571 16.9 28.8571H15.85C15.6567 28.8571 15.5 28.7036 15.5 28.5143V27.4857Z" fill="white"/>
<path d="M17.25 33.6571C17.25 33.8465 17.4067 34 17.6 34H18.65C18.8433 34 19 33.8465 19 33.6571V32.6286C19 32.4392 18.8433 32.2857 18.65 32.2857H17.6C17.4067 32.2857 17.25 32.4392 17.25 32.6286V33.6571Z" fill="white"/>
<path d="M31.25 31.9429C31.25 32.1322 31.4067 32.2857 31.6 32.2857H32.65C32.8433 32.2857 33 32.1322 33 31.9429V30.9143C33 30.7249 32.8433 30.5714 32.65 30.5714H31.6C31.4067 30.5714 31.25 30.7249 31.25 30.9143V31.9429Z" fill="white"/>
<path d="M19 24.0571C19 23.8678 19.1567 23.7143 19.35 23.7143H20.4C20.5933 23.7143 20.75 23.8678 20.75 24.0571V25.0857C20.75 25.2751 20.5933 25.4286 20.4 25.4286H19.35C19.1567 25.4286 19 25.2751 19 25.0857V24.0571Z" fill="white"/>
<path d="M20.75 32.8C20.75 32.9894 20.9067 33.1429 21.1 33.1429H22.15C22.3433 33.1429 22.5 32.9894 22.5 32.8V31.7714C22.5 31.5821 22.3433 31.4286 22.15 31.4286H21.1C20.9067 31.4286 20.75 31.5821 20.75 31.7714V32.8Z" fill="white"/>
<path d="M24.25 18.9143C24.25 18.7249 24.4067 18.5714 24.6 18.5714H25.65C25.8433 18.5714 26 18.7249 26 18.9143V19.9429C26 20.1322 25.8433 20.2857 25.65 20.2857H24.6C24.4067 20.2857 24.25 20.1322 24.25 19.9429V18.9143Z" fill="white"/>
<path d="M26 32.8C26 32.9894 26.1567 33.1429 26.35 33.1429H27.4C27.5933 33.1429 27.75 32.9894 27.75 32.8V31.7714C27.75 31.5821 27.5933 31.4286 27.4 31.4286H26.35C26.1567 31.4286 26 31.5821 26 31.7714V32.8Z" fill="white"/>
<path d="M13.75 29.2C13.75 29.0106 13.9067 28.8571 14.1 28.8571H15.15C15.3433 28.8571 15.5 29.0106 15.5 29.2V30.2286C15.5 30.4179 15.3433 30.5714 15.15 30.5714H14.1C13.9067 30.5714 13.75 30.4179 13.75 30.2286V29.2Z" fill="white"/>
<path d="M15.5 33.6571C15.5 33.8465 15.6567 34 15.85 34H16.9C17.0933 34 17.25 33.8465 17.25 33.6571V32.6286C17.25 32.4392 17.0933 32.2857 16.9 32.2857H15.85C15.6567 32.2857 15.5 32.4392 15.5 32.6286V33.6571Z" fill="white"/>
<path d="M29.5 31.9429C29.5 32.1322 29.6567 32.2857 29.85 32.2857H30.9C31.0933 32.2857 31.25 32.1322 31.25 31.9429V30.9143C31.25 30.7249 31.0933 30.5714 30.9 30.5714H29.85C29.6567 30.5714 29.5 30.7249 29.5 30.9143V31.9429Z" fill="white"/>
<path d="M17.25 25.7714C17.25 25.5821 17.4067 25.4286 17.6 25.4286H18.65C18.8433 25.4286 19 25.5821 19 25.7714V26.8C19 26.9894 18.8433 27.1429 18.65 27.1429H17.6C17.4067 27.1429 17.25 26.9894 17.25 26.8V25.7714Z" fill="white"/>
<path d="M19 33.6571C19 33.8465 19.1567 34 19.35 34H20.4C20.5933 34 20.75 33.8465 20.75 33.6571V32.6286C20.75 32.4392 20.5933 32.2857 20.4 32.2857H19.35C19.1567 32.2857 19 32.4392 19 32.6286V33.6571Z" fill="white"/>
<path d="M22.5 20.6286C22.5 20.4392 22.6567 20.2857 22.85 20.2857H23.9C24.0933 20.2857 24.25 20.4392 24.25 20.6286V21.6571C24.25 21.8465 24.0933 22 23.9 22H22.85C22.6567 22 22.5 21.8465 22.5 21.6571V20.6286Z" fill="white"/>
<path d="M24.25 32.8C24.25 32.9894 24.4067 33.1429 24.6 33.1429H25.65C25.8433 33.1429 26 32.9894 26 32.8V31.7714C26 31.5821 25.8433 31.4286 25.65 31.4286H24.6C24.4067 31.4286 24.25 31.5821 24.25 31.7714V32.8Z" fill="white"/>
<path d="M12 30.9143C12 30.7249 12.1567 30.5714 12.35 30.5714H13.4C13.5933 30.5714 13.75 30.7249 13.75 30.9143V31.9429C13.75 32.1322 13.5933 32.2857 13.4 32.2857H12.35C12.1567 32.2857 12 32.1322 12 31.9429V30.9143Z" fill="white"/>
<path d="M13.75 33.6571C13.75 33.8465 13.9067 34 14.1 34H15.15C15.3433 34 15.5 33.8465 15.5 33.6571V32.6286C15.5 32.4392 15.3433 32.2857 15.15 32.2857H14.1C13.9067 32.2857 13.75 32.4392 13.75 32.6286V33.6571Z" fill="white"/>
</svg>
