<svg width="51" height="52" viewBox="0 0 51 52" fill="none" xmlns="http://www.w3.org/2000/svg">
<rect y="0.327637" width="51" height="51" rx="25.5" fill="black"/>
<rect x="1" y="1.32764" width="49" height="49" rx="24.5" stroke="black" stroke-opacity="0.1" stroke-width="2"/>
<path d="M33.5 26.3611C33.5 26.1617 33.6679 26 33.875 26H34.625C34.8321 26 35 26.1617 35 26.3611V27.0833C35 27.2828 34.8321 27.4444 34.625 27.4444H33.875C33.6679 27.4444 33.5 27.2828 33.5 27.0833V26.3611Z" fill="white"/>
<path d="M17 26.3611C17 26.1617 17.1679 26 17.375 26H18.125C18.3321 26 18.5 26.1617 18.5 26.3611V27.0833C18.5 27.2828 18.3321 27.4444 18.125 27.4444H17.375C17.1679 27.4444 17 27.2828 17 27.0833V26.3611Z" fill="white"/>
<path d="M33.5 14.8056C33.5 14.6061 33.6679 14.4444 33.875 14.4444H34.625C34.8321 14.4444 35 14.6061 35 14.8056V15.5278C35 15.7272 34.8321 15.8889 34.625 15.8889H33.875C33.6679 15.8889 33.5 15.7272 33.5 15.5278V14.8056Z" fill="white"/>
<path d="M17 14.8056C17 14.6061 17.1679 14.4444 17.375 14.4444H18.125C18.3321 14.4444 18.5 14.6061 18.5 14.8056V15.5278C18.5 15.7272 18.3321 15.8889 18.125 15.8889H17.375C17.1679 15.8889 17 15.7272 17 15.5278V14.8056Z" fill="white"/>
<path d="M18.875 14.4444C18.6679 14.4444 18.5 14.2828 18.5 14.0833V13.3611C18.5 13.1617 18.6679 13 18.875 13L19.625 13C19.8321 13 20 13.1617 20 13.3611V14.0833C20 14.2828 19.8321 14.4444 19.625 14.4444H18.875Z" fill="white"/>
<path d="M18.875 39C18.6679 39 18.5 38.8383 18.5 38.6389V37.9167C18.5 37.7172 18.6679 37.5556 18.875 37.5556H19.625C19.8321 37.5556 20 37.7172 20 37.9167V38.6389C20 38.8383 19.8321 39 19.625 39H18.875Z" fill="white"/>
<path d="M33.5 32.1389C33.5 31.9395 33.6679 31.7778 33.875 31.7778H34.625C34.8321 31.7778 35 31.9395 35 32.1389V32.8611C35 33.0605 34.8321 33.2222 34.625 33.2222H33.875C33.6679 33.2222 33.5 33.0605 33.5 32.8611V32.1389Z" fill="white"/>
<path d="M17 32.1389C17 31.9395 17.1679 31.7778 17.375 31.7778H18.125C18.3321 31.7778 18.5 31.9395 18.5 32.1389V32.8611C18.5 33.0605 18.3321 33.2222 18.125 33.2222H17.375C17.1679 33.2222 17 33.0605 17 32.8611V32.1389Z" fill="white"/>
<path d="M33.5 29.25C33.5 29.0506 33.6679 28.8889 33.875 28.8889H34.625C34.8321 28.8889 35 29.0506 35 29.25V29.9722C35 30.1717 34.8321 30.3333 34.625 30.3333H33.875C33.6679 30.3333 33.5 30.1717 33.5 29.9722V29.25Z" fill="white"/>
<path d="M17 29.25C17 29.0506 17.1679 28.8889 17.375 28.8889H18.125C18.3321 28.8889 18.5 29.0506 18.5 29.25V29.9722C18.5 30.1717 18.3321 30.3333 18.125 30.3333H17.375C17.1679 30.3333 17 30.1717 17 29.9722V29.25Z" fill="white"/>
<path d="M33.5 20.5833C33.5 20.3839 33.6679 20.2222 33.875 20.2222H34.625C34.8321 20.2222 35 20.3839 35 20.5833V21.3056C35 21.505 34.8321 21.6667 34.625 21.6667H33.875C33.6679 21.6667 33.5 21.505 33.5 21.3056V20.5833Z" fill="white"/>
<path d="M17 20.5833C17 20.3839 17.1679 20.2222 17.375 20.2222H18.125C18.3321 20.2222 18.5 20.3839 18.5 20.5833V21.3056C18.5 21.505 18.3321 21.6667 18.125 21.6667H17.375C17.1679 21.6667 17 21.505 17 21.3056V20.5833Z" fill="white"/>
<path d="M25.625 14.4444C25.4179 14.4444 25.25 14.2828 25.25 14.0833V13.3611C25.25 13.1617 25.4179 13 25.625 13L27.125 13C27.3321 13 27.5 13.1617 27.5 13.3611V14.0833C27.5 14.2828 27.3321 14.4444 27.125 14.4444H25.625Z" fill="white"/>
<path d="M25.625 39C25.4179 39 25.25 38.8383 25.25 38.6389V37.9167C25.25 37.7172 25.4179 37.5556 25.625 37.5556H27.125C27.3321 37.5556 27.5 37.7172 27.5 37.9167V38.6389C27.5 38.8383 27.3321 39 27.125 39H25.625Z" fill="white"/>
<path d="M33.5 17.6944C33.5 17.495 33.6679 17.3333 33.875 17.3333H34.625C34.8321 17.3333 35 17.495 35 17.6944V18.4167C35 18.6161 34.8321 18.7778 34.625 18.7778H33.875C33.6679 18.7778 33.5 18.6161 33.5 18.4167V17.6944Z" fill="white"/>
<path d="M17 17.6944C17 17.495 17.1679 17.3333 17.375 17.3333H18.125C18.3321 17.3333 18.5 17.495 18.5 17.6944V18.4167C18.5 18.6161 18.3321 18.7778 18.125 18.7778H17.375C17.1679 18.7778 17 18.6161 17 18.4167V17.6944Z" fill="white"/>
<path d="M22.625 14.4444C22.4179 14.4444 22.25 14.2828 22.25 14.0833V13.3611C22.25 13.1617 22.4179 13 22.625 13L23.375 13C23.5821 13 23.75 13.1617 23.75 13.3611V14.0833C23.75 14.2828 23.5821 14.4444 23.375 14.4444H22.625Z" fill="white"/>
<path d="M22.625 39C22.4179 39 22.25 38.8383 22.25 38.6389V37.9167C22.25 37.7172 22.4179 37.5556 22.625 37.5556H23.375C23.5821 37.5556 23.75 37.7172 23.75 37.9167V38.6389C23.75 38.8383 23.5821 39 23.375 39H22.625Z" fill="white"/>
<path d="M33.5 27.8056C33.5 27.6061 33.6679 27.4444 33.875 27.4444H34.625C34.8321 27.4444 35 27.6061 35 27.8056V28.5278C35 28.7272 34.8321 28.8889 34.625 28.8889H33.875C33.6679 28.8889 33.5 28.7272 33.5 28.5278V27.8056Z" fill="white"/>
<path d="M17 27.8056C17 27.6061 17.1679 27.4444 17.375 27.4444H18.125C18.3321 27.4444 18.5 27.6061 18.5 27.8056V28.5278C18.5 28.7272 18.3321 28.8889 18.125 28.8889H17.375C17.1679 28.8889 17 28.7272 17 28.5278V27.8056Z" fill="white"/>
<path d="M33.5 16.25C33.5 16.0506 33.6679 15.8889 33.875 15.8889H34.625C34.8321 15.8889 35 16.0506 35 16.25V16.9722C35 17.1717 34.8321 17.3333 34.625 17.3333H33.875C33.6679 17.3333 33.5 17.1717 33.5 16.9722V16.25Z" fill="white"/>
<path d="M17 16.25C17 16.0506 17.1679 15.8889 17.375 15.8889H18.125C18.3321 15.8889 18.5 16.0506 18.5 16.25V16.9722C18.5 17.1717 18.3321 17.3333 18.125 17.3333H17.375C17.1679 17.3333 17 17.1717 17 16.9722V16.25Z" fill="white"/>
<path d="M20.375 14.4444C20.1679 14.4444 20 14.2828 20 14.0833V13.3611C20 13.1617 20.1679 13 20.375 13L21.875 13C22.0821 13 22.25 13.1617 22.25 13.3611V14.0833C22.25 14.2828 22.0821 14.4444 21.875 14.4444H20.375Z" fill="white"/>
<path d="M20.375 39C20.1679 39 20 38.8383 20 38.6389V37.9167C20 37.7172 20.1679 37.5556 20.375 37.5556H21.875C22.0821 37.5556 22.25 37.7172 22.25 37.9167V38.6389C22.25 38.8383 22.0821 39 21.875 39H20.375Z" fill="white"/>
<path d="M33.5 35.0278C33.5 34.8283 33.6679 34.6667 33.875 34.6667H34.625C34.8321 34.6667 35 34.8283 35 35.0278V35.75C35 35.9494 34.8321 36.1111 34.625 36.1111H33.875C33.6679 36.1111 33.5 35.9494 33.5 35.75V35.0278Z" fill="white"/>
<path d="M17 35.0278C17 34.8283 17.1679 34.6667 17.375 34.6667H18.125C18.3321 34.6667 18.5 34.8283 18.5 35.0278V35.75C18.5 35.9494 18.3321 36.1111 18.125 36.1111H17.375C17.1679 36.1111 17 35.9494 17 35.75V35.0278Z" fill="white"/>
<path d="M33.5 23.4722C33.5 23.2728 33.6679 23.1111 33.875 23.1111H34.625C34.8321 23.1111 35 23.2728 35 23.4722V24.1944C35 24.3939 34.8321 24.5556 34.625 24.5556H33.875C33.6679 24.5556 33.5 24.3939 33.5 24.1944V23.4722Z" fill="white"/>
<path d="M17 23.4722C17 23.2728 17.1679 23.1111 17.375 23.1111H18.125C18.3321 23.1111 18.5 23.2728 18.5 23.4722V24.1944C18.5 24.3939 18.3321 24.5556 18.125 24.5556H17.375C17.1679 24.5556 17 24.3939 17 24.1944V23.4722Z" fill="white"/>
<path d="M29.375 14.4444C29.1679 14.4444 29 14.2828 29 14.0833V13.3611C29 13.1617 29.1679 13 29.375 13L30.875 13C31.0821 13 31.25 13.1617 31.25 13.3611V14.0833C31.25 14.2828 31.0821 14.4444 30.875 14.4444H29.375Z" fill="white"/>
<path d="M22.625 32.5C22.4179 32.5 22.25 32.3383 22.25 32.1389V31.4167C22.25 31.2172 22.4179 31.0556 22.625 31.0556H24.125C24.3321 31.0556 24.5 31.2172 24.5 31.4167V32.1389C24.5 32.3383 24.3321 32.5 24.125 32.5H22.625Z" fill="white"/>
<path d="M25.625 27.4444C25.4179 27.4444 25.25 27.2828 25.25 27.0833V26.3611C25.25 26.1617 25.4179 26 25.625 26H28.625C28.8321 26 29 26.1617 29 26.3611V27.0833C29 27.2828 28.8321 27.4444 28.625 27.4444H25.625Z" fill="white"/>
<path d="M25.625 26C25.4179 26 25.25 25.8383 25.25 25.6389V21.3056C25.25 21.1061 25.4179 20.9444 25.625 20.9444H26.375C26.5821 20.9444 26.75 21.1061 26.75 21.3056V25.6389C26.75 25.8383 26.5821 26 26.375 26H25.625Z" fill="white"/>
<path d="M29.375 39C29.1679 39 29 38.8383 29 38.6389V37.9167C29 37.7172 29.1679 37.5556 29.375 37.5556H30.875C31.0821 37.5556 31.25 37.7172 31.25 37.9167V38.6389C31.25 38.8383 31.0821 39 30.875 39H29.375Z" fill="white"/>
<path d="M33.5 33.5833C33.5 33.3839 33.6679 33.2222 33.875 33.2222H34.625C34.8321 33.2222 35 33.3839 35 33.5833V34.3056C35 34.505 34.8321 34.6667 34.625 34.6667H33.875C33.6679 34.6667 33.5 34.505 33.5 34.3056V33.5833Z" fill="white"/>
<path d="M33.5 30.6944C33.5 30.495 33.6679 30.3333 33.875 30.3333H34.625C34.8321 30.3333 35 30.495 35 30.6944V31.4167C35 31.6161 34.8321 31.7778 34.625 31.7778H33.875C33.6679 31.7778 33.5 31.6161 33.5 31.4167V30.6944Z" fill="white"/>
<path d="M17 33.5833C17 33.3839 17.1679 33.2222 17.375 33.2222H18.125C18.3321 33.2222 18.5 33.3839 18.5 33.5833V34.3056C18.5 34.505 18.3321 34.6667 18.125 34.6667H17.375C17.1679 34.6667 17 34.505 17 34.3056V33.5833Z" fill="white"/>
<path d="M17 30.6944C17 30.495 17.1679 30.3333 17.375 30.3333H18.125C18.3321 30.3333 18.5 30.495 18.5 30.6944V31.4167C18.5 31.6161 18.3321 31.7778 18.125 31.7778H17.375C17.1679 31.7778 17 31.6161 17 31.4167V30.6944Z" fill="white"/>
<path d="M33.5 22.0278C33.5 21.8283 33.6679 21.6667 33.875 21.6667H34.625C34.8321 21.6667 35 21.8283 35 22.0278V22.75C35 22.9494 34.8321 23.1111 34.625 23.1111H33.875C33.6679 23.1111 33.5 22.9494 33.5 22.75V22.0278Z" fill="white"/>
<path d="M17 22.0278C17 21.8283 17.1679 21.6667 17.375 21.6667H18.125C18.3321 21.6667 18.5 21.8283 18.5 22.0278V22.75C18.5 22.9494 18.3321 23.1111 18.125 23.1111H17.375C17.1679 23.1111 17 22.9494 17 22.75V22.0278Z" fill="white"/>
<path d="M27.875 14.4444C27.6679 14.4444 27.5 14.2828 27.5 14.0833V13.3611C27.5 13.1617 27.6679 13 27.875 13L28.625 13C28.8321 13 29 13.1617 29 13.3611V14.0833C29 14.2828 28.8321 14.4444 28.625 14.4444H27.875Z" fill="white"/>
<path d="M27.875 39C27.6679 39 27.5 38.8383 27.5 38.6389V37.9167C27.5 37.7172 27.6679 37.5556 27.875 37.5556H28.625C28.8321 37.5556 29 37.7172 29 37.9167V38.6389C29 38.8383 28.8321 39 28.625 39H27.875Z" fill="white"/>
<path d="M33.5 19.1389C33.5 18.9395 33.6679 18.7778 33.875 18.7778H34.625C34.8321 18.7778 35 18.9395 35 19.1389V19.8611C35 20.0605 34.8321 20.2222 34.625 20.2222H33.875C33.6679 20.2222 33.5 20.0605 33.5 19.8611V19.1389Z" fill="white"/>
<path d="M17 19.1389C17 18.9395 17.1679 18.7778 17.375 18.7778H18.125C18.3321 18.7778 18.5 18.9395 18.5 19.1389V19.8611C18.5 20.0605 18.3321 20.2222 18.125 20.2222H17.375C17.1679 20.2222 17 20.0605 17 19.8611V19.1389Z" fill="white"/>
<path d="M24.125 14.4444C23.9179 14.4444 23.75 14.2828 23.75 14.0833V13.3611C23.75 13.1617 23.9179 13 24.125 13H25.625C25.8321 13 26 13.1617 26 13.3611V14.0833C26 14.2828 25.8321 14.4444 25.625 14.4444H24.125Z" fill="white"/>
<path d="M24.125 39C23.9179 39 23.75 38.8383 23.75 38.6389V37.9167C23.75 37.7172 23.9179 37.5556 24.125 37.5556H25.625C25.8321 37.5556 26 37.7172 26 37.9167V38.6389C26 38.8383 25.8321 39 25.625 39H24.125Z" fill="white"/>
<path d="M33.5 36.4722C33.5 36.2728 33.6679 36.1111 33.875 36.1111H34.625C34.8321 36.1111 35 36.2728 35 36.4722V37.1944C35 37.3939 34.8321 37.5556 34.625 37.5556H33.875C33.6679 37.5556 33.5 37.3939 33.5 37.1944V36.4722Z" fill="white"/>
<path d="M17 36.4722C17 36.2728 17.1679 36.1111 17.375 36.1111H18.125C18.3321 36.1111 18.5 36.2728 18.5 36.4722V37.1944C18.5 37.3939 18.3321 37.5556 18.125 37.5556H17.375C17.1679 37.5556 17 37.3939 17 37.1944V36.4722Z" fill="white"/>
<path d="M33.5 24.9167C33.5 24.7172 33.6679 24.5556 33.875 24.5556H34.625C34.8321 24.5556 35 24.7172 35 24.9167V25.6389C35 25.8383 34.8321 26 34.625 26H33.875C33.6679 26 33.5 25.8383 33.5 25.6389V24.9167Z" fill="white"/>
<path d="M17 24.9167C17 24.7172 17.1679 24.5556 17.375 24.5556H18.125C18.3321 24.5556 18.5 24.7172 18.5 24.9167V25.6389C18.5 25.8383 18.3321 26 18.125 26H17.375C17.1679 26 17 25.8383 17 25.6389V24.9167Z" fill="white"/>
<path d="M31.625 14.4444C31.4179 14.4444 31.25 14.2828 31.25 14.0833V13.3611C31.25 13.1617 31.4179 13 31.625 13L32.375 13C32.5821 13 32.75 13.1617 32.75 13.3611V14.0833C32.75 14.2828 32.5821 14.4444 32.375 14.4444H31.625Z" fill="white"/>
<path d="M24.875 32.5C24.6679 32.5 24.5 32.3383 24.5 32.1389V31.4167C24.5 31.2172 24.6679 31.0556 24.875 31.0556H28.625C28.8321 31.0556 29 31.2172 29 31.4167V32.1389C29 32.3383 28.8321 32.5 28.625 32.5H24.875Z" fill="white"/>
<path d="M29.375 23.8333C29.1679 23.8333 29 23.6717 29 23.4722V19.8611C29 19.6617 29.1679 19.5 29.375 19.5H30.125C30.3321 19.5 30.5 19.6617 30.5 19.8611V23.4722C30.5 23.6717 30.3321 23.8333 30.125 23.8333H29.375Z" fill="white"/>
<path d="M29.375 31.0556C29.1679 31.0556 29 30.8939 29 30.6944V29.9722C29 29.7728 29.1679 29.6111 29.375 29.6111H30.125C30.3321 29.6111 30.5 29.7728 30.5 29.9722V30.6944C30.5 30.8939 30.3321 31.0556 30.125 31.0556H29.375Z" fill="white"/>
<path d="M21.875 23.8333C21.6679 23.8333 21.5 23.6717 21.5 23.4722V19.8611C21.5 19.6617 21.6679 19.5 21.875 19.5H22.625C22.8321 19.5 23 19.6617 23 19.8611V23.4722C23 23.6717 22.8321 23.8333 22.625 23.8333H21.875Z" fill="white"/>
<path d="M21.875 31.0556C21.6679 31.0556 21.5 30.8939 21.5 30.6944V29.9722C21.5 29.7728 21.6679 29.6111 21.875 29.6111H22.625C22.8321 29.6111 23 29.7728 23 29.9722V30.6944C23 30.8939 22.8321 31.0556 22.625 31.0556H21.875Z" fill="white"/>
<path d="M31.625 39C31.4179 39 31.25 38.8383 31.25 38.6389V37.9167C31.25 37.7172 31.4179 37.5556 31.625 37.5556H32.375C32.5821 37.5556 32.75 37.7172 32.75 37.9167V38.6389C32.75 38.8383 32.5821 39 32.375 39H31.625Z" fill="white"/>
</svg>
