<svg width="51" height="52" viewBox="0 0 51 52" fill="none" xmlns="http://www.w3.org/2000/svg">
<rect y="0.327637" width="51" height="51" rx="25.5" fill="black"/>
<rect x="1" y="1.32764" width="49" height="49" rx="24.5" stroke="black" stroke-opacity="0.1" stroke-width="2"/>
<path d="M30.4444 24.8C30.4444 24.5791 30.6186 24.4 30.8333 24.4H31.6111C31.8259 24.4 32 24.5791 32 24.8V25.6C32 25.8209 31.8259 26 31.6111 26H30.8333C30.6186 26 30.4444 25.8209 30.4444 25.6V24.8Z" fill="white"/>
<path d="M30.4444 26.4C30.4444 26.1791 30.6186 26 30.8333 26H31.6111C31.8259 26 32 26.1791 32 26.4V27.2C32 27.4209 31.8259 27.6 31.6111 27.6H30.8333C30.6186 27.6 30.4444 27.4209 30.4444 27.2V26.4Z" fill="white"/>
<path d="M30.4444 28C30.4444 27.7791 30.6186 27.6 30.8333 27.6H31.6111C31.8259 27.6 32 27.7791 32 28V28.8C32 29.0209 31.8259 29.2 31.6111 29.2H30.8333C30.6186 29.2 30.4444 29.0209 30.4444 28.8V28Z" fill="white"/>
<path d="M18 24.8C18 24.5791 18.1741 24.4 18.3889 24.4H19.1667C19.3814 24.4 19.5556 24.5791 19.5556 24.8V25.6C19.5556 25.8209 19.3814 26 19.1667 26H18.3889C18.1741 26 18 25.8209 18 25.6V24.8Z" fill="white"/>
<path d="M18 26.4C18 26.1791 18.1741 26 18.3889 26H19.1667C19.3814 26 19.5556 26.1791 19.5556 26.4V27.2C19.5556 27.4209 19.3814 27.6 19.1667 27.6H18.3889C18.1741 27.6 18 27.4209 18 27.2V26.4Z" fill="white"/>
<path d="M18 28C18 27.7791 18.1741 27.6 18.3889 27.6H19.1667C19.3814 27.6 19.5556 27.7791 19.5556 28V28.8C19.5556 29.0209 19.3814 29.2 19.1667 29.2H18.3889C18.1741 29.2 18 29.0209 18 28.8V28Z" fill="white"/>
<path d="M30.4444 12C30.4444 11.7791 30.6186 11.6 30.8333 11.6H31.6111C31.8259 11.6 32 11.7791 32 12V12.8C32 13.0209 31.8259 13.2 31.6111 13.2H30.8333C30.6186 13.2 30.4444 13.0209 30.4444 12.8V12Z" fill="white"/>
<path d="M18 12C18 11.7791 18.1741 11.6 18.3889 11.6H19.1667C19.3814 11.6 19.5556 11.7791 19.5556 12V12.8C19.5556 13.0209 19.3814 13.2 19.1667 13.2H18.3889C18.1741 13.2 18 13.0209 18 12.8V12Z" fill="white"/>
<path d="M19.9444 11.6C19.7297 11.6 19.5556 11.4209 19.5556 11.2V10.4C19.5556 10.1791 19.7297 10 19.9444 10L20.7222 10C20.937 10 21.1111 10.1791 21.1111 10.4V11.2C21.1111 11.4209 20.937 11.6 20.7222 11.6H19.9444Z" fill="white"/>
<path d="M19.9444 41.2C19.7297 41.2 19.5556 41.0209 19.5556 40.8V40C19.5556 39.7791 19.7297 39.6 19.9444 39.6H20.7222C20.937 39.6 21.1111 39.7791 21.1111 40V40.8C21.1111 41.0209 20.937 41.2 20.7222 41.2H19.9444Z" fill="white"/>
<path d="M30.4444 34.4C30.4444 34.1791 30.6186 34 30.8333 34H31.6111C31.8259 34 32 34.1791 32 34.4V35.2C32 35.4209 31.8259 35.6 31.6111 35.6H30.8333C30.6186 35.6 30.4444 35.4209 30.4444 35.2V34.4Z" fill="white"/>
<path d="M18 34.4C18 34.1791 18.1741 34 18.3889 34H19.1667C19.3814 34 19.5556 34.1791 19.5556 34.4V35.2C19.5556 35.4209 19.3814 35.6 19.1667 35.6H18.3889C18.1741 35.6 18 35.4209 18 35.2V34.4Z" fill="white"/>
<path d="M30.4444 31.2C30.4444 30.9791 30.6186 30.8 30.8333 30.8H31.6111C31.8259 30.8 32 30.9791 32 31.2V32C32 32.2209 31.8259 32.4 31.6111 32.4H30.8333C30.6186 32.4 30.4444 32.2209 30.4444 32V31.2Z" fill="white"/>
<path d="M18 31.2C18 30.9791 18.1741 30.8 18.3889 30.8H19.1667C19.3814 30.8 19.5556 30.9791 19.5556 31.2V32C19.5556 32.2209 19.3814 32.4 19.1667 32.4H18.3889C18.1741 32.4 18 32.2209 18 32V31.2Z" fill="white"/>
<path d="M30.4444 18.4C30.4444 18.1791 30.6186 18 30.8333 18H31.6111C31.8259 18 32 18.1791 32 18.4V19.2C32 19.4209 31.8259 19.6 31.6111 19.6H30.8333C30.6186 19.6 30.4444 19.4209 30.4444 19.2V18.4Z" fill="white"/>
<path d="M18 18.4C18 18.1791 18.1741 18 18.3889 18H19.1667C19.3814 18 19.5556 18.1791 19.5556 18.4V19.2C19.5556 19.4209 19.3814 19.6 19.1667 19.6H18.3889C18.1741 19.6 18 19.4209 18 19.2V18.4Z" fill="white"/>
<path d="M29.6667 15.2C29.6667 14.9791 29.8408 14.8 30.0556 14.8H30.8333C31.0481 14.8 31.2222 14.9791 31.2222 15.2V16C31.2222 16.2209 31.0481 16.4 30.8333 16.4H30.0556C29.8408 16.4 29.6667 16.2209 29.6667 16V15.2Z" fill="white"/>
<path d="M20.3333 16C20.3333 15.7791 20.5074 15.6 20.7222 15.6H29.2778C29.4926 15.6 29.6667 15.7791 29.6667 16V16.8C29.6667 17.0209 29.4926 17.2 29.2778 17.2H20.7222C20.5074 17.2 20.3333 17.0209 20.3333 16.8V16Z" fill="white"/>
<path d="M18.7778 15.2C18.7778 14.9791 18.9519 14.8 19.1667 14.8H19.9444C20.1592 14.8 20.3333 14.9791 20.3333 15.2V16C20.3333 16.2209 20.1592 16.4 19.9444 16.4H19.1667C18.9519 16.4 18.7778 16.2209 18.7778 16V15.2Z" fill="white"/>
<path d="M30.4444 29.6C30.4444 29.3791 30.6186 29.2 30.8333 29.2H31.6111C31.8259 29.2 32 29.3791 32 29.6V30.4C32 30.6209 31.8259 30.8 31.6111 30.8H30.8333C30.6186 30.8 30.4444 30.6209 30.4444 30.4V29.6Z" fill="white"/>
<path d="M18 29.6C18 29.3791 18.1741 29.2 18.3889 29.2H19.1667C19.3814 29.2 19.5556 29.3791 19.5556 29.6V30.4C19.5556 30.6209 19.3814 30.8 19.1667 30.8H18.3889C18.1741 30.8 18 30.6209 18 30.4V29.6Z" fill="white"/>
<path d="M30.4444 13.6C30.4444 13.3791 30.6186 13.2 30.8333 13.2H31.6111C31.8259 13.2 32 13.3791 32 13.6V14.4C32 14.6209 31.8259 14.8 31.6111 14.8H30.8333C30.6186 14.8 30.4444 14.6209 30.4444 14.4V13.6Z" fill="white"/>
<path d="M18 13.6C18 13.3791 18.1741 13.2 18.3889 13.2H19.1667C19.3814 13.2 19.5556 13.3791 19.5556 13.6V14.4C19.5556 14.6209 19.3814 14.8 19.1667 14.8H18.3889C18.1741 14.8 18 14.6209 18 14.4V13.6Z" fill="white"/>
<path d="M21.5 11.6C21.2852 11.6 21.1111 11.4209 21.1111 11.2V10.4C21.1111 10.1791 21.2852 10 21.5 10L23.0556 10C23.2703 10 23.4444 10.1791 23.4444 10.4V11.2C23.4444 11.4209 23.2703 11.6 23.0556 11.6H21.5Z" fill="white"/>
<path d="M21.5 42C21.2852 42 21.1111 41.8209 21.1111 41.6V40.8C21.1111 40.5791 21.2852 40.4 21.5 40.4H23.0556C23.2703 40.4 23.4444 40.5791 23.4444 40.8V41.6C23.4444 41.8209 23.2703 42 23.0556 42H21.5Z" fill="white"/>
<path d="M30.4444 37.6C30.4444 37.3791 30.6186 37.2 30.8333 37.2H31.6111C31.8259 37.2 32 37.3791 32 37.6V38.4C32 38.6209 31.8259 38.8 31.6111 38.8H30.8333C30.6186 38.8 30.4444 38.6209 30.4444 38.4V37.6Z" fill="white"/>
<path d="M18 37.6C18 37.3791 18.1741 37.2 18.3889 37.2H19.1667C19.3814 37.2 19.5556 37.3791 19.5556 37.6V38.4C19.5556 38.6209 19.3814 38.8 19.1667 38.8H18.3889C18.1741 38.8 18 38.6209 18 38.4V37.6Z" fill="white"/>
<path d="M30.4444 21.6C30.4444 21.3791 30.6186 21.2 30.8333 21.2H31.6111C31.8259 21.2 32 21.3791 32 21.6V22.4C32 22.6209 31.8259 22.8 31.6111 22.8H30.8333C30.6186 22.8 30.4444 22.6209 30.4444 22.4V21.6Z" fill="white"/>
<path d="M18 21.6C18 21.3791 18.1741 21.2 18.3889 21.2H19.1667C19.3814 21.2 19.5556 21.3791 19.5556 21.6V22.4C19.5556 22.6209 19.3814 22.8 19.1667 22.8H18.3889C18.1741 22.8 18 22.6209 18 22.4V21.6Z" fill="white"/>
<path d="M26.1667 11.6C25.9519 11.6 25.7778 11.4209 25.7778 11.2V10.4C25.7778 10.1791 25.9519 10 26.1667 10L27.7222 10C27.937 10 28.1111 10.1791 28.1111 10.4V11.2C28.1111 11.4209 27.937 11.6 27.7222 11.6H26.1667Z" fill="white"/>
<path d="M23.8333 42C23.6186 42 23.4444 41.8209 23.4444 41.6V40.8C23.4444 40.5791 23.6186 40.4 23.8333 40.4H28.5C28.7148 40.4 28.8889 40.5791 28.8889 40.8V41.6C28.8889 41.8209 28.7148 42 28.5 42H23.8333Z" fill="white"/>
<path d="M30.4444 36C30.4444 35.7791 30.6186 35.6 30.8333 35.6H31.6111C31.8259 35.6 32 35.7791 32 36V36.8C32 37.0209 31.8259 37.2 31.6111 37.2H30.8333C30.6186 37.2 30.4444 37.0209 30.4444 36.8V36Z" fill="white"/>
<path d="M30.4444 32.8C30.4444 32.5791 30.6186 32.4 30.8333 32.4H31.6111C31.8259 32.4 32 32.5791 32 32.8V33.6C32 33.8209 31.8259 34 31.6111 34H30.8333C30.6186 34 30.4444 33.8209 30.4444 33.6V32.8Z" fill="white"/>
<path d="M18 36C18 35.7791 18.1741 35.6 18.3889 35.6H19.1667C19.3814 35.6 19.5556 35.7791 19.5556 36V36.8C19.5556 37.0209 19.3814 37.2 19.1667 37.2H18.3889C18.1741 37.2 18 37.0209 18 36.8V36Z" fill="white"/>
<path d="M18 32.8C18 32.5791 18.1741 32.4 18.3889 32.4H19.1667C19.3814 32.4 19.5556 32.5791 19.5556 32.8V33.6C19.5556 33.8209 19.3814 34 19.1667 34H18.3889C18.1741 34 18 33.8209 18 33.6V32.8Z" fill="white"/>
<path d="M30.4444 20C30.4444 19.7791 30.6186 19.6 30.8333 19.6H31.6111C31.8259 19.6 32 19.7791 32 20V20.8C32 21.0209 31.8259 21.2 31.6111 21.2H30.8333C30.6186 21.2 30.4444 21.0209 30.4444 20.8V20Z" fill="white"/>
<path d="M18 20C18 19.7791 18.1741 19.6 18.3889 19.6H19.1667C19.3814 19.6 19.5556 19.7791 19.5556 20V20.8C19.5556 21.0209 19.3814 21.2 19.1667 21.2H18.3889C18.1741 21.2 18 21.0209 18 20.8V20Z" fill="white"/>
<path d="M30.4444 16.8C30.4444 16.5791 30.6186 16.4 30.8333 16.4H31.6111C31.8259 16.4 32 16.5791 32 16.8V17.6C32 17.8209 31.8259 18 31.6111 18H30.8333C30.6186 18 30.4444 17.8209 30.4444 17.6V16.8Z" fill="white"/>
<path d="M18 16.8C18 16.5791 18.1741 16.4 18.3889 16.4H19.1667C19.3814 16.4 19.5556 16.5791 19.5556 16.8V17.6C19.5556 17.8209 19.3814 18 19.1667 18H18.3889C18.1741 18 18 17.8209 18 17.6V16.8Z" fill="white"/>
<path d="M30.4444 39.2C30.4444 38.9791 30.6186 38.8 30.8333 38.8H31.6111C31.8259 38.8 32 38.9791 32 39.2V40C32 40.2209 31.8259 40.4 31.6111 40.4H30.8333C30.6186 40.4 30.4444 40.2209 30.4444 40V39.2Z" fill="white"/>
<path d="M18 39.2C18 38.9791 18.1741 38.8 18.3889 38.8H19.1667C19.3814 38.8 19.5556 38.9791 19.5556 39.2V40C19.5556 40.2209 19.3814 40.4 19.1667 40.4H18.3889C18.1741 40.4 18 40.2209 18 40V39.2Z" fill="white"/>
<path d="M30.4444 23.2C30.4444 22.9791 30.6186 22.8 30.8333 22.8H31.6111C31.8259 22.8 32 22.9791 32 23.2V24C32 24.2209 31.8259 24.4 31.6111 24.4H30.8333C30.6186 24.4 30.4444 24.2209 30.4444 24V23.2Z" fill="white"/>
<path d="M18 23.2C18 22.9791 18.1741 22.8 18.3889 22.8H19.1667C19.3814 22.8 19.5556 22.9791 19.5556 23.2V24C19.5556 24.2209 19.3814 24.4 19.1667 24.4H18.3889C18.1741 24.4 18 24.2209 18 24V23.2Z" fill="white"/>
<path d="M28.5 11.6C28.2852 11.6 28.1111 11.4209 28.1111 11.2V10.4C28.1111 10.1791 28.2852 10 28.5 10L29.2778 10C29.4926 10 29.6667 10.1791 29.6667 10.4V11.2C29.6667 11.4209 29.4926 11.6 29.2778 11.6H28.5Z" fill="white"/>
<path d="M29.2778 41.2C29.063 41.2 28.8889 41.0209 28.8889 40.8V40C28.8889 39.7791 29.063 39.6 29.2778 39.6H30.0556C30.2703 39.6 30.4444 39.7791 30.4444 40V40.8C30.4444 41.0209 30.2703 41.2 30.0556 41.2H29.2778Z" fill="white"/>
</svg>
