<svg width="51" height="52" viewBox="0 0 51 52" fill="none" xmlns="http://www.w3.org/2000/svg">
<rect y="0.327637" width="51" height="51" rx="25.5" fill="black"/>
<rect x="1" y="1.32764" width="49" height="49" rx="24.5" stroke="black" stroke-opacity="0.1" stroke-width="2"/>
<path d="M24.3934 17.7674C24.3934 18.0115 24.5916 18.2093 24.8361 18.2093H26.1639C26.4084 18.2093 26.6066 18.0115 26.6066 17.7674V16.4419C26.6066 16.1978 26.4084 16 26.1639 16H24.8361C24.5916 16 24.3934 16.1978 24.3934 16.4419V17.7674Z" fill="white"/>
<path d="M19.9672 18.6512C19.9672 18.8952 20.1654 19.093 20.4098 19.093H21.7377C21.9822 19.093 22.1803 18.8952 22.1803 18.6512V17.3256C22.1803 17.0815 21.9822 16.8837 21.7377 16.8837H20.4098C20.1654 16.8837 19.9672 17.0815 19.9672 17.3256V18.6512Z" fill="white"/>
<path d="M17.3115 19.5349C17.3115 19.7789 17.5096 19.9767 17.7541 19.9767H19.082C19.3264 19.9767 19.5246 19.7789 19.5246 19.5349V18.2093C19.5246 17.9653 19.3264 17.7674 19.082 17.7674H17.7541C17.5096 17.7674 17.3115 17.9653 17.3115 18.2093V19.5349Z" fill="white"/>
<path d="M12 25.7209C12 25.965 12.1982 26.1628 12.4426 26.1628H13.7705C14.0149 26.1628 14.2131 25.965 14.2131 25.7209V24.3953C14.2131 24.1513 14.0149 23.9535 13.7705 23.9535H12.4426C12.1982 23.9535 12 24.1513 12 24.3953V25.7209Z" fill="white"/>
<path d="M12.8852 23.0698C12.8852 23.3138 13.0834 23.5116 13.3279 23.5116H14.6557C14.9002 23.5116 15.0984 23.3138 15.0984 23.0698V21.7442C15.0984 21.5002 14.9002 21.3023 14.6557 21.3023H13.3279C13.0834 21.3023 12.8852 21.5002 12.8852 21.7442V23.0698Z" fill="white"/>
<path d="M12 28.3721C12 28.6161 12.1982 28.814 12.4426 28.814H13.7705C14.0149 28.814 14.2131 28.6161 14.2131 28.3721V27.0465C14.2131 26.8025 14.0149 26.6047 13.7705 26.6047H12.4426C12.1982 26.6047 12 26.8025 12 27.0465V28.3721Z" fill="white"/>
<path d="M15.541 32.7907C15.541 33.0347 15.7392 33.2326 15.9836 33.2326H17.3115C17.5559 33.2326 17.7541 33.0347 17.7541 32.7907V31.4651C17.7541 31.2211 17.5559 31.0233 17.3115 31.0233H15.9836C15.7392 31.0233 15.541 31.2211 15.541 31.4651V32.7907Z" fill="white"/>
<path d="M13.7705 31.0233C13.7705 31.2673 13.9687 31.4651 14.2131 31.4651H15.541C15.7854 31.4651 15.9836 31.2673 15.9836 31.0233V29.6977C15.9836 29.4536 15.7854 29.2558 15.541 29.2558H14.2131C13.9687 29.2558 13.7705 29.4536 13.7705 29.6977V31.0233Z" fill="white"/>
<path d="M19.082 33.6744C19.082 33.9185 19.2801 34.1163 19.5246 34.1163H20.8525C21.0969 34.1163 21.2951 33.9185 21.2951 33.6744V32.3488C21.2951 32.1048 21.0969 31.907 20.8525 31.907H19.5246C19.2801 31.907 19.082 32.1048 19.082 32.3488V33.6744Z" fill="white"/>
<path d="M20.8525 33.6744C20.8525 33.9185 21.0506 34.1163 21.2951 34.1163H22.623C22.8674 34.1163 23.0656 33.9185 23.0656 33.6744V32.3488C23.0656 32.1048 22.8674 31.907 22.623 31.907H21.2951C21.0506 31.907 20.8525 32.1048 20.8525 32.3488V33.6744Z" fill="white"/>
<path d="M22.623 34.5581C22.623 34.8022 22.8211 35 23.0656 35H24.3934C24.6379 35 24.8361 34.8022 24.8361 34.5581V33.2326C24.8361 32.9885 24.6379 32.7907 24.3934 32.7907H23.0656C22.8211 32.7907 22.623 32.9885 22.623 33.2326V34.5581Z" fill="white"/>
<path d="M24.3934 34.5581C24.3934 34.8022 24.5916 35 24.8361 35H26.1639C26.4084 35 26.6066 34.8022 26.6066 34.5581V33.2326C26.6066 32.9885 26.4084 32.7907 26.1639 32.7907H24.8361C24.5916 32.7907 24.3934 32.9885 24.3934 33.2326V34.5581Z" fill="white"/>
<path d="M27.0492 34.5581C27.0492 34.8022 27.2473 35 27.4918 35H28.8197C29.0641 35 29.2623 34.8022 29.2623 34.5581V33.2326C29.2623 32.9885 29.0641 32.7907 28.8197 32.7907H27.4918C27.2473 32.7907 27.0492 32.9885 27.0492 33.2326V34.5581Z" fill="white"/>
<path d="M29.7049 34.5581C29.7049 34.8022 29.9031 35 30.1475 35H31.4754C31.7199 35 31.918 34.8022 31.918 34.5581V33.2326C31.918 32.9885 31.7199 32.7907 31.4754 32.7907H30.1475C29.9031 32.7907 29.7049 32.9885 29.7049 33.2326V34.5581Z" fill="white"/>
<path d="M30.5902 24.8372C30.5902 25.0812 30.7883 25.2791 31.0328 25.2791H32.3607C32.6051 25.2791 32.8033 25.0812 32.8033 24.8372V23.5116C32.8033 23.2676 32.6051 23.0698 32.3607 23.0698H31.0328C30.7883 23.0698 30.5902 23.2676 30.5902 23.5116V24.8372Z" fill="white"/>
<path d="M17.3115 26.6047C17.3115 26.8487 17.5096 27.0465 17.7541 27.0465H19.082C19.3264 27.0465 19.5246 26.8487 19.5246 26.6047V25.2791C19.5246 25.035 19.3264 24.8372 19.082 24.8372H17.7541C17.5096 24.8372 17.3115 25.035 17.3115 25.2791V26.6047Z" fill="white"/>
<path d="M27.0492 29.2558C27.0492 29.4998 27.2473 29.6977 27.4918 29.6977H28.8197C29.0641 29.6977 29.2623 29.4998 29.2623 29.2558V27.9302C29.2623 27.6862 29.0641 27.4884 28.8197 27.4884H27.4918C27.2473 27.4884 27.0492 27.6862 27.0492 27.9302V29.2558Z" fill="white"/>
<path d="M23.5082 23.0698C23.5082 23.3138 23.7064 23.5116 23.9508 23.5116H25.2787C25.5231 23.5116 25.7213 23.3138 25.7213 23.0698V21.7442C25.7213 21.5002 25.5231 21.3023 25.2787 21.3023H23.9508C23.7064 21.3023 23.5082 21.5002 23.5082 21.7442V23.0698Z" fill="white"/>
<path d="M31.4754 32.7907C31.4754 33.0347 31.6736 33.2326 31.918 33.2326H33.2459C33.4904 33.2326 33.6885 33.0347 33.6885 32.7907V31.4651C33.6885 31.2211 33.4904 31.0233 33.2459 31.0233H31.918C31.6736 31.0233 31.4754 31.2211 31.4754 31.4651V32.7907Z" fill="white"/>
<path d="M34.1311 31.907C34.1311 32.151 34.3293 32.3488 34.5738 32.3488H35.9016C36.1461 32.3488 36.3443 32.151 36.3443 31.907V30.5814C36.3443 30.3374 36.1461 30.1395 35.9016 30.1395H34.5738C34.3293 30.1395 34.1311 30.3374 34.1311 30.5814V31.907Z" fill="white"/>
<path d="M35.9016 29.2558C35.9016 29.4998 36.0998 29.6977 36.3443 29.6977H37.6721C37.9166 29.6977 38.1148 29.4998 38.1148 29.2558V27.9302C38.1148 27.6862 37.9166 27.4884 37.6721 27.4884H36.3443C36.0998 27.4884 35.9016 27.6862 35.9016 27.9302V29.2558Z" fill="white"/>
<path d="M35.0164 22.186C35.0164 22.4301 35.2146 22.6279 35.459 22.6279H36.7869C37.0313 22.6279 37.2295 22.4301 37.2295 22.186V20.8605C37.2295 20.6164 37.0313 20.4186 36.7869 20.4186H35.459C35.2146 20.4186 35.0164 20.6164 35.0164 20.8605V22.186Z" fill="white"/>
<path d="M33.2459 20.4186C33.2459 20.6626 33.4441 20.8605 33.6885 20.8605H35.0164C35.2608 20.8605 35.459 20.6626 35.459 20.4186V19.093C35.459 18.849 35.2608 18.6512 35.0164 18.6512H33.6885C33.4441 18.6512 33.2459 18.849 33.2459 19.093V20.4186Z" fill="white"/>
<path d="M14.6557 20.4186C14.6557 20.6626 14.8539 20.8605 15.0984 20.8605H16.4262C16.6707 20.8605 16.8689 20.6626 16.8689 20.4186V19.093C16.8689 18.849 16.6707 18.6512 16.4262 18.6512H15.0984C14.8539 18.6512 14.6557 18.849 14.6557 19.093V20.4186Z" fill="white"/>
<path d="M36.7869 26.6047C36.7869 26.8487 36.9851 27.0465 37.2295 27.0465H38.5574C38.8018 27.0465 39 26.8487 39 26.6047V25.2791C39 25.035 38.8018 24.8372 38.5574 24.8372H37.2295C36.9851 24.8372 36.7869 25.035 36.7869 25.2791V26.6047Z" fill="white"/>
<path d="M36.7869 23.9535C36.7869 24.1975 36.9851 24.3953 37.2295 24.3953H38.5574C38.8018 24.3953 39 24.1975 39 23.9535V22.6279C39 22.3839 38.8018 22.186 38.5574 22.186H37.2295C36.9851 22.186 36.7869 22.3839 36.7869 22.6279V23.9535Z" fill="white"/>
<path d="M31.4754 19.5349C31.4754 19.7789 31.6736 19.9767 31.918 19.9767H33.2459C33.4904 19.9767 33.6885 19.7789 33.6885 19.5349V18.2093C33.6885 17.9653 33.4904 17.7674 33.2459 17.7674H31.918C31.6736 17.7674 31.4754 17.9653 31.4754 18.2093V19.5349Z" fill="white"/>
<path d="M27.9344 18.6512C27.9344 18.8952 28.1326 19.093 28.3771 19.093H29.7049C29.9494 19.093 30.1475 18.8952 30.1475 18.6512V17.3256C30.1475 17.0815 29.9494 16.8837 29.7049 16.8837H28.3771C28.1326 16.8837 27.9344 17.0815 27.9344 17.3256V18.6512Z" fill="white"/>
<path d="M26.1639 17.7674C26.1639 18.0115 26.3621 18.2093 26.6066 18.2093H27.9344C28.1789 18.2093 28.3771 18.0115 28.3771 17.7674V16.4419C28.3771 16.1978 28.1789 16 27.9344 16H26.6066C26.3621 16 26.1639 16.1978 26.1639 16.4419V17.7674Z" fill="white"/>
<path d="M21.7377 18.6512C21.7377 18.8952 21.9359 19.093 22.1803 19.093H23.5082C23.7527 19.093 23.9508 18.8952 23.9508 18.6512V17.3256C23.9508 17.0815 23.7527 16.8837 23.5082 16.8837H22.1803C21.9359 16.8837 21.7377 17.0815 21.7377 17.3256V18.6512Z" fill="white"/>
<path d="M29.7049 18.6512C29.7049 18.8952 29.9031 19.093 30.1475 19.093H31.4754C31.7199 19.093 31.918 18.8952 31.918 18.6512V17.3256C31.918 17.0815 31.7199 16.8837 31.4754 16.8837H30.1475C29.9031 16.8837 29.7049 17.0815 29.7049 17.3256V18.6512Z" fill="white"/>
</svg>
