<svg width="51" height="52" viewBox="0 0 51 52" fill="none" xmlns="http://www.w3.org/2000/svg">
<rect y="0.327637" width="51" height="51" rx="25.5" fill="black"/>
<rect x="1" y="1.32764" width="49" height="49" rx="24.5" stroke="black" stroke-opacity="0.1" stroke-width="2"/>
<path d="M33.25 17.1154C33.25 16.8817 33.4459 16.6923 33.6875 16.6923H34.5625C34.8041 16.6923 35 16.8817 35 17.1154V17.9615C35 18.1952 34.8041 18.3846 34.5625 18.3846H33.6875C33.4459 18.3846 33.25 18.1952 33.25 17.9615V17.1154Z" fill="white"/>
<path d="M14 17.1154C14 16.8817 14.1959 16.6923 14.4375 16.6923H15.3125C15.5541 16.6923 15.75 16.8817 15.75 17.1154V17.9615C15.75 18.1952 15.5541 18.3846 15.3125 18.3846H14.4375C14.1959 18.3846 14 18.1952 14 17.9615V17.1154Z" fill="white"/>
<path d="M16.1875 16.6923C15.9459 16.6923 15.75 16.5029 15.75 16.2692V15.4231C15.75 15.1894 15.9459 15 16.1875 15L17.0625 15C17.3041 15 17.5 15.1894 17.5 15.4231V16.2692C17.5 16.5029 17.3041 16.6923 17.0625 16.6923H16.1875Z" fill="white"/>
<path d="M16.1875 36.1538C15.9459 36.1538 15.75 35.9644 15.75 35.7308V34.8846C15.75 34.651 15.9459 34.4615 16.1875 34.4615H17.0625C17.3041 34.4615 17.5 34.651 17.5 34.8846V35.7308C17.5 35.9644 17.3041 36.1538 17.0625 36.1538H16.1875Z" fill="white"/>
<path d="M33.25 28.9615C33.25 28.7279 33.4459 28.5385 33.6875 28.5385H34.5625C34.8041 28.5385 35 28.7279 35 28.9615V29.8077C35 30.0414 34.8041 30.2308 34.5625 30.2308H33.6875C33.4459 30.2308 33.25 30.0414 33.25 29.8077V28.9615Z" fill="white"/>
<path d="M40.25 28.9615C40.25 28.7279 40.4459 28.5385 40.6875 28.5385H41.5625C41.8041 28.5385 42 28.7279 42 28.9615V29.8077C42 30.0414 41.8041 30.2308 41.5625 30.2308H40.6875C40.4459 30.2308 40.25 30.0414 40.25 29.8077V28.9615Z" fill="white"/>
<path d="M14 28.9615C14 28.7279 14.1959 28.5385 14.4375 28.5385H15.3125C15.5541 28.5385 15.75 28.7279 15.75 28.9615V29.8077C15.75 30.0414 15.5541 30.2308 15.3125 30.2308H14.4375C14.1959 30.2308 14 30.0414 14 29.8077V28.9615Z" fill="white"/>
<path d="M33.25 23.8846C33.25 23.651 33.4459 23.4615 33.6875 23.4615H34.5625C34.8041 23.4615 35 23.651 35 23.8846V24.7308C35 24.9644 34.8041 25.1538 34.5625 25.1538H33.6875C33.4459 25.1538 33.25 24.9644 33.25 24.7308V23.8846Z" fill="white"/>
<path d="M38.5 23.8846C38.5 23.651 38.6959 23.4615 38.9375 23.4615H39.8125C40.0541 23.4615 40.25 23.651 40.25 23.8846V24.7308C40.25 24.9644 40.0541 25.1538 39.8125 25.1538H38.9375C38.6959 25.1538 38.5 24.9644 38.5 24.7308V23.8846Z" fill="white"/>
<path d="M36.75 23.8846C36.75 23.651 36.9459 23.4615 37.1875 23.4615H38.0625C38.3041 23.4615 38.5 23.651 38.5 23.8846V24.7308C38.5 24.9644 38.3041 25.1538 38.0625 25.1538H37.1875C36.9459 25.1538 36.75 24.9644 36.75 24.7308V23.8846Z" fill="white"/>
<path d="M14 23.8846C14 23.651 14.1959 23.4615 14.4375 23.4615H15.3125C15.5541 23.4615 15.75 23.651 15.75 23.8846V24.7308C15.75 24.9644 15.5541 25.1538 15.3125 25.1538H14.4375C14.1959 25.1538 14 24.9644 14 24.7308V23.8846Z" fill="white"/>
<path d="M24.0625 16.6923C23.8209 16.6923 23.625 16.5029 23.625 16.2692V15.4231C23.625 15.1894 23.8209 15 24.0625 15L25.8125 15C26.0541 15 26.25 15.1894 26.25 15.4231V16.2692C26.25 16.5029 26.0541 16.6923 25.8125 16.6923H24.0625Z" fill="white"/>
<path d="M24.0625 37C23.8209 37 23.625 36.8106 23.625 36.5769V35.7308C23.625 35.4971 23.8209 35.3077 24.0625 35.3077H25.8125C26.0541 35.3077 26.25 35.4971 26.25 35.7308V36.5769C26.25 36.8106 26.0541 37 25.8125 37H24.0625Z" fill="white"/>
<path d="M32.375 20.5C32.375 20.2663 32.5709 20.0769 32.8125 20.0769H33.6875C33.9291 20.0769 34.125 20.2663 34.125 20.5V21.3462C34.125 21.5798 33.9291 21.7692 33.6875 21.7692H32.8125C32.5709 21.7692 32.375 21.5798 32.375 21.3462V20.5Z" fill="white"/>
<path d="M16.625 21.3462C16.625 21.1125 16.8209 20.9231 17.0625 20.9231H31.9375C32.1791 20.9231 32.375 21.1125 32.375 21.3462V22.1923C32.375 22.426 32.1791 22.6154 31.9375 22.6154H17.0625C16.8209 22.6154 16.625 22.426 16.625 22.1923V21.3462Z" fill="white"/>
<path d="M14.875 20.5C14.875 20.2663 15.0709 20.0769 15.3125 20.0769H16.1875C16.4291 20.0769 16.625 20.2663 16.625 20.5V21.3462C16.625 21.5798 16.4291 21.7692 16.1875 21.7692H15.3125C15.0709 21.7692 14.875 21.5798 14.875 21.3462V20.5Z" fill="white"/>
<path d="M20.5625 16.6923C20.3209 16.6923 20.125 16.5029 20.125 16.2692V15.4231C20.125 15.1894 20.3209 15 20.5625 15L21.4375 15C21.6791 15 21.875 15.1894 21.875 15.4231V16.2692C21.875 16.5029 21.6791 16.6923 21.4375 16.6923H20.5625Z" fill="white"/>
<path d="M20.5625 37C20.3209 37 20.125 36.8106 20.125 36.5769V35.7308C20.125 35.4971 20.3209 35.3077 20.5625 35.3077H21.4375C21.6791 35.3077 21.875 35.4971 21.875 35.7308V36.5769C21.875 36.8106 21.6791 37 21.4375 37H20.5625Z" fill="white"/>
<path d="M33.25 18.8077C33.25 18.574 33.4459 18.3846 33.6875 18.3846H34.5625C34.8041 18.3846 35 18.574 35 18.8077V19.6538C35 19.8875 34.8041 20.0769 34.5625 20.0769H33.6875C33.4459 20.0769 33.25 19.8875 33.25 19.6538V18.8077Z" fill="white"/>
<path d="M14 18.8077C14 18.574 14.1959 18.3846 14.4375 18.3846H15.3125C15.5541 18.3846 15.75 18.574 15.75 18.8077V19.6538C15.75 19.8875 15.5541 20.0769 15.3125 20.0769H14.4375C14.1959 20.0769 14 19.8875 14 19.6538V18.8077Z" fill="white"/>
<path d="M17.9375 16.6923C17.6959 16.6923 17.5 16.5029 17.5 16.2692V15.4231C17.5 15.1894 17.6959 15 17.9375 15L19.6875 15C19.9291 15 20.125 15.1894 20.125 15.4231V16.2692C20.125 16.5029 19.9291 16.6923 19.6875 16.6923H17.9375Z" fill="white"/>
<path d="M17.9375 37C17.6959 37 17.5 36.8106 17.5 36.5769V35.7308C17.5 35.4971 17.6959 35.3077 17.9375 35.3077H19.6875C19.9291 35.3077 20.125 35.4971 20.125 35.7308V36.5769C20.125 36.8106 19.9291 37 19.6875 37H17.9375Z" fill="white"/>
<path d="M33.25 32.3462C33.25 32.1125 33.4459 31.9231 33.6875 31.9231H34.5625C34.8041 31.9231 35 32.1125 35 32.3462V33.1923C35 33.426 34.8041 33.6154 34.5625 33.6154H33.6875C33.4459 33.6154 33.25 33.426 33.25 33.1923V32.3462Z" fill="white"/>
<path d="M14 32.3462C14 32.1125 14.1959 31.9231 14.4375 31.9231H15.3125C15.5541 31.9231 15.75 32.1125 15.75 32.3462V33.1923C15.75 33.426 15.5541 33.6154 15.3125 33.6154H14.4375C14.1959 33.6154 14 33.426 14 33.1923V32.3462Z" fill="white"/>
<path d="M33.25 27.2692C33.25 27.0356 33.4459 26.8462 33.6875 26.8462H34.5625C34.8041 26.8462 35 27.0356 35 27.2692V28.1154C35 28.349 34.8041 28.5385 34.5625 28.5385H33.6875C33.4459 28.5385 33.25 28.349 33.25 28.1154V27.2692Z" fill="white"/>
<path d="M40.25 27.2692C40.25 27.0356 40.4459 26.8462 40.6875 26.8462H41.5625C41.8041 26.8462 42 27.0356 42 27.2692V28.1154C42 28.349 41.8041 28.5385 41.5625 28.5385H40.6875C40.4459 28.5385 40.25 28.349 40.25 28.1154V27.2692Z" fill="white"/>
<path d="M14 27.2692C14 27.0356 14.1959 26.8462 14.4375 26.8462H15.3125C15.5541 26.8462 15.75 27.0356 15.75 27.2692V28.1154C15.75 28.349 15.5541 28.5385 15.3125 28.5385H14.4375C14.1959 28.5385 14 28.349 14 28.1154V27.2692Z" fill="white"/>
<path d="M28.4375 16.6923C28.1959 16.6923 28 16.5029 28 16.2692V15.4231C28 15.1894 28.1959 15 28.4375 15L30.1875 15C30.4291 15 30.625 15.1894 30.625 15.4231V16.2692C30.625 16.5029 30.4291 16.6923 30.1875 16.6923H28.4375Z" fill="white"/>
<path d="M28.4375 37C28.1959 37 28 36.8106 28 36.5769V35.7308C28 35.4971 28.1959 35.3077 28.4375 35.3077H31.0625C31.3041 35.3077 31.5 35.4971 31.5 35.7308V36.5769C31.5 36.8106 31.3041 37 31.0625 37H28.4375Z" fill="white"/>
<path d="M33.25 30.6538C33.25 30.4202 33.4459 30.2308 33.6875 30.2308H34.5625C34.8041 30.2308 35 30.4202 35 30.6538V31.5C35 31.7337 34.8041 31.9231 34.5625 31.9231H33.6875C33.4459 31.9231 33.25 31.7337 33.25 31.5V30.6538Z" fill="white"/>
<path d="M38.5 30.6538C38.5 30.4202 38.6959 30.2308 38.9375 30.2308H39.8125C40.0541 30.2308 40.25 30.4202 40.25 30.6538V31.5C40.25 31.7337 40.0541 31.9231 39.8125 31.9231H38.9375C38.6959 31.9231 38.5 31.7337 38.5 31.5V30.6538Z" fill="white"/>
<path d="M36.75 30.6538C36.75 30.4202 36.9459 30.2308 37.1875 30.2308H38.0625C38.3041 30.2308 38.5 30.4202 38.5 30.6538V31.5C38.5 31.7337 38.3041 31.9231 38.0625 31.9231H37.1875C36.9459 31.9231 36.75 31.7337 36.75 31.5V30.6538Z" fill="white"/>
<path d="M14 30.6538C14 30.4202 14.1959 30.2308 14.4375 30.2308H15.3125C15.5541 30.2308 15.75 30.4202 15.75 30.6538V31.5C15.75 31.7337 15.5541 31.9231 15.3125 31.9231H14.4375C14.1959 31.9231 14 31.7337 14 31.5V30.6538Z" fill="white"/>
<path d="M33.25 25.5769C33.25 25.3433 33.4459 25.1538 33.6875 25.1538H34.5625C34.8041 25.1538 35 25.3433 35 25.5769V26.4231C35 26.6567 34.8041 26.8462 34.5625 26.8462H33.6875C33.4459 26.8462 33.25 26.6567 33.25 26.4231V25.5769Z" fill="white"/>
<path d="M40.25 25.5769C40.25 25.3433 40.4459 25.1538 40.6875 25.1538H41.5625C41.8041 25.1538 42 25.3433 42 25.5769V26.4231C42 26.6567 41.8041 26.8462 41.5625 26.8462H40.6875C40.4459 26.8462 40.25 26.6567 40.25 26.4231V25.5769Z" fill="white"/>
<path d="M14 25.5769C14 25.3433 14.1959 25.1538 14.4375 25.1538H15.3125C15.5541 25.1538 15.75 25.3433 15.75 25.5769V26.4231C15.75 26.6567 15.5541 26.8462 15.3125 26.8462H14.4375C14.1959 26.8462 14 26.6567 14 26.4231V25.5769Z" fill="white"/>
<path d="M26.6875 16.6923C26.4459 16.6923 26.25 16.5029 26.25 16.2692V15.4231C26.25 15.1894 26.4459 15 26.6875 15L27.5625 15C27.8041 15 28 15.1894 28 15.4231V16.2692C28 16.5029 27.8041 16.6923 27.5625 16.6923H26.6875Z" fill="white"/>
<path d="M26.6875 37C26.4459 37 26.25 36.8106 26.25 36.5769V35.7308C26.25 35.4971 26.4459 35.3077 26.6875 35.3077H27.5625C27.8041 35.3077 28 35.4971 28 35.7308V36.5769C28 36.8106 27.8041 37 27.5625 37H26.6875Z" fill="white"/>
<path d="M33.25 22.1923C33.25 21.9586 33.4459 21.7692 33.6875 21.7692H34.5625C34.8041 21.7692 35 21.9586 35 22.1923V23.0385C35 23.2721 34.8041 23.4615 34.5625 23.4615H33.6875C33.4459 23.4615 33.25 23.2721 33.25 23.0385V22.1923Z" fill="white"/>
<path d="M14 22.1923C14 21.9586 14.1959 21.7692 14.4375 21.7692H15.3125C15.5541 21.7692 15.75 21.9586 15.75 22.1923V23.0385C15.75 23.2721 15.5541 23.4615 15.3125 23.4615H14.4375C14.1959 23.4615 14 23.2721 14 23.0385V22.1923Z" fill="white"/>
<path d="M22.3125 16.6923C22.0709 16.6923 21.875 16.5029 21.875 16.2692V15.4231C21.875 15.1894 22.0709 15 22.3125 15H24.0625C24.3041 15 24.5 15.1894 24.5 15.4231V16.2692C24.5 16.5029 24.3041 16.6923 24.0625 16.6923H22.3125Z" fill="white"/>
<path d="M22.3125 37C22.0709 37 21.875 36.8106 21.875 36.5769V35.7308C21.875 35.4971 22.0709 35.3077 22.3125 35.3077H24.0625C24.3041 35.3077 24.5 35.4971 24.5 35.7308V36.5769C24.5 36.8106 24.3041 37 24.0625 37H22.3125Z" fill="white"/>
<path d="M33.25 34.0385C33.25 33.8048 33.4459 33.6154 33.6875 33.6154H34.5625C34.8041 33.6154 35 33.8048 35 34.0385V34.8846C35 35.1183 34.8041 35.3077 34.5625 35.3077H33.6875C33.4459 35.3077 33.25 35.1183 33.25 34.8846V34.0385Z" fill="white"/>
<path d="M14 34.0385C14 33.8048 14.1959 33.6154 14.4375 33.6154H15.3125C15.5541 33.6154 15.75 33.8048 15.75 34.0385V34.8846C15.75 35.1183 15.5541 35.3077 15.3125 35.3077H14.4375C14.1959 35.3077 14 35.1183 14 34.8846V34.0385Z" fill="white"/>
<path d="M31.0625 16.6923C30.8209 16.6923 30.625 16.5029 30.625 16.2692V15.4231C30.625 15.1894 30.8209 15 31.0625 15L31.9375 15C32.1791 15 32.375 15.1894 32.375 15.4231V16.2692C32.375 16.5029 32.1791 16.6923 31.9375 16.6923H31.0625Z" fill="white"/>
<path d="M31.9375 36.1538C31.6959 36.1538 31.5 35.9644 31.5 35.7308V34.8846C31.5 34.651 31.6959 34.4615 31.9375 34.4615H32.8125C33.0541 34.4615 33.25 34.651 33.25 34.8846V35.7308C33.25 35.9644 33.0541 36.1538 32.8125 36.1538H31.9375Z" fill="white"/>
</svg>
