<svg width="32" height="31" viewBox="0 0 32 31" fill="none" xmlns="http://www.w3.org/2000/svg">
<g clip-path="url(#clip0_724_84)">
<path d="M11.8615 27.6427C12.6882 27.6427 13.3149 27.5694 13.7415 27.4227C14.1682 27.2894 14.4615 27.056 14.6215 26.7227C14.7949 26.4027 14.8949 25.9427 14.9215 25.3427H13.2015C11.9349 25.3427 10.9282 24.976 10.1815 24.2427C9.44821 23.496 9.08154 22.456 9.08154 21.1227C9.08154 20.176 9.25488 19.336 9.60154 18.6027C9.96154 17.8694 10.4482 17.3027 11.0615 16.9027C11.6882 16.4894 12.3949 16.2827 13.1815 16.2827C14.0349 16.2827 14.7815 16.4827 15.4215 16.8827C16.0749 17.2827 16.5749 17.8494 16.9215 18.5827C17.2815 19.316 17.4615 20.1627 17.4615 21.1227V22.4627H18.5615L18.7215 23.9227L18.5615 25.3427H17.4615C17.4082 26.9027 16.9282 28.156 16.0215 29.1027C15.1149 30.0494 13.7282 30.5227 11.8615 30.5227H9.48154V27.6427H11.8615ZM11.5215 20.9827C11.5215 21.5294 11.6549 21.936 11.9215 22.2027C12.1882 22.456 12.6149 22.5827 13.2015 22.5827H14.9215V21.0627C14.9215 19.676 14.3415 18.9827 13.1815 18.9827C12.6349 18.9827 12.2215 19.1694 11.9415 19.5427C11.6615 19.916 11.5215 20.396 11.5215 20.9827Z" fill="black"/>
<path d="M17.9326 22.4627H27.1526C27.7526 22.4627 28.1793 22.3627 28.4326 22.1627C28.686 21.9494 28.7993 21.6494 28.7726 21.2627C28.706 20.436 28.5326 19.3294 28.2526 17.9427L30.6526 17.3427C30.8126 18.0494 30.9593 18.8027 31.0926 19.6027C31.2393 20.4027 31.3126 21.0494 31.3126 21.5427C31.3126 22.2094 31.166 22.8294 30.8726 23.4027C30.5793 23.976 30.1326 24.4427 29.5326 24.8027C28.946 25.1627 28.2193 25.3427 27.3526 25.3427H17.9326V22.4627ZM25.4926 12.7427H27.8726V15.1227H25.4926V12.7427ZM26.2326 12.7427H31.6326V15.1227H26.2326V12.7427Z" fill="black"/>
<path d="M14.08 14.3429C12.68 14.3429 11.6467 13.9362 10.98 13.1229C10.3267 12.3096 10 11.2162 10 9.84291V0.98291H12.54V9.84291C12.54 10.3496 12.5667 10.7096 12.62 10.9229C12.6867 11.1362 12.82 11.2829 13.02 11.3629C13.2333 11.4296 13.5867 11.4629 14.08 11.4629H14.8L14.92 12.9429L14.8 14.3429H14.08Z" fill="black"/>
<path d="M14.1956 11.4631H14.7156C14.9823 11.4631 15.1823 11.4031 15.3156 11.2831C15.4623 11.1498 15.569 10.9364 15.6356 10.6431L16.1556 8.72307C16.449 7.56307 16.9423 6.6764 17.6356 6.06307C18.329 5.44974 19.1623 5.14307 20.1356 5.14307C20.909 5.14307 21.5956 5.3564 22.1956 5.78307C22.809 6.1964 23.289 6.7764 23.6356 7.52307C23.9823 8.2564 24.1556 9.08307 24.1556 10.0031C24.1556 11.1098 23.9756 12.0164 23.6156 12.7231C23.2556 13.4164 22.8023 13.9231 22.2556 14.2431C21.7223 14.5498 21.1623 14.7031 20.5756 14.7031C20.1223 14.7031 19.6423 14.6098 19.1356 14.4231C18.6423 14.2498 17.9023 13.9298 16.9156 13.4631C16.609 13.7431 16.269 13.9631 15.8956 14.1231C15.5223 14.2698 15.1423 14.3431 14.7556 14.3431H14.1956V11.4631ZM18.1356 11.0431C18.8556 11.3764 19.389 11.6031 19.7356 11.7231C20.0823 11.8431 20.3956 11.9031 20.6756 11.9031C21.409 11.9031 21.7756 11.2764 21.7756 10.0231C21.7756 9.34307 21.629 8.82307 21.3356 8.46307C21.0423 8.08974 20.6623 7.90307 20.1956 7.90307C19.809 7.90307 19.469 8.04307 19.1756 8.32307C18.8823 8.60307 18.669 9.00974 18.5356 9.54307L18.1356 11.0431Z" fill="black"/>
<mask id="mask0_724_84" style="mask-type:luminance" maskUnits="userSpaceOnUse" x="0" y="1" width="8" height="21">
<path d="M8 1.98291H0V21.9829H8V1.98291Z" fill="white"/>
</mask>
<g mask="url(#mask0_724_84)">
<path d="M-1.46 11.5429C-2.15333 12.9962 -2.5 14.3362 -2.5 15.5629C-2.5 16.6029 -2.26 17.3829 -1.78 17.9029C-1.28667 18.4229 -0.466666 18.6829 0.68 18.6829H2.4C3.25333 18.6829 3.89333 18.6096 4.32 18.4629C4.74667 18.3162 5.03333 18.0629 5.18 17.7029C5.34 17.3429 5.42 16.8096 5.42 16.1029V3.82291H7.96V16.1029C7.96 17.7829 7.50667 19.1096 6.6 20.0829C5.70667 21.0696 4.30667 21.5629 2.4 21.5629H0.68C-0.52 21.5629 -1.54667 21.2962 -2.4 20.7629C-3.25333 20.2296 -3.9 19.5096 -4.34 18.6029C-4.78 17.6962 -5 16.6829 -5 15.5629C-5 14.7496 -4.86 13.8829 -4.58 12.9629C-4.3 12.0429 -3.96667 11.1962 -3.58 10.4229L-1.46 11.5429ZM0.68 1.98291H3.34V4.58291H0.68V1.98291Z" fill="black"/>
</g>
</g>
<defs>
<clipPath id="clip0_724_84">
<rect width="32" height="30" fill="white" transform="translate(0 0.98291)"/>
</clipPath>
</defs>
</svg>
